<?xml version="1.0" encoding="UTF-8" standalone="no"?>
<!-- Created with Inkscape (http://www.inkscape.org/) -->
<svg
   xmlns:dc="http://purl.org/dc/elements/1.1/"
   xmlns:cc="http://web.resource.org/cc/"
   xmlns:rdf="http://www.w3.org/1999/02/22-rdf-syntax-ns#"
   xmlns:svg="http://www.w3.org/2000/svg"
   xmlns="http://www.w3.org/2000/svg"
   xmlns:sodipodi="http://sodipodi.sourceforge.net/DTD/sodipodi-0.dtd"
   xmlns:inkscape="http://www.inkscape.org/namespaces/inkscape"
   width="744.09448"
   height="524.40942"
   id="svg2"
   sodipodi:version="0.32"
   inkscape:version="0.44+devel"
   sodipodi:modified="true"
   version="1.0">
  <defs
     id="defs4">
    <filter
       inkscape:collect="always"
       id="filter4153">
      <feGaussianBlur
         inkscape:collect="always"
         stdDeviation="81.084917"
         id="feGaussianBlur4155" />
    </filter>
  </defs>
  <sodipodi:namedview
     id="base"
     pagecolor="#ffffff"
     bordercolor="#666666"
     borderopacity="1.0"
     gridtolerance="10000"
     guidetolerance="10"
     objecttolerance="10"
     inkscape:pageopacity="0.0"
     inkscape:pageshadow="2"
     inkscape:zoom="0.71890394"
     inkscape:cx="372.04724"
     inkscape:cy="262.20471"
     inkscape:document-units="px"
     inkscape:current-layer="layer1"
     width="744.09449px"
     height="524.40945px"
     inkscape:window-width="742"
     inkscape:window-height="602"
     inkscape:window-x="220"
     inkscape:window-y="81" />
  <metadata
     id="metadata7">
    <rdf:RDF>
      <cc:Work
         rdf:about="">
        <dc:format>image/svg+xml</dc:format>
        <dc:type
           rdf:resource="http://purl.org/dc/dcmitype/StillImage" />
      </cc:Work>
    </rdf:RDF>
  </metadata>
  <g
     inkscape:label="Layer 1"
     inkscape:groupmode="layer"
     id="layer1">
    <rect
       style="opacity:1;fill:#c8c4b7;fill-opacity:1;fill-rule:nonzero;stroke:none;stroke-width:0.1;stroke-linecap:butt;stroke-miterlimit:4;stroke-dasharray:none;stroke-dashoffset:0;stroke-opacity:1;filter:url(#filter4153)"
       id="rect3152"
       width="5602.9243"
       height="3419.2888"
       x="-2512.4524"
       y="56.33197"
       transform="matrix(0.1104659,-2.3734892e-2,2.2163258e-2,0.1031513,300.37335,92.34573)"
       inkscape:transform-center-y="146.51662"
       inkscape:transform-center-x="-31.480785" />
    <rect
       inkscape:transform-center-x="-31.480785"
       inkscape:transform-center-y="146.51661"
       transform="matrix(0.1104659,-2.3734892e-2,2.2163258e-2,0.1031513,308.46782,74.820675)"
       y="56.33197"
       x="-2512.4524"
       height="3419.2888"
       width="5602.9243"
       id="rect3162"
       style="opacity:1;fill:#ffe680;fill-opacity:1;fill-rule:nonzero;stroke:none;stroke-width:0.1;stroke-linecap:butt;stroke-miterlimit:4;stroke-dasharray:none;stroke-dashoffset:0;stroke-opacity:1" />
    <g
       id="g3154"
       transform="matrix(0.3462881,0,0,0.3462881,227.09453,-36.050605)">
      <path
         sodipodi:type="arc"
         style="opacity:1;fill:#ecca3e;fill-opacity:1;fill-rule:nonzero;stroke:none;stroke-width:0.0804934;stroke-linecap:butt;stroke-miterlimit:4;stroke-dasharray:none;stroke-dashoffset:0;stroke-opacity:1"
         id="path4171"
         sodipodi:cx="404.38675"
         sodipodi:cy="393.1416"
         sodipodi:rx="123.43465"
         sodipodi:ry="123.43465"
         d="M 527.8214 393.1416 A 123.43465 123.43465 0 1 1  280.9521,393.1416 A 123.43465 123.43465 0 1 1  527.8214 393.1416 z"
         transform="matrix(1.2585415,-0.2300055,0.2168789,1.1867072,-274.79913,99.222105)" />
      <path
         transform="matrix(1.2585415,-0.2300055,0.2168789,1.1867072,-248.76141,68.254424)"
         d="M 527.8214 393.1416 A 123.43465 123.43465 0 1 1  280.9521,393.1416 A 123.43465 123.43465 0 1 1  527.8214 393.1416 z"
         sodipodi:ry="123.43465"
         sodipodi:rx="123.43465"
         sodipodi:cy="393.1416"
         sodipodi:cx="404.38675"
         id="path2164"
         style="opacity:1;fill:#d40000;fill-opacity:1;fill-rule:nonzero;stroke:none;stroke-width:0.0804934;stroke-linecap:butt;stroke-miterlimit:4;stroke-dasharray:none;stroke-dashoffset:0;stroke-opacity:1"
         sodipodi:type="arc" />
      <path
         id="path2179"
         d="M 509.34375,405.875 L 357.25,433.6875 L 325.40625,577.5625 C 343.07805,580.2551 361.52957,580.29626 380.25,576.875 C 464.62863,561.45433 521.61441,485.34309 509.34375,405.875 z "
         style="opacity:1;fill:#ee0000;fill-opacity:1;fill-rule:nonzero;stroke:none;stroke-width:0.1;stroke-linecap:butt;stroke-miterlimit:4;stroke-dasharray:none;stroke-dashoffset:0;stroke-opacity:1" />
      <path
         id="path2162"
         d="M 358.5625,281.15625 C 348.09597,281.05155 337.43773,281.94729 326.71875,283.90625 C 240.96686,299.57789 183.37901,377.92385 198.15625,458.78125 C 209.70749,521.98673 262.12957,567.92122 325.40625,577.5625 L 357.25,433.6875 L 509.34375,405.875 C 509.14405,404.58166 509.0804,403.29487 508.84375,402 C 495.91366,331.24978 431.82821,281.88918 358.5625,281.15625 z "
         style="opacity:1;fill:#ff0000;fill-opacity:1;fill-rule:nonzero;stroke:none;stroke-width:0.1;stroke-linecap:butt;stroke-miterlimit:4;stroke-dasharray:none;stroke-dashoffset:0;stroke-opacity:1" />
      <path
         sodipodi:nodetypes="cccssccc"
         id="path2166"
         d="M 294.2107,361.9442 L 282.79367,370.38482 L 261.73414,386.13346 C 253.13706,404.40842 254.3359,423.7989 259.7176,444.39774 C 273.6797,497.83861 313.42636,523.96124 369.50989,517.58957 C 398.21848,514.32797 424.51832,504.67345 440.64696,484.15958 L 469.89512,447.48298 L 294.2107,361.9442 z "
         style="fill:#aa0000;fill-opacity:1;fill-rule:nonzero;stroke:none;stroke-width:0.09999999;stroke-linecap:butt;stroke-miterlimit:4;stroke-dashoffset:0;stroke-opacity:1" />
      <path
         transform="matrix(0.9837071,-0.1797787,0.1695165,0.9275553,-78.013985,79.234385)"
         d="M 527.8214 393.1416 A 123.43465 123.43465 0 1 1  280.9521,393.1416 A 123.43465 123.43465 0 1 1  527.8214 393.1416 z"
         sodipodi:ry="123.43465"
         sodipodi:rx="123.43465"
         sodipodi:cy="393.1416"
         sodipodi:cx="404.38675"
         id="path2160"
         style="opacity:1;fill:#d40000;fill-opacity:1;fill-rule:nonzero;stroke:none;stroke-width:0.10298239;stroke-linecap:butt;stroke-miterlimit:4;stroke-dasharray:none;stroke-dashoffset:0;stroke-opacity:1"
         sodipodi:type="arc" />
      <path
         sodipodi:type="arc"
         style="opacity:1;fill:#ff0000;fill-opacity:1;fill-rule:nonzero;stroke:none;stroke-width:0.10298239;stroke-linecap:butt;stroke-miterlimit:4;stroke-dasharray:none;stroke-dashoffset:0;stroke-opacity:1"
         id="path2174"
         sodipodi:cx="404.38675"
         sodipodi:cy="393.1416"
         sodipodi:rx="123.43465"
         sodipodi:ry="123.43465"
         d="M 527.8214 393.1416 A 123.43465 123.43465 0 1 1  280.9521,393.1416 A 123.43465 123.43465 0 1 1  527.8214 393.1416 z"
         transform="matrix(0.9837071,-0.1797787,0.1695165,0.9275553,-69.306684,71.273294)" />
    </g>
  </g>
</svg>
