<?xml version="1.0" encoding="UTF-8" standalone="no"?>
<!-- Created with Inkscape (http://www.inkscape.org/) -->

<svg
   xmlns:dc="http://purl.org/dc/elements/1.1/"
   xmlns:cc="http://creativecommons.org/ns#"
   xmlns:rdf="http://www.w3.org/1999/02/22-rdf-syntax-ns#"
   xmlns:svg="http://www.w3.org/2000/svg"
   xmlns="http://www.w3.org/2000/svg"
   xmlns:sodipodi="http://sodipodi.sourceforge.net/DTD/sodipodi-0.dtd"
   xmlns:inkscape="http://www.inkscape.org/namespaces/inkscape"
   width="58.984985mm"
   height="72.145744mm"
   viewBox="0 0 209.00191 255.63453"
   id="svg8164"
   version="1.1"
   inkscape:version="0.91 r13725"
   sodipodi:docname="domain.svg">
  <defs
     id="defs8166">
    <inkscape:perspective
       sodipodi:type="inkscape:persp3d"
       inkscape:vp_x="13.571428 : 617.96683 : 1"
       inkscape:vp_y="0 : 1000 : 0"
       inkscape:vp_z="929.80872 : 823.32398 : 1"
       inkscape:persp3d-origin="372.04721 : 350.78741 : 1"
       id="perspective8712" />
    <clipPath
       clipPathUnits="userSpaceOnUse"
       id="clipPath7470">
      <path
         d="m 0,2.19922 3020,0 0,3309.99998 -3020,0 L 0,2.19922 Z"
         id="path7472"
         inkscape:connector-curvature="0" />
    </clipPath>
    <clipPath
       clipPathUnits="userSpaceOnUse"
       id="clipPath7580">
      <path
         d="m 460,2852.2 1950,0 0,460 -1950,0 0,-460 z"
         id="path7582"
         inkscape:connector-curvature="0" />
    </clipPath>
    <clipPath
       clipPathUnits="userSpaceOnUse"
       id="clipPath7592">
      <path
         d="m 460,1952.2 1960,0 0,900 -1960,0 0,-900 z"
         id="path7594"
         inkscape:connector-curvature="0" />
    </clipPath>
    <clipPath
       clipPathUnits="userSpaceOnUse"
       id="clipPath7604">
      <path
         d="m 460,1752.2 1950,0 0,200 -1950,0 0,-200 z"
         id="path7606"
         inkscape:connector-curvature="0" />
    </clipPath>
    <clipPath
       clipPathUnits="userSpaceOnUse"
       id="clipPath7616">
      <path
         d="m 460,1742.2 1250,0 0,10 -1250,0 0,-10 z"
         id="path7618"
         inkscape:connector-curvature="0" />
    </clipPath>
    <clipPath
       clipPathUnits="userSpaceOnUse"
       id="clipPath7604-3">
      <path
         d="m 460,1752.2 1950,0 0,200 -1950,0 0,-200 z"
         id="path7606-6"
         inkscape:connector-curvature="0" />
    </clipPath>
    <clipPath
       clipPathUnits="userSpaceOnUse"
       id="clipPath7592-7">
      <path
         d="m 460,1952.2 1960,0 0,900 -1960,0 0,-900 z"
         id="path7594-5"
         inkscape:connector-curvature="0" />
    </clipPath>
    <clipPath
       clipPathUnits="userSpaceOnUse"
       id="clipPath7580-3">
      <path
         d="m 460,2852.2 1950,0 0,460 -1950,0 0,-460 z"
         id="path7582-5"
         inkscape:connector-curvature="0" />
    </clipPath>
  </defs>
  <sodipodi:namedview
     id="base"
     pagecolor="#ffffff"
     bordercolor="#666666"
     borderopacity="1.0"
     inkscape:pageopacity="0.0"
     inkscape:pageshadow="2"
     inkscape:zoom="0.7"
     inkscape:cx="-107.81103"
     inkscape:cy="70.46192"
     inkscape:document-units="px"
     inkscape:current-layer="layer1"
     showgrid="false"
     inkscape:window-width="1600"
     inkscape:window-height="876"
     inkscape:window-x="0"
     inkscape:window-y="24"
     inkscape:window-maximized="1"
     fit-margin-top="0"
     fit-margin-left="0"
     fit-margin-right="0"
     fit-margin-bottom="0" />
  <metadata
     id="metadata8169">
    <rdf:RDF>
      <cc:Work
         rdf:about="">
        <dc:format>image/svg+xml</dc:format>
        <dc:type
           rdf:resource="http://purl.org/dc/dcmitype/StillImage" />
        <dc:title></dc:title>
      </cc:Work>
    </rdf:RDF>
  </metadata>
  <g
     inkscape:label="Layer 1"
     inkscape:groupmode="layer"
     id="layer1"
     transform="translate(-684.54782,-345.67845)">
    <g
       id="g4204"
       transform="matrix(0.61930362,0,0,0.61930362,352.6157,131.59853)">
      <path
         d="m 594.09451,678.33868 154.09763,48.5635 88.71,-64.07625 -129.8825,-24.6875 -112.92513,40.20025 z"
         style="fill:#7e7e7e;fill-opacity:1;fill-rule:nonzero;stroke:none"
         id="path7474"
         inkscape:connector-curvature="0" />
      <path
         d="m 594.09451,678.33868 154.09763,48.56487 88.71,-64.07762 -129.8825,-24.6875 -112.92513,40.20025 z"
         style="fill:none;stroke:#000000;stroke-width:1.99278748;stroke-linecap:butt;stroke-linejoin:bevel;stroke-miterlimit:4;stroke-dasharray:5.4, 1.8;stroke-dashoffset:0;stroke-opacity:1"
         id="path7476"
         inkscape:connector-curvature="0" />
      <path
         d="m 594.09451,388.62605 0,289.71263 112.92513,-40.20025 0,-214.75613 -112.92513,-34.75625 z"
         style="fill:none;stroke:#000000;stroke-width:1.99278748;stroke-linecap:butt;stroke-linejoin:bevel;stroke-miterlimit:4;stroke-dasharray:5.4, 1.8;stroke-dashoffset:0;stroke-opacity:1"
         id="path7478"
         inkscape:connector-curvature="0" />
      <path
         d="m 594.09451,388.62605 154.09763,-41.98625 88.71,55.4 -129.8825,21.3425 -112.92513,-34.75625 z"
         style="fill:none;stroke:#000000;stroke-width:1.99278748;stroke-linecap:butt;stroke-linejoin:bevel;stroke-miterlimit:4;stroke-dasharray:5.4, 1.8;stroke-dashoffset:0;stroke-opacity:1"
         id="path7480"
         inkscape:connector-curvature="0" />
      <path
         d="m 748.19214,346.6398 0,380.26375 88.71,-64.07762 0,-260.78613 -88.71,-55.4 z"
         style="fill:none;stroke:#000000;stroke-width:1.99278748;stroke-linecap:butt;stroke-linejoin:bevel;stroke-miterlimit:4;stroke-dasharray:5.4, 1.8;stroke-dashoffset:0;stroke-opacity:1"
         id="path7482"
         inkscape:connector-curvature="0" />
      <path
         d="m 594.09451,388.62605 154.09763,-41.98625 0,380.26375 -154.09763,-48.56487 0,-289.71263 z"
         style="fill:none;stroke:#000000;stroke-width:1.99278748;stroke-linecap:butt;stroke-linejoin:bevel;stroke-miterlimit:4;stroke-dasharray:5.4, 1.8;stroke-dashoffset:0;stroke-opacity:1"
         id="path7484"
         inkscape:connector-curvature="0" />
      <path
         d="m 791.90714,745.05205 79.76625,-61.5825"
         style="fill:none;stroke:#000000;stroke-width:1.23800004;stroke-linecap:butt;stroke-linejoin:miter;stroke-miterlimit:4;stroke-dasharray:none;stroke-opacity:1"
         id="path7486"
         inkscape:connector-curvature="0" />
      <path
         d="m 801.70714,737.48368 0.89375,-6.94238 -10.69375,14.51125 16.74375,-6.67537 -6.94375,-0.8935 z"
         style="fill:#000000;fill-opacity:1;fill-rule:evenodd;stroke:none"
         id="path7488"
         inkscape:connector-curvature="0" />
      <path
         d="m 801.70839,737.48368 0.89125,-6.94338 -10.6925,14.51175 16.74375,-6.67387 -6.9425,-0.8945 z"
         style="fill:none;stroke:#000000;stroke-width:1.23800004;stroke-linecap:butt;stroke-linejoin:miter;stroke-miterlimit:4;stroke-dasharray:none;stroke-opacity:1"
         id="path7490"
         inkscape:connector-curvature="0" />
      <path
         d="m 861.87339,691.03343 -0.89375,6.94874 10.69375,-14.51212 -16.74875,6.66988 6.94875,0.8935 z"
         style="fill:#000000;fill-opacity:1;fill-rule:evenodd;stroke:none"
         id="path7492"
         inkscape:connector-curvature="0" />
      <path
         d="m 861.87339,691.03343 -0.89375,6.94874 10.6925,-14.51212 -16.74625,6.67088 6.9475,0.8925 z"
         style="fill:none;stroke:#000000;stroke-width:1.23800004;stroke-linecap:butt;stroke-linejoin:miter;stroke-miterlimit:4;stroke-dasharray:none;stroke-opacity:1"
         id="path7494"
         inkscape:connector-curvature="0" />
      <path
         d="M 749.46089,749.10964 604.00226,700.6233"
         style="fill:none;stroke:#000000;stroke-width:1.29999995;stroke-linecap:butt;stroke-linejoin:miter;stroke-miterlimit:4;stroke-dasharray:none;stroke-opacity:1"
         id="path7496"
         inkscape:connector-curvature="0" />
      <path
         d="m 737.12714,744.9983 -6.5775,3.29153 18.91125,0.81981 -15.62,-10.68846 3.28625,6.57712 z"
         style="fill:#000000;fill-opacity:1;fill-rule:evenodd;stroke:none"
         id="path7498"
         inkscape:connector-curvature="0" />
      <path
         d="m 737.12714,744.9993 -6.5775,3.29053 18.91125,0.8208 -15.62,-10.68895 3.28625,6.57762 z"
         style="fill:none;stroke:#000000;stroke-width:1.29999995;stroke-linecap:butt;stroke-linejoin:miter;stroke-miterlimit:4;stroke-dasharray:none;stroke-opacity:1"
         id="path7500"
         inkscape:connector-curvature="0" />
      <path
         d="m 616.33089,704.73468 6.57762,-3.29101 -18.90625,-0.82037 15.62013,10.689 -3.2915,-6.57762 z"
         style="fill:#000000;fill-opacity:1;fill-rule:evenodd;stroke:none"
         id="path7502"
         inkscape:connector-curvature="0" />
      <path
         d="m 616.33089,704.73518 6.57762,-3.291 -18.90574,-0.81988 15.61962,10.687 -3.2915,-6.57612 z"
         style="fill:none;stroke:#000000;stroke-width:1.29999995;stroke-linecap:butt;stroke-linejoin:miter;stroke-miterlimit:4;stroke-dasharray:none;stroke-opacity:1"
         id="path7504"
         inkscape:connector-curvature="0" />
      <path
         d="m 580.15452,684.0423 0,-289.9125"
         style="fill:none;stroke:#000000;stroke-width:1.20000005;stroke-linecap:butt;stroke-linejoin:miter;stroke-miterlimit:4;stroke-dasharray:none;stroke-opacity:1"
         id="path7506"
         inkscape:connector-curvature="0" />
      <path
         d="m 580.15452,672.0398 -4.79975,-4.79975 4.79975,16.80125 4.80037,-16.80125 -4.80037,4.79975 z"
         style="fill:#000000;fill-opacity:1;fill-rule:evenodd;stroke:none"
         id="path7508"
         inkscape:connector-curvature="0" />
      <path
         d="m 580.15452,672.0398 -4.79975,-4.80025 4.79975,16.80275 4.80037,-16.80275 -4.80037,4.80025 z"
         style="fill:none;stroke:#000000;stroke-width:1.20000005;stroke-linecap:butt;stroke-linejoin:miter;stroke-miterlimit:4;stroke-dasharray:none;stroke-opacity:1"
         id="path7510"
         inkscape:connector-curvature="0" />
      <path
         d="m 580.15452,406.12605 4.80037,4.8 -4.80037,-16.79625 -4.79975,16.79625 4.79975,-4.8 z"
         style="fill:#000000;fill-opacity:1;fill-rule:evenodd;stroke:none"
         id="path7512"
         inkscape:connector-curvature="0" />
      <path
         d="m 580.15452,406.12605 4.80037,4.8 -4.80037,-16.79625 -4.79975,16.79625 4.79975,-4.8 z"
         style="fill:none;stroke:#000000;stroke-width:1.20000005;stroke-linecap:butt;stroke-linejoin:miter;stroke-miterlimit:4;stroke-dasharray:none;stroke-opacity:1"
         id="path7514"
         inkscape:connector-curvature="0" />
      <path
         d="m 560.90214,491.3998 c 0,0 0,-0.385 -0.44,-0.385 -0.82512,0 -3.35888,0.2775 -4.2925,0.385 -0.27237,0 -0.65862,0.0588 -0.65862,0.65875 0,0.445 0.32712,0.445 0.82475,0.445 1.70499,0 1.75874,0.22 1.75874,0.6 l -0.10737,0.71875 -5.0635,20.19 c -0.1665,0.49375 -0.1665,0.54625 -0.1665,0.76625 0,0.825 0.71775,0.99125 1.04487,0.99125 0.55125,0 1.10401,-0.43875 1.27,-0.9325 l 0.65876,-2.64125 0.76662,-3.135 c 0.2245,-0.825 0.44475,-1.59625 0.60587,-2.3675 0.0576,-0.22 0.38525,-1.3725 0.38525,-1.5925 0.11238,-0.3325 1.21101,-2.25625 2.42238,-3.2475 0.771,-0.55125 1.81637,-1.21 3.3535,-1.21 1.48538,0 1.87012,1.21 1.87012,2.475 0,1.87 -1.31737,5.7225 -2.14349,7.86625 -0.2725,0.77125 -0.49275,1.21125 -0.49275,1.92375 0,1.65 1.26512,2.86125 2.91512,2.86125 3.30125,0 4.56487,-5.1175 4.56487,-5.39 0,-0.38625 -0.27737,-0.38625 -0.38474,-0.38625 -0.38626,0 -0.38626,0.1125 -0.55276,0.65875 -0.49212,1.875 -1.64987,4.35125 -3.57374,4.35125 -0.60488,0 -0.82463,-0.3325 -0.82463,-1.1575 0,-0.87875 0.27337,-1.70375 0.605,-2.475 0.54725,-1.54375 2.1435,-5.7225 2.1435,-7.75875 0,-2.25625 -1.3725,-3.74125 -4.01363,-3.74125 -2.20262,0 -3.90625,1.10375 -5.22999,2.69625 l 2.75487,-11.1675 z"
         style="fill:#000000;fill-opacity:1;fill-rule:nonzero;stroke:none"
         id="path7516"
         inkscape:connector-curvature="0" />
      <path
         d="m 656.16089,746.18968 c 0.165,-0.771 0.49762,-2.08976 0.49762,-2.30851 0,-0.6065 -0.49762,-0.9375 -0.99124,-0.9375 -0.439,0 -1.04488,0.27726 -1.32276,0.98976 -0.10737,0.22012 -1.75874,6.93402 -1.97849,7.86616 -0.27788,1.04541 -0.33163,1.65136 -0.33163,2.31005 0,0.38624 0,0.43995 0.0538,0.60499 -0.82475,1.87157 -1.86962,2.97412 -3.24213,2.97412 -2.80762,0 -2.80762,-2.5879 -2.80762,-3.19287 0,-1.09864 0.1665,-2.47608 1.81638,-6.82129 0.38624,-1.04491 0.60499,-1.53854 0.60499,-2.25591 0,-1.53751 -1.15625,-2.86125 -2.86137,-2.86125 -3.354,0 -4.61862,5.11716 -4.61862,5.39011 0,0.38622 0.32712,0.38622 0.38137,0.38622 0.38475,0 0.38475,-0.10791 0.55125,-0.65917 0.99125,-3.24704 2.3095,-4.34616 3.57475,-4.34616 0.3315,0 0.88375,0.0536 0.88375,1.15762 0,0.879 -0.38625,1.87013 -0.665,2.47513 -1.53762,4.12601 -1.92388,5.71877 -1.92388,7.09476 0,3.18896 2.31001,4.3999 4.95113,4.3999 0.6065,0 2.25637,0 3.63288,-2.47608 0.93362,2.25635 3.35499,2.47608 4.39987,2.47608 2.64112,0 4.18012,-2.19726 5.1175,-4.28712 1.1525,-2.75389 2.30875,-7.48529 2.30875,-9.13617 0,-1.92387 -0.9375,-2.47512 -1.5375,-2.47512 -0.88375,0 -1.76225,0.9375 -1.76225,1.7085 0,0.43987 0.21975,0.65862 0.49225,0.93262 0.38625,0.38625 1.27,1.26513 1.27,2.97359 0,1.20655 -0.99125,4.61915 -1.92875,6.43652 -0.879,1.87013 -2.14363,3.08009 -3.84775,3.08009 -1.64987,0 -2.58737,-1.04541 -2.58737,-3.08009 0,-0.9375 0.21875,-2.03612 0.38524,-2.53515 l 1.48488,-5.88383 z"
         style="fill:#000000;fill-opacity:1;fill-rule:nonzero;stroke:none"
         id="path7518"
         inkscape:connector-curvature="0" />
      <path
         d="m 852.03464,722.56718 c 0.16125,-0.76763 0.4925,-2.08988 0.4925,-2.31013 0,-0.60487 -0.4925,-0.93212 -0.99125,-0.93212 -0.43875,0 -1.045,0.2735 -1.3175,0.98587 -0.1125,0.22025 -1.7625,6.93413 -1.9825,7.86675 -0.27375,1.04975 -0.3275,1.64988 -0.3275,2.31488 0,0.38475 0,0.43849 0.0537,0.605 -0.825,1.86962 -1.87,2.96875 -3.2475,2.96875 -2.8025,0 -2.8025,-2.58738 -2.8025,-3.189 0,-1.1035 0.16125,-2.475 1.81125,-6.82613 0.38625,-1.04487 0.60625,-1.53763 0.60625,-2.2515 0,-1.5425 -1.1525,-2.86075 -2.85625,-2.86075 -3.36,0 -4.625,5.11225 -4.625,5.391 0,0.38488 0.3325,0.38488 0.38625,0.38488 0.38625,0 0.38625,-0.11088 0.55125,-0.66363 0.98625,-3.24262 2.31,-4.34525 3.575,-4.34525 0.33125,0 0.87875,0.0591 0.87875,1.15625 0,0.88038 -0.38625,1.87163 -0.65875,2.47663 -1.53875,4.126 -1.92375,5.72212 -1.92375,7.09475 0,3.19287 2.30875,4.40374 4.95,4.40374 0.60625,0 2.25625,0 3.62875,-2.47512 0.9375,2.25538 3.35875,2.47512 4.40375,2.47512 2.6375,0 4.18,-2.20212 5.1125,-4.29099 1.1575,-2.75 2.315,-7.4815 2.315,-9.13138 0,-1.92875 -0.9375,-2.476 -1.54375,-2.476 -0.87875,0 -1.7575,0.93213 -1.7575,1.7045 0,0.439 0.22,0.65925 0.49375,0.93262 0.385,0.38526 1.26375,1.26913 1.26375,2.97363 0,1.2105 -0.99125,4.61913 -1.92375,6.43513 -0.87875,1.87012 -2.14875,3.0815 -3.8525,3.0815 -1.65,0 -2.5825,-1.04488 -2.5825,-3.0815 0,-0.93213 0.22,-2.03613 0.38,-2.52888 l 1.49,-5.88862 z"
         style="fill:#000000;fill-opacity:1;fill-rule:nonzero;stroke:none"
         id="path7520"
         inkscape:connector-curvature="0" />
      <path
         d="m 806.12089,515.00855 c 0,3.80375 -3.08,6.885 -6.88375,6.885 -3.80375,0 -6.885,-3.08125 -6.885,-6.885 0,-3.79875 3.08125,-6.88 6.885,-6.88 3.80375,0 6.88375,3.08125 6.88375,6.88 z"
         style="fill:#000000;fill-opacity:1;fill-rule:nonzero;stroke:none"
         id="path7524"
         inkscape:connector-curvature="0" />
      <path
         d="m 806.12089,515.00855 c 0,3.80375 -3.08,6.885 -6.88375,6.885 -3.80375,0 -6.885,-3.08125 -6.885,-6.885 0,-3.79875 3.08125,-6.88 6.885,-6.88 3.80375,0 6.88375,3.08125 6.88375,6.88 z"
         style="fill:none;stroke:#000000;stroke-width:0.56398499;stroke-linecap:butt;stroke-linejoin:bevel;stroke-miterlimit:4;stroke-dasharray:none;stroke-opacity:1"
         id="path7526"
         inkscape:connector-curvature="0" />
      <path
         d="M 538.64089,726.77618 570.56964,709.8723"
         style="fill:none;stroke:#000000;stroke-width:0.46651751;stroke-linecap:butt;stroke-linejoin:miter;stroke-miterlimit:4;stroke-dasharray:none;stroke-opacity:1"
         id="path7546"
         inkscape:connector-curvature="0" />
      <path
         d="m 566.44852,712.05493 -0.77638,2.5235 4.8975,-4.7075 -6.645,1.40625 2.52388,0.77775 z"
         style="fill:#000000;fill-opacity:1;fill-rule:evenodd;stroke:none"
         id="path7548"
         inkscape:connector-curvature="0" />
      <path
         d="m 566.44902,712.05443 -0.77688,2.5235 4.897,-4.70663 -6.645,1.40725 2.52488,0.77588 z"
         style="fill:none;stroke:#000000;stroke-width:0.46651626;stroke-linecap:butt;stroke-linejoin:miter;stroke-miterlimit:4;stroke-dasharray:none;stroke-opacity:1"
         id="path7550"
         inkscape:connector-curvature="0" />
      <path
         d="M 580.90214,741.06867 538.09842,726.80105"
         style="fill:none;stroke:#000000;stroke-width:0.4998;stroke-linecap:butt;stroke-linejoin:miter;stroke-miterlimit:4;stroke-dasharray:none;stroke-opacity:1"
         id="path7552"
         inkscape:connector-curvature="0" />
      <path
         d="m 576.16089,739.48605 -2.52975,1.26525 7.271,0.31737 -6.00638,-4.11287 1.26513,2.53025 z"
         style="fill:#000000;fill-opacity:1;fill-rule:evenodd;stroke:none"
         id="path7554"
         inkscape:connector-curvature="0" />
      <path
         d="m 576.16039,739.48518 -2.52875,1.26512 7.27,0.31787 -6.00588,-4.11137 1.26463,2.52838 z"
         style="fill:none;stroke:#000000;stroke-width:0.49979874;stroke-linecap:butt;stroke-linejoin:miter;stroke-miterlimit:4;stroke-dasharray:none;stroke-opacity:1"
         id="path7556"
         inkscape:connector-curvature="0" />
      <path
         d="m 538.48464,726.8298 0,-35.01025"
         style="fill:none;stroke:#000000;stroke-width:0.4998;stroke-linecap:butt;stroke-linejoin:miter;stroke-miterlimit:4;stroke-dasharray:none;stroke-opacity:1"
         id="path7558"
         inkscape:connector-curvature="0" />
      <path
         d="m 538.48464,696.81468 1.99756,2.0025 -1.99756,-6.99763 -2.00244,6.99763 2.00244,-2.0025 z"
         style="fill:#000000;fill-opacity:1;fill-rule:evenodd;stroke:none"
         id="path7560"
         inkscape:connector-curvature="0" />
      <path
         d="m 538.48464,696.81468 1.99756,2.0025 -1.99756,-6.99763 -2.00244,6.99763 2.00244,-2.0025 z"
         style="fill:none;stroke:#000000;stroke-width:0.4998;stroke-linecap:butt;stroke-linejoin:miter;stroke-miterlimit:4;stroke-dasharray:none;stroke-opacity:1"
         id="path7562"
         inkscape:connector-curvature="0" />
      <g
         id="g7564"
         transform="matrix(1.25,0,0,-1.25,535.98464,759.7073)">
        <text
           transform="matrix(1,0,0,-1,40.1719,11.3543)"
           style="font-style:italic;font-variant:normal;font-size:14.39999962px;font-family:'Liberation Serif';-inkscape-font-specification:LiberationSerif-Italic;writing-mode:lr-tb;fill:#000000;fill-opacity:1;fill-rule:nonzero;stroke:none"
           id="text7566">
          <tspan
             x="0"
             y="0"
             id="tspan7568">x</tspan>
        </text>
        <text
           transform="matrix(1,0,0,-1,30.4176,39.1141)"
           style="font-style:italic;font-variant:normal;font-size:14.39999962px;font-family:'Liberation Serif';-inkscape-font-specification:LiberationSerif-Italic;writing-mode:lr-tb;fill:#000000;fill-opacity:1;fill-rule:nonzero;stroke:none"
           id="text7570">
          <tspan
             x="0"
             y="0"
             id="tspan7572">y</tspan>
          <tspan
             x="-30.2547"
             y="-21.4695"
             id="tspan7574">z</tspan>
        </text>
      </g>
      <path
         d="m 718.18891,394.48276 c 0,3.80375 -3.08,6.885 -6.88375,6.885 -3.80375,0 -6.885,-3.08125 -6.885,-6.885 0,-3.79875 3.08125,-6.88 6.885,-6.88 3.80375,0 6.88375,3.08125 6.88375,6.88 z"
         style="fill:#000000;fill-opacity:1;fill-rule:nonzero;stroke:none"
         id="path7524-2"
         inkscape:connector-curvature="0" />
      <path
         d="m 674.24727,572.52227 c 0,3.10608 -2.51509,5.62219 -5.62118,5.62219 -3.10608,0 -5.62219,-2.51611 -5.62219,-5.62219 0,-3.10201 2.51611,-5.61812 5.62219,-5.61812 3.10609,0 5.62118,2.51611 5.62118,5.61812 z"
         style="fill:#000000;fill-opacity:1;fill-rule:nonzero;stroke:none"
         id="path7524-6"
         inkscape:connector-curvature="0" />
      <path
         d="m 703.54169,685.4067 c 0,3.80375 -3.08,6.885 -6.88375,6.885 -3.80375,0 -6.885,-3.08125 -6.885,-6.885 0,-3.79875 3.08125,-6.88 6.885,-6.88 3.80375,0 6.88375,3.08125 6.88375,6.88 z"
         style="fill:#000000;fill-opacity:1;fill-rule:nonzero;stroke:none"
         id="path7524-1"
         inkscape:connector-curvature="0" />
      <path
         d="m 646.46807,526.81275 c 0,3.80375 -3.08,6.885 -6.88375,6.885 -3.80375,0 -6.885,-3.08125 -6.885,-6.885 0,-3.79875 3.08125,-6.88 6.885,-6.88 3.80375,0 6.88375,3.08125 6.88375,6.88 z"
         style="fill:#000000;fill-opacity:1;fill-rule:nonzero;stroke:none"
         id="path7524-8"
         inkscape:connector-curvature="0" />
      <path
         d="m 639.3977,445.24247 c 0,4.5016 -3.64507,8.14815 -8.14667,8.14815 -4.5016,0 -8.14815,-3.64655 -8.14815,-8.14815 0,-4.49568 3.64655,-8.14223 8.14815,-8.14223 4.5016,0 8.14667,3.64655 8.14667,8.14223 z"
         style="fill:#000000;fill-opacity:1;fill-rule:nonzero;stroke:none"
         id="path7524-7"
         inkscape:connector-curvature="0" />
      <path
         d="m 794.96229,450.2925 c 0,5.61816 -4.54918,10.16919 -10.16734,10.16919 -5.61816,0 -10.16919,-4.55103 -10.16919,-10.16919 0,-5.61078 4.55103,-10.1618 10.16919,-10.1618 5.61816,0 10.16734,4.55102 10.16734,10.1618 z"
         style="fill:#000000;fill-opacity:1;fill-rule:nonzero;stroke:none"
         id="path7524-9"
         inkscape:connector-curvature="0" />
      <path
         d="m 773.24153,560.40079 c 0,3.1059 -2.51493,5.62185 -5.62083,5.62185 -3.1059,0 -5.62185,-2.51595 -5.62185,-5.62185 0,-3.10182 2.51595,-5.61777 5.62185,-5.61777 3.1059,0 5.62083,2.51595 5.62083,5.61777 z"
         style="fill:#000000;fill-opacity:1;fill-rule:nonzero;stroke:none"
         id="path7524-20"
         inkscape:connector-curvature="0" />
      <path
         d="m 630.81071,628.83816 c 0,3.80375 -3.08,6.885 -6.88375,6.885 -3.80375,0 -6.885,-3.08125 -6.885,-6.885 0,-3.79875 3.08125,-6.88 6.885,-6.88 3.80375,0 6.88375,3.08125 6.88375,6.88 z"
         style="fill:#000000;fill-opacity:1;fill-rule:nonzero;stroke:none"
         id="path7524-23"
         inkscape:connector-curvature="0" />
      <path
         d="m 739.40211,608.63479 c 0,5.75719 -4.66176,10.42085 -10.41897,10.42085 -5.75719,0 -10.42085,-4.66366 -10.42085,-10.42085 0,-5.74964 4.66366,-10.41329 10.42085,-10.41329 5.75721,0 10.41897,4.66365 10.41897,10.41329 z"
         style="fill:#000000;fill-opacity:1;fill-rule:nonzero;stroke:none"
         id="path7524-75"
         inkscape:connector-curvature="0" />
      <path
         d="m 731.32089,452.56654 c 0,3.80375 -3.08,6.885 -6.88375,6.885 -3.80375,0 -6.885,-3.08125 -6.885,-6.885 0,-3.79875 3.08125,-6.88 6.885,-6.88 3.80375,0 6.88375,3.08125 6.88375,6.88 z"
         style="fill:#000000;fill-opacity:1;fill-rule:nonzero;stroke:none"
         id="path7524-92"
         inkscape:connector-curvature="0" />
      <path
         d="m 787.38435,634.39399 c 0,3.80375 -3.08,6.885 -6.88375,6.885 -3.80375,0 -6.885,-3.08125 -6.885,-6.885 0,-3.79875 3.08125,-6.88 6.885,-6.88 3.80375,0 6.88375,3.08125 6.88375,6.88 z"
         style="fill:#000000;fill-opacity:1;fill-rule:nonzero;stroke:none"
         id="path7524-28"
         inkscape:connector-curvature="0" />
      <path
         d="m 818.19401,600.55389 c 0,3.80375 -3.08,6.885 -6.88375,6.885 -3.80375,0 -6.885,-3.08125 -6.885,-6.885 0,-3.79875 3.08125,-6.88 6.885,-6.88 3.80375,0 6.88375,3.08125 6.88375,6.88 z"
         style="fill:#000000;fill-opacity:1;fill-rule:nonzero;stroke:none"
         id="path7524-97"
         inkscape:connector-curvature="0" />
      <path
         d="m 686.3691,507.62003 c 0,2.68749 -2.17614,4.86451 -4.86363,4.86451 -2.68749,0 -4.86451,-2.17702 -4.86451,-4.86451 0,-2.68396 2.17702,-4.86098 4.86451,-4.86098 2.68749,0 4.86363,2.17702 4.86363,4.86098 z"
         style="fill:#000000;fill-opacity:1;fill-rule:nonzero;stroke:none"
         id="path7524-3"
         inkscape:connector-curvature="0" />
    </g>
  </g>
</svg>
