<?xml version="1.0" encoding="utf-8" standalone="no"?>
<!DOCTYPE svg PUBLIC "-//W3C//DTD SVG 1.1//EN"
  "http://www.w3.org/Graphics/SVG/1.1/DTD/svg11.dtd">
<!-- Created with matplotlib (http://matplotlib.org/) -->
<svg height="360pt" version="1.1" viewBox="0 0 432 360" width="432pt" xmlns="http://www.w3.org/2000/svg" xmlns:xlink="http://www.w3.org/1999/xlink">
 <defs>
  <style type="text/css">
*{stroke-linecap:butt;stroke-linejoin:round;stroke-miterlimit:100000;}
  </style>
 </defs>
 <g id="figure_1">
  <g id="patch_1">
   <path d="M 0 360 
L 432 360 
L 432 0 
L 0 0 
z
" style="fill:#ffffff;"/>
  </g>
  <g id="axes_1">
   <g id="patch_2">
    <path d="M 50.363694 315.911282 
L 411.069918 315.911282 
L 411.069918 39.408636 
L 50.363694 39.408636 
z
" style="fill:#ffffff;"/>
   </g>
   <g id="line2d_1">
    <path clip-path="url(#p435a9c8f73)" d="M 115.51373 293.218591 
L 115.51373 292.627421 
L 115.51373 293.031537 
L 115.51373 292.502311 
L 115.51373 292.567077 
L 115.51373 292.510021 
L 115.51373 292.578805 
L 115.51373 292.636822 
L 115.51373 292.953743 
L 153.624058 274.17155 
L 153.624058 274.145325 
L 153.624058 274.200566 
L 153.624058 274.398293 
L 153.624058 274.178801 
L 153.624058 274.078782 
L 180.663766 241.685231 
L 180.663766 241.619445 
L 180.663766 241.380289 
L 180.663766 241.436006 
L 201.637393 231.526228 
L 201.637393 231.763364 
L 201.637393 231.774105 
L 201.637393 231.668684 
L 218.774094 215.785063 
L 218.774094 215.853233 
L 218.774094 215.863734 
L 233.262968 201.601268 
L 233.262968 201.587675 
L 233.262968 201.633942 
L 245.813802 187.741439 
L 245.813802 187.674898 
L 256.884422 176.338533 
L 256.884422 176.358649 
L 266.787429 165.961178 
L 266.787429 165.958738 
L 275.745788 160.401502 
L 275.745788 160.402178 
L 283.92413 151.670608 
L 283.92413 151.603485 
L 291.447475 144.059627 
L 298.413004 138.266189 
L 298.413004 137.485491 
L 304.897757 130.502672 
L 310.963838 123.861984 
L 316.662045 118.437214 
L 316.662045 118.965538 
L 322.034458 113.253411 
L 327.116324 108.014361 
L 331.937465 103.20001 
L 336.523332 99.869768 
L 340.895824 95.754825 
L 349.074166 87.591804 
L 352.911091 83.778518 
L 356.59751 80.07453 
L 360.144785 76.559448 
L 366.86133 69.990672 
" style="fill:none;stroke:#0000ff;stroke-linecap:square;"/>
   </g>
   <g id="line2d_2">
    <path clip-path="url(#p435a9c8f73)" d="M 115.51373 269.195567 
L 115.51373 269.18493 
L 115.51373 269.111771 
L 115.51373 269.143554 
L 115.51373 270.269514 
L 115.51373 269.18436 
L 115.51373 269.21001 
L 115.51373 269.186196 
L 115.51373 269.160502 
L 153.624058 253.429701 
L 153.624058 253.908955 
L 153.624058 253.444163 
L 153.624058 253.38041 
L 153.624058 253.24884 
L 153.624058 253.46557 
L 180.663766 232.529322 
L 180.663766 232.397044 
L 180.663766 232.669125 
L 180.663766 232.451189 
L 201.637393 234.693358 
L 201.637393 226.496658 
L 201.637393 226.649468 
L 201.637393 226.795808 
L 218.774094 222.873237 
L 218.774094 222.839415 
L 218.774094 223.019377 
L 233.262968 206.300059 
L 233.262968 202.431306 
L 233.262968 202.516246 
L 245.813802 184.995889 
L 245.813802 185.145251 
L 256.884422 181.672259 
L 256.884422 181.659703 
L 266.787429 165.737747 
L 266.787429 165.755108 
L 275.745788 164.891668 
L 275.745788 164.688499 
L 283.92413 148.932421 
L 283.92413 148.969572 
L 291.447475 151.341727 
L 298.413004 136.415762 
L 298.413004 135.055484 
L 304.897757 132.900529 
L 310.963838 122.6327 
L 316.662045 122.058682 
L 316.662045 121.878246 
L 322.034458 112.149481 
L 327.116324 110.787854 
L 331.937465 103.880492 
L 336.523332 100.536664 
L 340.895824 95.231231 
L 349.074166 88.50687 
L 352.911091 86.288708 
L 356.59751 81.035318 
L 360.144785 77.952251 
L 366.86133 72.65304 
" style="fill:none;stroke:#0000ff;stroke-dasharray:6.000000,6.000000;stroke-dashoffset:0.0;"/>
   </g>
   <g id="line2d_3">
    <path clip-path="url(#p435a9c8f73)" d="M 115.51373 294.503919 
L 115.51373 294.234537 
L 115.51373 295.854289 
L 115.51373 294.427943 
L 115.51373 294.383358 
L 115.51373 294.376031 
L 115.51373 294.474064 
L 115.51373 294.303009 
L 115.51373 294.259922 
L 153.624058 284.218604 
L 153.624058 284.126716 
L 153.624058 284.10371 
L 153.624058 284.576621 
L 153.624058 284.087065 
L 153.624058 284.077603 
L 180.663766 256.491446 
L 180.663766 256.803913 
L 180.663766 256.775844 
L 180.663766 256.516178 
L 201.637393 256.522696 
L 201.637393 256.525104 
L 201.637393 256.558634 
L 201.637393 257.309514 
L 218.774094 245.081117 
L 218.774094 245.038318 
L 218.774094 245.767656 
L 233.262968 228.603514 
L 233.262968 228.562912 
L 233.262968 228.957666 
L 245.813802 221.922244 
L 245.813802 221.91713 
L 256.884422 217.582556 
L 256.884422 217.585847 
L 266.787429 204.011609 
L 266.787429 204.259611 
L 275.745788 198.810935 
L 275.745788 199.318099 
L 283.92413 187.032611 
L 283.92413 187.394543 
L 291.447475 183.431751 
L 298.413004 172.983795 
L 298.413004 172.454128 
L 304.897757 169.912686 
L 310.963838 159.888088 
L 316.662045 158.46196 
L 316.662045 158.191404 
L 322.034458 149.034175 
L 327.116324 148.083907 
L 331.937465 145.541511 
L 336.523332 138.544212 
L 340.895824 136.178543 
L 349.074166 127.627065 
L 352.911091 121.583307 
L 356.59751 120.013192 
L 360.144785 114.316279 
L 366.86133 107.649539 
" style="fill:none;stroke:#008000;stroke-linecap:square;"/>
   </g>
   <g id="line2d_4">
    <path clip-path="url(#p435a9c8f73)" d="M 115.51373 286.280693 
L 115.51373 288.048988 
L 115.51373 286.278119 
L 115.51373 286.42009 
L 115.51373 286.222568 
L 115.51373 286.251169 
L 115.51373 286.339266 
L 115.51373 286.458783 
L 115.51373 286.411211 
L 153.624058 274.663286 
L 153.624058 274.496891 
L 153.624058 274.36457 
L 153.624058 274.898229 
L 153.624058 274.650676 
L 153.624058 274.381502 
L 180.663766 248.413407 
L 180.663766 248.429829 
L 180.663766 248.221924 
L 180.663766 248.891714 
L 201.637393 239.359654 
L 201.637393 239.384043 
L 201.637393 239.354966 
L 201.637393 239.517128 
L 218.774094 232.759304 
L 218.774094 232.706479 
L 218.774094 232.676067 
L 233.262968 228.614329 
L 233.262968 228.864645 
L 233.262968 228.50505 
L 245.813802 215.891935 
L 245.813802 215.819075 
L 256.884422 223.409428 
L 256.884422 223.502865 
L 266.787429 197.788427 
L 266.787429 197.836009 
L 275.745788 195.371272 
L 275.745788 195.412567 
L 283.92413 182.456954 
L 283.92413 182.400018 
L 291.447475 181.512304 
L 298.413004 169.509306 
L 298.413004 169.501756 
L 304.897757 166.086074 
L 310.963838 157.748766 
L 316.662045 157.28148 
L 316.662045 157.542693 
L 322.034458 147.74308 
L 327.116324 145.224037 
L 331.937465 138.305009 
L 336.523332 135.851388 
L 340.895824 131.469647 
L 349.074166 123.925028 
L 352.911091 121.34018 
L 356.59751 117.349666 
L 360.144785 113.724186 
L 366.86133 108.225772 
" style="fill:none;stroke:#008000;stroke-dasharray:6.000000,6.000000;stroke-dashoffset:0.0;"/>
   </g>
   <g id="line2d_5">
    <path clip-path="url(#p435a9c8f73)" d="M 115.51373 281.720687 
L 115.51373 281.254402 
L 115.51373 282.775948 
L 115.51373 281.3156 
L 115.51373 281.698972 
L 115.51373 281.560883 
L 115.51373 281.319014 
L 115.51373 281.525815 
L 115.51373 281.6298 
L 153.624058 267.53154 
L 153.624058 267.407651 
L 153.624058 267.558635 
L 153.624058 267.525789 
L 153.624058 267.527886 
L 153.624058 267.317031 
L 180.663766 262.211662 
L 180.663766 262.199569 
L 180.663766 263.548591 
L 180.663766 262.370065 
L 201.637393 259.193157 
L 201.637393 259.19116 
L 201.637393 259.057444 
L 201.637393 259.143863 
L 218.774094 251.86281 
L 218.774094 251.896995 
L 218.774094 251.855594 
L 233.262968 251.944372 
L 233.262968 251.419907 
L 233.262968 251.534435 
L 245.813802 245.371832 
L 245.813802 246.395197 
L 256.884422 233.514953 
L 256.884422 233.690276 
L 266.787429 223.155025 
L 266.787429 223.002787 
L 275.745788 221.77729 
L 275.745788 221.809543 
L 283.92413 213.007309 
L 283.92413 212.911865 
L 291.447475 210.646626 
L 298.413004 202.06752 
L 298.413004 202.053715 
L 304.897757 195.020935 
L 310.963838 192.804028 
L 316.662045 185.640273 
L 316.662045 185.652103 
L 322.034458 179.395061 
L 327.116324 177.898459 
L 331.937465 173.677958 
L 336.523332 166.03589 
L 340.895824 164.581699 
L 349.074166 154.297826 
L 352.911091 153.374676 
L 356.59751 152.443925 
L 360.144785 144.006641 
L 366.86133 142.45347 
" style="fill:none;stroke:#ff0000;stroke-linecap:square;"/>
   </g>
   <g id="line2d_6">
    <path clip-path="url(#p435a9c8f73)" d="M 115.51373 271.382424 
L 115.51373 271.788336 
L 115.51373 271.702156 
L 115.51373 271.80429 
L 115.51373 271.841478 
L 115.51373 271.902891 
L 115.51373 271.512398 
L 115.51373 271.774117 
L 115.51373 272.10407 
L 153.624058 268.472618 
L 153.624058 268.510478 
L 153.624058 268.314949 
L 153.624058 268.755743 
L 153.624058 268.433262 
L 153.624058 268.374294 
L 180.663766 261.791547 
L 180.663766 261.80303 
L 180.663766 262.609705 
L 180.663766 261.956897 
L 201.637393 254.368996 
L 201.637393 254.243844 
L 201.637393 254.395095 
L 201.637393 254.423965 
L 218.774094 246.436712 
L 218.774094 246.4982 
L 218.774094 247.557171 
L 233.262968 240.415069 
L 233.262968 240.358305 
L 233.262968 240.44422 
L 245.813802 235.368538 
L 245.813802 235.220312 
L 256.884422 232.823344 
L 256.884422 232.706291 
L 266.787429 228.715126 
L 266.787429 228.762852 
L 275.745788 218.470925 
L 275.745788 218.41895 
L 283.92413 209.060729 
L 283.92413 208.991343 
L 291.447475 205.710831 
L 298.413004 197.275774 
L 298.413004 197.228668 
L 304.897757 192.985545 
L 310.963838 186.102246 
L 316.662045 184.80393 
L 316.662045 184.961602 
L 322.034458 176.530763 
L 327.116324 173.427916 
L 331.937465 167.39154 
L 336.523332 164.408399 
L 340.895824 159.465076 
L 349.074166 151.93985 
L 352.911091 150.04122 
L 356.59751 145.126977 
L 360.144785 143.077081 
L 366.86133 137.548161 
" style="fill:none;stroke:#ff0000;stroke-dasharray:6.000000,6.000000;stroke-dashoffset:0.0;"/>
   </g>
   <g id="line2d_7">
    <path clip-path="url(#p435a9c8f73)" d="M 115.51373 281.969606 
L 115.51373 281.817442 
L 115.51373 281.629512 
L 115.51373 281.520372 
L 115.51373 281.572071 
L 115.51373 281.811753 
L 115.51373 281.75531 
L 115.51373 281.603171 
L 115.51373 281.637563 
L 153.624058 267.358106 
L 153.624058 267.676648 
L 153.624058 267.474794 
L 153.624058 267.436007 
L 153.624058 267.18709 
L 153.624058 267.568951 
L 180.663766 263.612727 
L 180.663766 263.479409 
L 180.663766 263.471295 
L 180.663766 263.459417 
L 201.637393 261.753119 
L 201.637393 261.719232 
L 201.637393 261.6148 
L 201.637393 261.650736 
L 218.774094 259.467261 
L 218.774094 259.327434 
L 218.774094 259.392514 
L 233.262968 256.008304 
L 233.262968 255.98676 
L 233.262968 255.794978 
L 245.813802 248.711119 
L 245.813802 248.657615 
L 256.884422 248.444356 
L 256.884422 248.473019 
L 266.787429 245.08594 
L 266.787429 244.220807 
L 275.745788 243.403502 
L 275.745788 243.397334 
L 283.92413 228.520404 
L 283.92413 228.384618 
L 291.447475 221.086421 
L 298.413004 224.206488 
L 298.413004 224.638926 
L 304.897757 223.506736 
L 310.963838 207.996147 
L 316.662045 203.56276 
L 316.662045 203.595861 
L 322.034458 200.071869 
L 327.116324 202.989365 
L 331.937465 190.39129 
L 336.523332 189.291933 
L 340.895824 183.61335 
L 349.074166 175.269848 
L 352.911091 174.049647 
L 356.59751 171.102542 
L 360.144785 168.578809 
L 366.86133 161.389723 
" style="fill:none;stroke:#00bfbf;stroke-linecap:square;"/>
   </g>
   <g id="line2d_8">
    <path clip-path="url(#p435a9c8f73)" d="M 115.51373 272.529125 
L 115.51373 271.943879 
L 115.51373 271.986106 
L 115.51373 272.510943 
L 115.51373 271.949154 
L 115.51373 272.082936 
L 115.51373 271.889102 
L 115.51373 271.841132 
L 115.51373 271.971445 
L 153.624058 268.8089 
L 153.624058 268.490058 
L 153.624058 269.043705 
L 153.624058 268.486903 
L 153.624058 268.856954 
L 153.624058 268.595218 
L 180.663766 267.716048 
L 180.663766 267.776032 
L 180.663766 267.674119 
L 180.663766 267.64686 
L 201.637393 263.195548 
L 201.637393 262.879945 
L 201.637393 262.876815 
L 201.637393 262.953982 
L 218.774094 255.950929 
L 218.774094 255.955125 
L 218.774094 255.865539 
L 233.262968 251.563848 
L 233.262968 249.856282 
L 233.262968 249.990629 
L 245.813802 244.853371 
L 245.813802 244.765392 
L 256.884422 242.065301 
L 256.884422 242.238959 
L 266.787429 236.440319 
L 266.787429 236.413319 
L 275.745788 233.397483 
L 275.745788 233.532709 
L 283.92413 225.767756 
L 283.92413 225.955116 
L 291.447475 228.747374 
L 298.413004 214.679637 
L 298.413004 215.719288 
L 304.897757 210.37617 
L 310.963838 205.029598 
L 316.662045 202.807809 
L 316.662045 203.26557 
L 322.034458 194.993969 
L 327.116324 191.774547 
L 331.937465 186.150963 
L 336.523332 183.30471 
L 340.895824 178.404877 
L 349.074166 171.21084 
L 352.911091 169.051043 
L 356.59751 164.675834 
L 360.144785 162.3286 
L 366.86133 156.863372 
" style="fill:none;stroke:#00bfbf;stroke-dasharray:6.000000,6.000000;stroke-dashoffset:0.0;"/>
   </g>
   <g id="patch_3">
    <path d="M 50.363694 39.408636 
L 411.069918 39.408636 
" style="fill:none;stroke:#000000;stroke-linecap:square;stroke-linejoin:miter;"/>
   </g>
   <g id="patch_4">
    <path d="M 411.069918 315.911282 
L 411.069918 39.408636 
" style="fill:none;stroke:#000000;stroke-linecap:square;stroke-linejoin:miter;"/>
   </g>
   <g id="patch_5">
    <path d="M 50.363694 315.911282 
L 411.069918 315.911282 
" style="fill:none;stroke:#000000;stroke-linecap:square;stroke-linejoin:miter;"/>
   </g>
   <g id="patch_6">
    <path d="M 50.363694 315.911282 
L 50.363694 39.408636 
" style="fill:none;stroke:#000000;stroke-linecap:square;stroke-linejoin:miter;"/>
   </g>
   <g id="matplotlib.axis_1">
    <g id="xtick_1">
     <g id="line2d_9">
      <defs>
       <path d="M 0 0 
L 0 -4 
" id="mb5fce05e44" style="stroke:#000000;stroke-width:0.5;"/>
      </defs>
      <g>
       <use style="stroke:#000000;stroke-width:0.5;" x="50.3636942763" xlink:href="#mb5fce05e44" y="315.911282252"/>
      </g>
     </g>
     <g id="line2d_10">
      <defs>
       <path d="M 0 0 
L 0 4 
" id="m6bb3994a08" style="stroke:#000000;stroke-width:0.5;"/>
      </defs>
      <g>
       <use style="stroke:#000000;stroke-width:0.5;" x="50.3636942763" xlink:href="#m6bb3994a08" y="39.4086356096"/>
      </g>
     </g>
     <g id="text_1">
      <!-- $10^{0}$ -->
      <defs>
       <path d="M 26.59375 63.40625 
C 26.59375 65.5 26.5 65.5 25.09375 65.5 
C 21.203125 61.1875 15.296875 59.796875 9.703125 59.796875 
C 9.40625 59.796875 8.90625 59.796875 8.796875 59.5 
C 8.703125 59.296875 8.703125 59.09375 8.703125 57 
C 11.796875 57 17 57.59375 21 59.984375 
L 21 7.203125 
C 21 3.6875 20.796875 2.5 12.203125 2.5 
L 9.203125 2.5 
L 9.203125 0 
C 14 0 19 0 23.796875 0 
C 28.59375 0 33.59375 0 38.40625 0 
L 38.40625 2.5 
L 35.40625 2.5 
C 26.796875 2.5 26.59375 3.59375 26.59375 7.15625 
z
" id="CMR17-49"/>
       <path d="M 42 31.640625 
C 42 37.75 41.90625 48.125 37.703125 56.109375 
C 34 63.109375 28.09375 65.59375 22.90625 65.59375 
C 18.09375 65.59375 12 63.40625 8.203125 56.203125 
C 4.203125 48.71875 3.796875 39.4375 3.796875 31.640625 
C 3.796875 25.953125 3.90625 17.28125 7 9.671875 
C 11.296875 -0.609375 19 -2 22.90625 -2 
C 27.5 -2 34.5 -0.109375 38.59375 9.375 
C 41.59375 16.28125 42 24.359375 42 31.640625 
M 22.90625 -0.40625 
C 16.5 -0.40625 12.703125 5.078125 11.296875 12.6875 
C 10.203125 18.5625 10.203125 27.15625 10.203125 32.75 
C 10.203125 40.4375 10.203125 46.828125 11.5 52.921875 
C 13.40625 61.390625 19 64 22.90625 64 
C 27 64 32.296875 61.296875 34.203125 53.125 
C 35.5 47.4375 35.59375 40.734375 35.59375 32.75 
C 35.59375 26.25 35.59375 18.265625 34.40625 12.375 
C 32.296875 1.484375 26.40625 -0.40625 22.90625 -0.40625 
" id="CMR17-48"/>
      </defs>
      <g transform="translate(42.3936126002 328.429266569)scale(0.12 -0.12)">
       <use transform="scale(0.996264009963)" xlink:href="#CMR17-49"/>
       <use transform="translate(45.6904771171 0.0)scale(0.996264009963)" xlink:href="#CMR17-48"/>
       <use transform="translate(91.3809542341 36.1536389419)scale(0.697381766617)" xlink:href="#CMR17-48"/>
      </g>
     </g>
    </g>
    <g id="xtick_2">
     <g id="line2d_11">
      <g>
       <use style="stroke:#000000;stroke-width:0.5;" x="122.504939086" xlink:href="#mb5fce05e44" y="315.911282252"/>
      </g>
     </g>
     <g id="line2d_12">
      <g>
       <use style="stroke:#000000;stroke-width:0.5;" x="122.504939086" xlink:href="#m6bb3994a08" y="39.4086356096"/>
      </g>
     </g>
     <g id="text_2">
      <!-- $10^{1}$ -->
      <g transform="translate(114.53485741 328.429266569)scale(0.12 -0.12)">
       <use transform="scale(0.996264009963)" xlink:href="#CMR17-49"/>
       <use transform="translate(45.6904771171 0.0)scale(0.996264009963)" xlink:href="#CMR17-48"/>
       <use transform="translate(91.3809542341 36.1536389419)scale(0.697381766617)" xlink:href="#CMR17-49"/>
      </g>
     </g>
    </g>
    <g id="xtick_3">
     <g id="line2d_13">
      <g>
       <use style="stroke:#000000;stroke-width:0.5;" x="194.646183895" xlink:href="#mb5fce05e44" y="315.911282252"/>
      </g>
     </g>
     <g id="line2d_14">
      <g>
       <use style="stroke:#000000;stroke-width:0.5;" x="194.646183895" xlink:href="#m6bb3994a08" y="39.4086356096"/>
      </g>
     </g>
     <g id="text_3">
      <!-- $10^{2}$ -->
      <defs>
       <path d="M 41.703125 15.453125 
L 39.90625 15.453125 
C 38.90625 8.375 38.09375 7.171875 37.703125 6.5625 
C 37.203125 5.765625 30 5.765625 28.59375 5.765625 
L 9.40625 5.765625 
C 13 9.671875 20 16.75 28.5 24.953125 
C 34.59375 30.734375 41.703125 37.53125 41.703125 47.421875 
C 41.703125 59.21875 32.296875 66 21.796875 66 
C 10.796875 66 4.09375 56.3125 4.09375 47.34375 
C 4.09375 43.4375 7 42.9375 8.203125 42.9375 
C 9.203125 42.9375 12.203125 43.546875 12.203125 47.03125 
C 12.203125 50.109375 9.59375 51 8.203125 51 
C 7.59375 51 7 50.90625 6.59375 50.703125 
C 8.5 59.21875 14.296875 63.40625 20.40625 63.40625 
C 29.09375 63.40625 34.796875 56.515625 34.796875 47.421875 
C 34.796875 38.734375 29.703125 31.25 24 24.75 
L 4.09375 2.28125 
L 4.09375 0 
L 39.296875 0 
z
" id="CMR17-50"/>
      </defs>
      <g transform="translate(186.676102219 328.429266569)scale(0.12 -0.12)">
       <use transform="scale(0.996264009963)" xlink:href="#CMR17-49"/>
       <use transform="translate(45.6904771171 0.0)scale(0.996264009963)" xlink:href="#CMR17-48"/>
       <use transform="translate(91.3809542341 36.1536389419)scale(0.697381766617)" xlink:href="#CMR17-50"/>
      </g>
     </g>
    </g>
    <g id="xtick_4">
     <g id="line2d_15">
      <g>
       <use style="stroke:#000000;stroke-width:0.5;" x="266.787428705" xlink:href="#mb5fce05e44" y="315.911282252"/>
      </g>
     </g>
     <g id="line2d_16">
      <g>
       <use style="stroke:#000000;stroke-width:0.5;" x="266.787428705" xlink:href="#m6bb3994a08" y="39.4086356096"/>
      </g>
     </g>
     <g id="text_4">
      <!-- $10^{3}$ -->
      <defs>
       <path d="M 22.09375 33.703125 
C 31 33.703125 34.90625 25.96875 34.90625 17.03125 
C 34.90625 5 28.5 0.390625 22.703125 0.390625 
C 17.40625 0.390625 8.796875 3.03125 6.09375 10.828125 
C 6.59375 10.625 7.09375 10.625 7.59375 10.625 
C 10 10.625 11.796875 12.21875 11.796875 14.8125 
C 11.796875 17.703125 9.59375 19 7.59375 19 
C 5.90625 19 3.296875 18.203125 3.296875 14.46875 
C 3.296875 5.234375 12.296875 -2 22.90625 -2 
C 34 -2 42.5 6.71875 42.5 16.953125 
C 42.5 26.671875 34.5 33.703125 25 34.796875 
C 32.59375 36.375 39.90625 43.0625 39.90625 52.015625 
C 39.90625 59.6875 32 65.296875 23 65.296875 
C 13.90625 65.296875 5.90625 59.828125 5.90625 52.015625 
C 5.90625 48.59375 8.5 48 9.796875 48 
C 11.90625 48 13.703125 49.296875 13.703125 51.890625 
C 13.703125 54.46875 11.90625 55.765625 9.796875 55.765625 
C 9.40625 55.765625 8.90625 55.765625 8.5 55.578125 
C 11.40625 61.859375 19.296875 63 22.796875 63 
C 26.296875 63 32.90625 61.328125 32.90625 51.875 
C 32.90625 49.109375 32.5 44.1875 29.09375 39.84375 
C 26.09375 36 22.703125 36 19.40625 35.6875 
C 18.90625 35.6875 16.59375 35.453125 16.203125 35.453125 
C 15.5 35.359375 15.09375 35.265625 15.09375 34.5 
C 15.09375 33.796875 15.203125 33.703125 17.203125 33.703125 
z
" id="CMR17-51"/>
      </defs>
      <g transform="translate(258.817347029 328.429266569)scale(0.12 -0.12)">
       <use transform="scale(0.996264009963)" xlink:href="#CMR17-49"/>
       <use transform="translate(45.6904771171 0.0)scale(0.996264009963)" xlink:href="#CMR17-48"/>
       <use transform="translate(91.3809542341 36.1536389419)scale(0.697381766617)" xlink:href="#CMR17-51"/>
      </g>
     </g>
    </g>
    <g id="xtick_5">
     <g id="line2d_17">
      <g>
       <use style="stroke:#000000;stroke-width:0.5;" x="338.928673514" xlink:href="#mb5fce05e44" y="315.911282252"/>
      </g>
     </g>
     <g id="line2d_18">
      <g>
       <use style="stroke:#000000;stroke-width:0.5;" x="338.928673514" xlink:href="#m6bb3994a08" y="39.4086356096"/>
      </g>
     </g>
     <g id="text_5">
      <!-- $10^{4}$ -->
      <defs>
       <path d="M 33.59375 64.40625 
C 33.59375 66.5 33.5 66.5 31.703125 66.5 
L 2 19.59375 
L 2 17 
L 27.796875 17 
L 27.796875 7.140625 
C 27.796875 3.5 27.59375 2.5 20.59375 2.5 
L 18.703125 2.5 
L 18.703125 0 
C 21.90625 0 27.296875 0 30.703125 0 
C 34.09375 0 39.5 0 42.703125 0 
L 42.703125 2.5 
L 40.796875 2.5 
C 33.796875 2.5 33.59375 3.5 33.59375 7.140625 
L 33.59375 17 
L 43.796875 17 
L 43.796875 19.59375 
L 33.59375 19.59375 
z
M 28.09375 57.859375 
L 28.09375 19.59375 
L 4 19.59375 
z
" id="CMR17-52"/>
      </defs>
      <g transform="translate(330.958591838 328.429266569)scale(0.12 -0.12)">
       <use transform="scale(0.996264009963)" xlink:href="#CMR17-49"/>
       <use transform="translate(45.6904771171 0.0)scale(0.996264009963)" xlink:href="#CMR17-48"/>
       <use transform="translate(91.3809542341 36.1536389419)scale(0.697381766617)" xlink:href="#CMR17-52"/>
      </g>
     </g>
    </g>
    <g id="xtick_6">
     <g id="line2d_19">
      <g>
       <use style="stroke:#000000;stroke-width:0.5;" x="411.069918324" xlink:href="#mb5fce05e44" y="315.911282252"/>
      </g>
     </g>
     <g id="line2d_20">
      <g>
       <use style="stroke:#000000;stroke-width:0.5;" x="411.069918324" xlink:href="#m6bb3994a08" y="39.4086356096"/>
      </g>
     </g>
     <g id="text_6">
      <!-- $10^{5}$ -->
      <defs>
       <path d="M 11.40625 57.6875 
C 12.40625 57.28125 16.5 56 20.703125 56 
C 30 56 35.09375 61.109375 38 64.0625 
C 38 64.953125 38 65.5 37.40625 65.5 
C 37.296875 65.5 37.09375 65.5 36.296875 65.046875 
C 32.796875 63.40625 28.703125 62.078125 23.703125 62.078125 
C 20.703125 62.078125 16.203125 62.484375 11.296875 64.671875 
C 10.203125 65.171875 10 65.171875 9.90625 65.171875 
C 9.40625 65.171875 9.296875 65.0625 9.296875 63.078125 
L 9.296875 34.421875 
C 9.296875 32.640625 9.296875 32.140625 10.296875 32.140625 
C 10.796875 32.140625 11 32.34375 11.5 33.03125 
C 14.703125 37.515625 19.09375 39.40625 24.09375 39.40625 
C 27.59375 39.40625 35.09375 37.21875 35.09375 20.140625 
C 35.09375 16.953125 35.09375 11.171875 32.09375 6.578125 
C 29.59375 2.484375 25.703125 0.390625 21.40625 0.390625 
C 14.796875 0.390625 8.09375 5 6.296875 12.71875 
C 6.703125 12.609375 7.5 12.421875 7.90625 12.421875 
C 9.203125 12.421875 11.703125 13.125 11.703125 16.21875 
C 11.703125 18.90625 9.796875 20 7.90625 20 
C 5.59375 20 4.09375 18.59375 4.09375 15.796875 
C 4.09375 7.09375 11 -2 21.59375 -2 
C 31.90625 -2 41.703125 6.875 41.703125 19.75 
C 41.703125 31.71875 33.90625 41 24.203125 41 
C 19.09375 41 14.796875 39.109375 11.40625 35.53125 
z
" id="CMR17-53"/>
      </defs>
      <g transform="translate(403.099836648 328.429266569)scale(0.12 -0.12)">
       <use transform="scale(0.996264009963)" xlink:href="#CMR17-49"/>
       <use transform="translate(45.6904771171 0.0)scale(0.996264009963)" xlink:href="#CMR17-48"/>
       <use transform="translate(91.3809542341 36.1536389419)scale(0.697381766617)" xlink:href="#CMR17-53"/>
      </g>
     </g>
    </g>
    <g id="xtick_7">
     <g id="line2d_21">
      <defs>
       <path d="M 0 0 
L 0 -2 
" id="m32b0e80e77" style="stroke:#000000;stroke-width:0.5;"/>
      </defs>
      <g>
       <use style="stroke:#000000;stroke-width:0.5;" x="72.0803728885" xlink:href="#m32b0e80e77" y="315.911282252"/>
      </g>
     </g>
     <g id="line2d_22">
      <defs>
       <path d="M 0 0 
L 0 2 
" id="m423af64e94" style="stroke:#000000;stroke-width:0.5;"/>
      </defs>
      <g>
       <use style="stroke:#000000;stroke-width:0.5;" x="72.0803728885" xlink:href="#m423af64e94" y="39.4086356096"/>
      </g>
     </g>
    </g>
    <g id="xtick_8">
     <g id="line2d_23">
      <g>
       <use style="stroke:#000000;stroke-width:0.5;" x="84.7838155169" xlink:href="#m32b0e80e77" y="315.911282252"/>
      </g>
     </g>
     <g id="line2d_24">
      <g>
       <use style="stroke:#000000;stroke-width:0.5;" x="84.7838155169" xlink:href="#m423af64e94" y="39.4086356096"/>
      </g>
     </g>
    </g>
    <g id="xtick_9">
     <g id="line2d_25">
      <g>
       <use style="stroke:#000000;stroke-width:0.5;" x="93.7970515007" xlink:href="#m32b0e80e77" y="315.911282252"/>
      </g>
     </g>
     <g id="line2d_26">
      <g>
       <use style="stroke:#000000;stroke-width:0.5;" x="93.7970515007" xlink:href="#m423af64e94" y="39.4086356096"/>
      </g>
     </g>
    </g>
    <g id="xtick_10">
     <g id="line2d_27">
      <g>
       <use style="stroke:#000000;stroke-width:0.5;" x="100.788260474" xlink:href="#m32b0e80e77" y="315.911282252"/>
      </g>
     </g>
     <g id="line2d_28">
      <g>
       <use style="stroke:#000000;stroke-width:0.5;" x="100.788260474" xlink:href="#m423af64e94" y="39.4086356096"/>
      </g>
     </g>
    </g>
    <g id="xtick_11">
     <g id="line2d_29">
      <g>
       <use style="stroke:#000000;stroke-width:0.5;" x="106.500494129" xlink:href="#m32b0e80e77" y="315.911282252"/>
      </g>
     </g>
     <g id="line2d_30">
      <g>
       <use style="stroke:#000000;stroke-width:0.5;" x="106.500494129" xlink:href="#m423af64e94" y="39.4086356096"/>
      </g>
     </g>
    </g>
    <g id="xtick_12">
     <g id="line2d_31">
      <g>
       <use style="stroke:#000000;stroke-width:0.5;" x="111.330118869" xlink:href="#m32b0e80e77" y="315.911282252"/>
      </g>
     </g>
     <g id="line2d_32">
      <g>
       <use style="stroke:#000000;stroke-width:0.5;" x="111.330118869" xlink:href="#m423af64e94" y="39.4086356096"/>
      </g>
     </g>
    </g>
    <g id="xtick_13">
     <g id="line2d_33">
      <g>
       <use style="stroke:#000000;stroke-width:0.5;" x="115.513730113" xlink:href="#m32b0e80e77" y="315.911282252"/>
      </g>
     </g>
     <g id="line2d_34">
      <g>
       <use style="stroke:#000000;stroke-width:0.5;" x="115.513730113" xlink:href="#m423af64e94" y="39.4086356096"/>
      </g>
     </g>
    </g>
    <g id="xtick_14">
     <g id="line2d_35">
      <g>
       <use style="stroke:#000000;stroke-width:0.5;" x="119.203936757" xlink:href="#m32b0e80e77" y="315.911282252"/>
      </g>
     </g>
     <g id="line2d_36">
      <g>
       <use style="stroke:#000000;stroke-width:0.5;" x="119.203936757" xlink:href="#m423af64e94" y="39.4086356096"/>
      </g>
     </g>
    </g>
    <g id="xtick_15">
     <g id="line2d_37">
      <g>
       <use style="stroke:#000000;stroke-width:0.5;" x="144.221617698" xlink:href="#m32b0e80e77" y="315.911282252"/>
      </g>
     </g>
     <g id="line2d_38">
      <g>
       <use style="stroke:#000000;stroke-width:0.5;" x="144.221617698" xlink:href="#m423af64e94" y="39.4086356096"/>
      </g>
     </g>
    </g>
    <g id="xtick_16">
     <g id="line2d_39">
      <g>
       <use style="stroke:#000000;stroke-width:0.5;" x="156.925060326" xlink:href="#m32b0e80e77" y="315.911282252"/>
      </g>
     </g>
     <g id="line2d_40">
      <g>
       <use style="stroke:#000000;stroke-width:0.5;" x="156.925060326" xlink:href="#m423af64e94" y="39.4086356096"/>
      </g>
     </g>
    </g>
    <g id="xtick_17">
     <g id="line2d_41">
      <g>
       <use style="stroke:#000000;stroke-width:0.5;" x="165.93829631" xlink:href="#m32b0e80e77" y="315.911282252"/>
      </g>
     </g>
     <g id="line2d_42">
      <g>
       <use style="stroke:#000000;stroke-width:0.5;" x="165.93829631" xlink:href="#m423af64e94" y="39.4086356096"/>
      </g>
     </g>
    </g>
    <g id="xtick_18">
     <g id="line2d_43">
      <g>
       <use style="stroke:#000000;stroke-width:0.5;" x="172.929505283" xlink:href="#m32b0e80e77" y="315.911282252"/>
      </g>
     </g>
     <g id="line2d_44">
      <g>
       <use style="stroke:#000000;stroke-width:0.5;" x="172.929505283" xlink:href="#m423af64e94" y="39.4086356096"/>
      </g>
     </g>
    </g>
    <g id="xtick_19">
     <g id="line2d_45">
      <g>
       <use style="stroke:#000000;stroke-width:0.5;" x="178.641738939" xlink:href="#m32b0e80e77" y="315.911282252"/>
      </g>
     </g>
     <g id="line2d_46">
      <g>
       <use style="stroke:#000000;stroke-width:0.5;" x="178.641738939" xlink:href="#m423af64e94" y="39.4086356096"/>
      </g>
     </g>
    </g>
    <g id="xtick_20">
     <g id="line2d_47">
      <g>
       <use style="stroke:#000000;stroke-width:0.5;" x="183.471363679" xlink:href="#m32b0e80e77" y="315.911282252"/>
      </g>
     </g>
     <g id="line2d_48">
      <g>
       <use style="stroke:#000000;stroke-width:0.5;" x="183.471363679" xlink:href="#m423af64e94" y="39.4086356096"/>
      </g>
     </g>
    </g>
    <g id="xtick_21">
     <g id="line2d_49">
      <g>
       <use style="stroke:#000000;stroke-width:0.5;" x="187.654974922" xlink:href="#m32b0e80e77" y="315.911282252"/>
      </g>
     </g>
     <g id="line2d_50">
      <g>
       <use style="stroke:#000000;stroke-width:0.5;" x="187.654974922" xlink:href="#m423af64e94" y="39.4086356096"/>
      </g>
     </g>
    </g>
    <g id="xtick_22">
     <g id="line2d_51">
      <g>
       <use style="stroke:#000000;stroke-width:0.5;" x="191.345181567" xlink:href="#m32b0e80e77" y="315.911282252"/>
      </g>
     </g>
     <g id="line2d_52">
      <g>
       <use style="stroke:#000000;stroke-width:0.5;" x="191.345181567" xlink:href="#m423af64e94" y="39.4086356096"/>
      </g>
     </g>
    </g>
    <g id="xtick_23">
     <g id="line2d_53">
      <g>
       <use style="stroke:#000000;stroke-width:0.5;" x="216.362862508" xlink:href="#m32b0e80e77" y="315.911282252"/>
      </g>
     </g>
     <g id="line2d_54">
      <g>
       <use style="stroke:#000000;stroke-width:0.5;" x="216.362862508" xlink:href="#m423af64e94" y="39.4086356096"/>
      </g>
     </g>
    </g>
    <g id="xtick_24">
     <g id="line2d_55">
      <g>
       <use style="stroke:#000000;stroke-width:0.5;" x="229.066305136" xlink:href="#m32b0e80e77" y="315.911282252"/>
      </g>
     </g>
     <g id="line2d_56">
      <g>
       <use style="stroke:#000000;stroke-width:0.5;" x="229.066305136" xlink:href="#m423af64e94" y="39.4086356096"/>
      </g>
     </g>
    </g>
    <g id="xtick_25">
     <g id="line2d_57">
      <g>
       <use style="stroke:#000000;stroke-width:0.5;" x="238.07954112" xlink:href="#m32b0e80e77" y="315.911282252"/>
      </g>
     </g>
     <g id="line2d_58">
      <g>
       <use style="stroke:#000000;stroke-width:0.5;" x="238.07954112" xlink:href="#m423af64e94" y="39.4086356096"/>
      </g>
     </g>
    </g>
    <g id="xtick_26">
     <g id="line2d_59">
      <g>
       <use style="stroke:#000000;stroke-width:0.5;" x="245.070750093" xlink:href="#m32b0e80e77" y="315.911282252"/>
      </g>
     </g>
     <g id="line2d_60">
      <g>
       <use style="stroke:#000000;stroke-width:0.5;" x="245.070750093" xlink:href="#m423af64e94" y="39.4086356096"/>
      </g>
     </g>
    </g>
    <g id="xtick_27">
     <g id="line2d_61">
      <g>
       <use style="stroke:#000000;stroke-width:0.5;" x="250.782983748" xlink:href="#m32b0e80e77" y="315.911282252"/>
      </g>
     </g>
     <g id="line2d_62">
      <g>
       <use style="stroke:#000000;stroke-width:0.5;" x="250.782983748" xlink:href="#m423af64e94" y="39.4086356096"/>
      </g>
     </g>
    </g>
    <g id="xtick_28">
     <g id="line2d_63">
      <g>
       <use style="stroke:#000000;stroke-width:0.5;" x="255.612608488" xlink:href="#m32b0e80e77" y="315.911282252"/>
      </g>
     </g>
     <g id="line2d_64">
      <g>
       <use style="stroke:#000000;stroke-width:0.5;" x="255.612608488" xlink:href="#m423af64e94" y="39.4086356096"/>
      </g>
     </g>
    </g>
    <g id="xtick_29">
     <g id="line2d_65">
      <g>
       <use style="stroke:#000000;stroke-width:0.5;" x="259.796219732" xlink:href="#m32b0e80e77" y="315.911282252"/>
      </g>
     </g>
     <g id="line2d_66">
      <g>
       <use style="stroke:#000000;stroke-width:0.5;" x="259.796219732" xlink:href="#m423af64e94" y="39.4086356096"/>
      </g>
     </g>
    </g>
    <g id="xtick_30">
     <g id="line2d_67">
      <g>
       <use style="stroke:#000000;stroke-width:0.5;" x="263.486426376" xlink:href="#m32b0e80e77" y="315.911282252"/>
      </g>
     </g>
     <g id="line2d_68">
      <g>
       <use style="stroke:#000000;stroke-width:0.5;" x="263.486426376" xlink:href="#m423af64e94" y="39.4086356096"/>
      </g>
     </g>
    </g>
    <g id="xtick_31">
     <g id="line2d_69">
      <g>
       <use style="stroke:#000000;stroke-width:0.5;" x="288.504107317" xlink:href="#m32b0e80e77" y="315.911282252"/>
      </g>
     </g>
     <g id="line2d_70">
      <g>
       <use style="stroke:#000000;stroke-width:0.5;" x="288.504107317" xlink:href="#m423af64e94" y="39.4086356096"/>
      </g>
     </g>
    </g>
    <g id="xtick_32">
     <g id="line2d_71">
      <g>
       <use style="stroke:#000000;stroke-width:0.5;" x="301.207549945" xlink:href="#m32b0e80e77" y="315.911282252"/>
      </g>
     </g>
     <g id="line2d_72">
      <g>
       <use style="stroke:#000000;stroke-width:0.5;" x="301.207549945" xlink:href="#m423af64e94" y="39.4086356096"/>
      </g>
     </g>
    </g>
    <g id="xtick_33">
     <g id="line2d_73">
      <g>
       <use style="stroke:#000000;stroke-width:0.5;" x="310.220785929" xlink:href="#m32b0e80e77" y="315.911282252"/>
      </g>
     </g>
     <g id="line2d_74">
      <g>
       <use style="stroke:#000000;stroke-width:0.5;" x="310.220785929" xlink:href="#m423af64e94" y="39.4086356096"/>
      </g>
     </g>
    </g>
    <g id="xtick_34">
     <g id="line2d_75">
      <g>
       <use style="stroke:#000000;stroke-width:0.5;" x="317.211994902" xlink:href="#m32b0e80e77" y="315.911282252"/>
      </g>
     </g>
     <g id="line2d_76">
      <g>
       <use style="stroke:#000000;stroke-width:0.5;" x="317.211994902" xlink:href="#m423af64e94" y="39.4086356096"/>
      </g>
     </g>
    </g>
    <g id="xtick_35">
     <g id="line2d_77">
      <g>
       <use style="stroke:#000000;stroke-width:0.5;" x="322.924228558" xlink:href="#m32b0e80e77" y="315.911282252"/>
      </g>
     </g>
     <g id="line2d_78">
      <g>
       <use style="stroke:#000000;stroke-width:0.5;" x="322.924228558" xlink:href="#m423af64e94" y="39.4086356096"/>
      </g>
     </g>
    </g>
    <g id="xtick_36">
     <g id="line2d_79">
      <g>
       <use style="stroke:#000000;stroke-width:0.5;" x="327.753853298" xlink:href="#m32b0e80e77" y="315.911282252"/>
      </g>
     </g>
     <g id="line2d_80">
      <g>
       <use style="stroke:#000000;stroke-width:0.5;" x="327.753853298" xlink:href="#m423af64e94" y="39.4086356096"/>
      </g>
     </g>
    </g>
    <g id="xtick_37">
     <g id="line2d_81">
      <g>
       <use style="stroke:#000000;stroke-width:0.5;" x="331.937464541" xlink:href="#m32b0e80e77" y="315.911282252"/>
      </g>
     </g>
     <g id="line2d_82">
      <g>
       <use style="stroke:#000000;stroke-width:0.5;" x="331.937464541" xlink:href="#m423af64e94" y="39.4086356096"/>
      </g>
     </g>
    </g>
    <g id="xtick_38">
     <g id="line2d_83">
      <g>
       <use style="stroke:#000000;stroke-width:0.5;" x="335.627671186" xlink:href="#m32b0e80e77" y="315.911282252"/>
      </g>
     </g>
     <g id="line2d_84">
      <g>
       <use style="stroke:#000000;stroke-width:0.5;" x="335.627671186" xlink:href="#m423af64e94" y="39.4086356096"/>
      </g>
     </g>
    </g>
    <g id="xtick_39">
     <g id="line2d_85">
      <g>
       <use style="stroke:#000000;stroke-width:0.5;" x="360.645352127" xlink:href="#m32b0e80e77" y="315.911282252"/>
      </g>
     </g>
     <g id="line2d_86">
      <g>
       <use style="stroke:#000000;stroke-width:0.5;" x="360.645352127" xlink:href="#m423af64e94" y="39.4086356096"/>
      </g>
     </g>
    </g>
    <g id="xtick_40">
     <g id="line2d_87">
      <g>
       <use style="stroke:#000000;stroke-width:0.5;" x="373.348794755" xlink:href="#m32b0e80e77" y="315.911282252"/>
      </g>
     </g>
     <g id="line2d_88">
      <g>
       <use style="stroke:#000000;stroke-width:0.5;" x="373.348794755" xlink:href="#m423af64e94" y="39.4086356096"/>
      </g>
     </g>
    </g>
    <g id="xtick_41">
     <g id="line2d_89">
      <g>
       <use style="stroke:#000000;stroke-width:0.5;" x="382.362030739" xlink:href="#m32b0e80e77" y="315.911282252"/>
      </g>
     </g>
     <g id="line2d_90">
      <g>
       <use style="stroke:#000000;stroke-width:0.5;" x="382.362030739" xlink:href="#m423af64e94" y="39.4086356096"/>
      </g>
     </g>
    </g>
    <g id="xtick_42">
     <g id="line2d_91">
      <g>
       <use style="stroke:#000000;stroke-width:0.5;" x="389.353239712" xlink:href="#m32b0e80e77" y="315.911282252"/>
      </g>
     </g>
     <g id="line2d_92">
      <g>
       <use style="stroke:#000000;stroke-width:0.5;" x="389.353239712" xlink:href="#m423af64e94" y="39.4086356096"/>
      </g>
     </g>
    </g>
    <g id="xtick_43">
     <g id="line2d_93">
      <g>
       <use style="stroke:#000000;stroke-width:0.5;" x="395.065473367" xlink:href="#m32b0e80e77" y="315.911282252"/>
      </g>
     </g>
     <g id="line2d_94">
      <g>
       <use style="stroke:#000000;stroke-width:0.5;" x="395.065473367" xlink:href="#m423af64e94" y="39.4086356096"/>
      </g>
     </g>
    </g>
    <g id="xtick_44">
     <g id="line2d_95">
      <g>
       <use style="stroke:#000000;stroke-width:0.5;" x="399.895098107" xlink:href="#m32b0e80e77" y="315.911282252"/>
      </g>
     </g>
     <g id="line2d_96">
      <g>
       <use style="stroke:#000000;stroke-width:0.5;" x="399.895098107" xlink:href="#m423af64e94" y="39.4086356096"/>
      </g>
     </g>
    </g>
    <g id="xtick_45">
     <g id="line2d_97">
      <g>
       <use style="stroke:#000000;stroke-width:0.5;" x="404.078709351" xlink:href="#m32b0e80e77" y="315.911282252"/>
      </g>
     </g>
     <g id="line2d_98">
      <g>
       <use style="stroke:#000000;stroke-width:0.5;" x="404.078709351" xlink:href="#m423af64e94" y="39.4086356096"/>
      </g>
     </g>
    </g>
    <g id="xtick_46">
     <g id="line2d_99">
      <g>
       <use style="stroke:#000000;stroke-width:0.5;" x="407.768915995" xlink:href="#m32b0e80e77" y="315.911282252"/>
      </g>
     </g>
     <g id="line2d_100">
      <g>
       <use style="stroke:#000000;stroke-width:0.5;" x="407.768915995" xlink:href="#m423af64e94" y="39.4086356096"/>
      </g>
     </g>
    </g>
    <g id="text_7">
     <!-- $N$ -->
     <defs>
      <path d="M 74 57.78125 
C 75.09375 62.09375 76.703125 65.09375 84.296875 65.09375 
C 84.59375 65.09375 85.796875 65.09375 85.796875 66.859375 
C 85.796875 68 84.90625 68 84.5 68 
C 82.5 68 77.40625 68 75.40625 68 
L 70.59375 68 
C 69.203125 68 67.40625 68 66 68 
C 65.40625 68 64.203125 68 64.203125 66.09375 
C 64.203125 65.09375 65 65.09375 65.703125 65.09375 
C 71.703125 65.09375 72.09375 62.796875 72.09375 60.984375 
C 72.09375 60.09375 72 59.78125 71.703125 58.390625 
L 60.40625 13.28125 
L 39 66.390625 
C 38.296875 68 38.203125 68 36 68 
L 23.796875 68 
C 21.796875 68 20.90625 68 20.90625 66.09375 
C 20.90625 65.09375 21.59375 65.09375 23.5 65.09375 
C 24 65.09375 29.90625 65.09375 29.90625 64.296875 
C 29.90625 64.09375 29.703125 63.296875 29.59375 63 
L 16.296875 9.921875 
C 15.09375 5 12.703125 2.90625 6.09375 2.90625 
C 5.59375 2.90625 4.59375 2.90625 4.59375 1.046875 
C 4.59375 0 5.59375 0 5.90625 0 
C 7.90625 0 13 0 15 0 
L 19.796875 0 
C 21.203125 0 22.90625 0 24.296875 0 
C 25 0 26.09375 0 26.09375 1.90625 
C 26.09375 2.8125 25.09375 2.90625 24.703125 2.90625 
C 21.40625 2.90625 18.203125 3.5 18.203125 7.09375 
C 18.203125 7.890625 18.40625 8.78125 18.59375 9.578125 
L 32.09375 63 
C 32.703125 62 32.703125 61.8125 33.09375 60.90625 
L 56.90625 1.796875 
C 57.40625 0.59375 57.59375 0 58.5 0 
C 59.5 0 59.59375 0.296875 60 2 
z
" id="CMMI12-78"/>
     </defs>
     <g transform="translate(226.02989917 344.493625443)scale(0.12 -0.12)">
      <use transform="scale(0.996264009963)" xlink:href="#CMMI12-78"/>
     </g>
    </g>
   </g>
   <g id="matplotlib.axis_2">
    <g id="ytick_1">
     <g id="line2d_101">
      <defs>
       <path d="M 0 0 
L 4 0 
" id="m557908e9c2" style="stroke:#000000;stroke-width:0.5;"/>
      </defs>
      <g>
       <use style="stroke:#000000;stroke-width:0.5;" x="50.3636942763" xlink:href="#m557908e9c2" y="315.911282252"/>
      </g>
     </g>
     <g id="line2d_102">
      <defs>
       <path d="M 0 0 
L -4 0 
" id="m59bbfdb889" style="stroke:#000000;stroke-width:0.5;"/>
      </defs>
      <g>
       <use style="stroke:#000000;stroke-width:0.5;" x="411.069918324" xlink:href="#m59bbfdb889" y="315.911282252"/>
      </g>
     </g>
     <g id="text_8">
      <!-- $10^{1}$ -->
      <g transform="translate(30.4235309241 318.897087132)scale(0.12 -0.12)">
       <use transform="scale(0.996264009963)" xlink:href="#CMR17-49"/>
       <use transform="translate(45.6904771171 0.0)scale(0.996264009963)" xlink:href="#CMR17-48"/>
       <use transform="translate(91.3809542341 36.1536389419)scale(0.697381766617)" xlink:href="#CMR17-49"/>
      </g>
     </g>
    </g>
    <g id="ytick_2">
     <g id="line2d_103">
      <g>
       <use style="stroke:#000000;stroke-width:0.5;" x="50.3636942763" xlink:href="#m557908e9c2" y="246.785620591"/>
      </g>
     </g>
     <g id="line2d_104">
      <g>
       <use style="stroke:#000000;stroke-width:0.5;" x="411.069918324" xlink:href="#m59bbfdb889" y="246.785620591"/>
      </g>
     </g>
     <g id="text_9">
      <!-- $10^{2}$ -->
      <g transform="translate(30.4235309241 249.771425471)scale(0.12 -0.12)">
       <use transform="scale(0.996264009963)" xlink:href="#CMR17-49"/>
       <use transform="translate(45.6904771171 0.0)scale(0.996264009963)" xlink:href="#CMR17-48"/>
       <use transform="translate(91.3809542341 36.1536389419)scale(0.697381766617)" xlink:href="#CMR17-50"/>
      </g>
     </g>
    </g>
    <g id="ytick_3">
     <g id="line2d_105">
      <g>
       <use style="stroke:#000000;stroke-width:0.5;" x="50.3636942763" xlink:href="#m557908e9c2" y="177.659958931"/>
      </g>
     </g>
     <g id="line2d_106">
      <g>
       <use style="stroke:#000000;stroke-width:0.5;" x="411.069918324" xlink:href="#m59bbfdb889" y="177.659958931"/>
      </g>
     </g>
     <g id="text_10">
      <!-- $10^{3}$ -->
      <g transform="translate(30.4235309241 180.645763811)scale(0.12 -0.12)">
       <use transform="scale(0.996264009963)" xlink:href="#CMR17-49"/>
       <use transform="translate(45.6904771171 0.0)scale(0.996264009963)" xlink:href="#CMR17-48"/>
       <use transform="translate(91.3809542341 36.1536389419)scale(0.697381766617)" xlink:href="#CMR17-51"/>
      </g>
     </g>
    </g>
    <g id="ytick_4">
     <g id="line2d_107">
      <g>
       <use style="stroke:#000000;stroke-width:0.5;" x="50.3636942763" xlink:href="#m557908e9c2" y="108.53429727"/>
      </g>
     </g>
     <g id="line2d_108">
      <g>
       <use style="stroke:#000000;stroke-width:0.5;" x="411.069918324" xlink:href="#m59bbfdb889" y="108.53429727"/>
      </g>
     </g>
     <g id="text_11">
      <!-- $10^{4}$ -->
      <g transform="translate(30.4235309241 111.52010215)scale(0.12 -0.12)">
       <use transform="scale(0.996264009963)" xlink:href="#CMR17-49"/>
       <use transform="translate(45.6904771171 0.0)scale(0.996264009963)" xlink:href="#CMR17-48"/>
       <use transform="translate(91.3809542341 36.1536389419)scale(0.697381766617)" xlink:href="#CMR17-52"/>
      </g>
     </g>
    </g>
    <g id="ytick_5">
     <g id="line2d_109">
      <g>
       <use style="stroke:#000000;stroke-width:0.5;" x="50.3636942763" xlink:href="#m557908e9c2" y="39.4086356096"/>
      </g>
     </g>
     <g id="line2d_110">
      <g>
       <use style="stroke:#000000;stroke-width:0.5;" x="411.069918324" xlink:href="#m59bbfdb889" y="39.4086356096"/>
      </g>
     </g>
     <g id="text_12">
      <!-- $10^{5}$ -->
      <g transform="translate(30.4235309241 42.3944404893)scale(0.12 -0.12)">
       <use transform="scale(0.996264009963)" xlink:href="#CMR17-49"/>
       <use transform="translate(45.6904771171 0.0)scale(0.996264009963)" xlink:href="#CMR17-48"/>
       <use transform="translate(91.3809542341 36.1536389419)scale(0.697381766617)" xlink:href="#CMR17-53"/>
      </g>
     </g>
    </g>
    <g id="ytick_6">
     <g id="line2d_111">
      <defs>
       <path d="M 0 0 
L 2 0 
" id="m8fbc38bd35" style="stroke:#000000;stroke-width:0.5;"/>
      </defs>
      <g>
       <use style="stroke:#000000;stroke-width:0.5;" x="50.3636942763" xlink:href="#m8fbc38bd35" y="295.102384622"/>
      </g>
     </g>
     <g id="line2d_112">
      <defs>
       <path d="M 0 0 
L -2 0 
" id="mc3fca14d6d" style="stroke:#000000;stroke-width:0.5;"/>
      </defs>
      <g>
       <use style="stroke:#000000;stroke-width:0.5;" x="411.069918324" xlink:href="#mc3fca14d6d" y="295.102384622"/>
      </g>
     </g>
    </g>
    <g id="ytick_7">
     <g id="line2d_113">
      <g>
       <use style="stroke:#000000;stroke-width:0.5;" x="50.3636942763" xlink:href="#m8fbc38bd35" y="282.929959827"/>
      </g>
     </g>
     <g id="line2d_114">
      <g>
       <use style="stroke:#000000;stroke-width:0.5;" x="411.069918324" xlink:href="#mc3fca14d6d" y="282.929959827"/>
      </g>
     </g>
    </g>
    <g id="ytick_8">
     <g id="line2d_115">
      <g>
       <use style="stroke:#000000;stroke-width:0.5;" x="50.3636942763" xlink:href="#m8fbc38bd35" y="274.293486992"/>
      </g>
     </g>
     <g id="line2d_116">
      <g>
       <use style="stroke:#000000;stroke-width:0.5;" x="411.069918324" xlink:href="#mc3fca14d6d" y="274.293486992"/>
      </g>
     </g>
    </g>
    <g id="ytick_9">
     <g id="line2d_117">
      <g>
       <use style="stroke:#000000;stroke-width:0.5;" x="50.3636942763" xlink:href="#m8fbc38bd35" y="267.594518221"/>
      </g>
     </g>
     <g id="line2d_118">
      <g>
       <use style="stroke:#000000;stroke-width:0.5;" x="411.069918324" xlink:href="#mc3fca14d6d" y="267.594518221"/>
      </g>
     </g>
    </g>
    <g id="ytick_10">
     <g id="line2d_119">
      <g>
       <use style="stroke:#000000;stroke-width:0.5;" x="50.3636942763" xlink:href="#m8fbc38bd35" y="262.121062197"/>
      </g>
     </g>
     <g id="line2d_120">
      <g>
       <use style="stroke:#000000;stroke-width:0.5;" x="411.069918324" xlink:href="#mc3fca14d6d" y="262.121062197"/>
      </g>
     </g>
    </g>
    <g id="ytick_11">
     <g id="line2d_121">
      <g>
       <use style="stroke:#000000;stroke-width:0.5;" x="50.3636942763" xlink:href="#m8fbc38bd35" y="257.493321068"/>
      </g>
     </g>
     <g id="line2d_122">
      <g>
       <use style="stroke:#000000;stroke-width:0.5;" x="411.069918324" xlink:href="#mc3fca14d6d" y="257.493321068"/>
      </g>
     </g>
    </g>
    <g id="ytick_12">
     <g id="line2d_123">
      <g>
       <use style="stroke:#000000;stroke-width:0.5;" x="50.3636942763" xlink:href="#m8fbc38bd35" y="253.484589362"/>
      </g>
     </g>
     <g id="line2d_124">
      <g>
       <use style="stroke:#000000;stroke-width:0.5;" x="411.069918324" xlink:href="#mc3fca14d6d" y="253.484589362"/>
      </g>
     </g>
    </g>
    <g id="ytick_13">
     <g id="line2d_125">
      <g>
       <use style="stroke:#000000;stroke-width:0.5;" x="50.3636942763" xlink:href="#m8fbc38bd35" y="249.948637402"/>
      </g>
     </g>
     <g id="line2d_126">
      <g>
       <use style="stroke:#000000;stroke-width:0.5;" x="411.069918324" xlink:href="#mc3fca14d6d" y="249.948637402"/>
      </g>
     </g>
    </g>
    <g id="ytick_14">
     <g id="line2d_127">
      <g>
       <use style="stroke:#000000;stroke-width:0.5;" x="50.3636942763" xlink:href="#m8fbc38bd35" y="225.976722962"/>
      </g>
     </g>
     <g id="line2d_128">
      <g>
       <use style="stroke:#000000;stroke-width:0.5;" x="411.069918324" xlink:href="#mc3fca14d6d" y="225.976722962"/>
      </g>
     </g>
    </g>
    <g id="ytick_15">
     <g id="line2d_129">
      <g>
       <use style="stroke:#000000;stroke-width:0.5;" x="50.3636942763" xlink:href="#m8fbc38bd35" y="213.804298167"/>
      </g>
     </g>
     <g id="line2d_130">
      <g>
       <use style="stroke:#000000;stroke-width:0.5;" x="411.069918324" xlink:href="#mc3fca14d6d" y="213.804298167"/>
      </g>
     </g>
    </g>
    <g id="ytick_16">
     <g id="line2d_131">
      <g>
       <use style="stroke:#000000;stroke-width:0.5;" x="50.3636942763" xlink:href="#m8fbc38bd35" y="205.167825332"/>
      </g>
     </g>
     <g id="line2d_132">
      <g>
       <use style="stroke:#000000;stroke-width:0.5;" x="411.069918324" xlink:href="#mc3fca14d6d" y="205.167825332"/>
      </g>
     </g>
    </g>
    <g id="ytick_17">
     <g id="line2d_133">
      <g>
       <use style="stroke:#000000;stroke-width:0.5;" x="50.3636942763" xlink:href="#m8fbc38bd35" y="198.468856561"/>
      </g>
     </g>
     <g id="line2d_134">
      <g>
       <use style="stroke:#000000;stroke-width:0.5;" x="411.069918324" xlink:href="#mc3fca14d6d" y="198.468856561"/>
      </g>
     </g>
    </g>
    <g id="ytick_18">
     <g id="line2d_135">
      <g>
       <use style="stroke:#000000;stroke-width:0.5;" x="50.3636942763" xlink:href="#m8fbc38bd35" y="192.995400537"/>
      </g>
     </g>
     <g id="line2d_136">
      <g>
       <use style="stroke:#000000;stroke-width:0.5;" x="411.069918324" xlink:href="#mc3fca14d6d" y="192.995400537"/>
      </g>
     </g>
    </g>
    <g id="ytick_19">
     <g id="line2d_137">
      <g>
       <use style="stroke:#000000;stroke-width:0.5;" x="50.3636942763" xlink:href="#m8fbc38bd35" y="188.367659407"/>
      </g>
     </g>
     <g id="line2d_138">
      <g>
       <use style="stroke:#000000;stroke-width:0.5;" x="411.069918324" xlink:href="#mc3fca14d6d" y="188.367659407"/>
      </g>
     </g>
    </g>
    <g id="ytick_20">
     <g id="line2d_139">
      <g>
       <use style="stroke:#000000;stroke-width:0.5;" x="50.3636942763" xlink:href="#m8fbc38bd35" y="184.358927702"/>
      </g>
     </g>
     <g id="line2d_140">
      <g>
       <use style="stroke:#000000;stroke-width:0.5;" x="411.069918324" xlink:href="#mc3fca14d6d" y="184.358927702"/>
      </g>
     </g>
    </g>
    <g id="ytick_21">
     <g id="line2d_141">
      <g>
       <use style="stroke:#000000;stroke-width:0.5;" x="50.3636942763" xlink:href="#m8fbc38bd35" y="180.822975742"/>
      </g>
     </g>
     <g id="line2d_142">
      <g>
       <use style="stroke:#000000;stroke-width:0.5;" x="411.069918324" xlink:href="#mc3fca14d6d" y="180.822975742"/>
      </g>
     </g>
    </g>
    <g id="ytick_22">
     <g id="line2d_143">
      <g>
       <use style="stroke:#000000;stroke-width:0.5;" x="50.3636942763" xlink:href="#m8fbc38bd35" y="156.851061301"/>
      </g>
     </g>
     <g id="line2d_144">
      <g>
       <use style="stroke:#000000;stroke-width:0.5;" x="411.069918324" xlink:href="#mc3fca14d6d" y="156.851061301"/>
      </g>
     </g>
    </g>
    <g id="ytick_23">
     <g id="line2d_145">
      <g>
       <use style="stroke:#000000;stroke-width:0.5;" x="50.3636942763" xlink:href="#m8fbc38bd35" y="144.678636506"/>
      </g>
     </g>
     <g id="line2d_146">
      <g>
       <use style="stroke:#000000;stroke-width:0.5;" x="411.069918324" xlink:href="#mc3fca14d6d" y="144.678636506"/>
      </g>
     </g>
    </g>
    <g id="ytick_24">
     <g id="line2d_147">
      <g>
       <use style="stroke:#000000;stroke-width:0.5;" x="50.3636942763" xlink:href="#m8fbc38bd35" y="136.042163671"/>
      </g>
     </g>
     <g id="line2d_148">
      <g>
       <use style="stroke:#000000;stroke-width:0.5;" x="411.069918324" xlink:href="#mc3fca14d6d" y="136.042163671"/>
      </g>
     </g>
    </g>
    <g id="ytick_25">
     <g id="line2d_149">
      <g>
       <use style="stroke:#000000;stroke-width:0.5;" x="50.3636942763" xlink:href="#m8fbc38bd35" y="129.3431949"/>
      </g>
     </g>
     <g id="line2d_150">
      <g>
       <use style="stroke:#000000;stroke-width:0.5;" x="411.069918324" xlink:href="#mc3fca14d6d" y="129.3431949"/>
      </g>
     </g>
    </g>
    <g id="ytick_26">
     <g id="line2d_151">
      <g>
       <use style="stroke:#000000;stroke-width:0.5;" x="50.3636942763" xlink:href="#m8fbc38bd35" y="123.869738876"/>
      </g>
     </g>
     <g id="line2d_152">
      <g>
       <use style="stroke:#000000;stroke-width:0.5;" x="411.069918324" xlink:href="#mc3fca14d6d" y="123.869738876"/>
      </g>
     </g>
    </g>
    <g id="ytick_27">
     <g id="line2d_153">
      <g>
       <use style="stroke:#000000;stroke-width:0.5;" x="50.3636942763" xlink:href="#m8fbc38bd35" y="119.241997747"/>
      </g>
     </g>
     <g id="line2d_154">
      <g>
       <use style="stroke:#000000;stroke-width:0.5;" x="411.069918324" xlink:href="#mc3fca14d6d" y="119.241997747"/>
      </g>
     </g>
    </g>
    <g id="ytick_28">
     <g id="line2d_155">
      <g>
       <use style="stroke:#000000;stroke-width:0.5;" x="50.3636942763" xlink:href="#m8fbc38bd35" y="115.233266041"/>
      </g>
     </g>
     <g id="line2d_156">
      <g>
       <use style="stroke:#000000;stroke-width:0.5;" x="411.069918324" xlink:href="#mc3fca14d6d" y="115.233266041"/>
      </g>
     </g>
    </g>
    <g id="ytick_29">
     <g id="line2d_157">
      <g>
       <use style="stroke:#000000;stroke-width:0.5;" x="50.3636942763" xlink:href="#m8fbc38bd35" y="111.697314081"/>
      </g>
     </g>
     <g id="line2d_158">
      <g>
       <use style="stroke:#000000;stroke-width:0.5;" x="411.069918324" xlink:href="#mc3fca14d6d" y="111.697314081"/>
      </g>
     </g>
    </g>
    <g id="ytick_30">
     <g id="line2d_159">
      <g>
       <use style="stroke:#000000;stroke-width:0.5;" x="50.3636942763" xlink:href="#m8fbc38bd35" y="87.7253996403"/>
      </g>
     </g>
     <g id="line2d_160">
      <g>
       <use style="stroke:#000000;stroke-width:0.5;" x="411.069918324" xlink:href="#mc3fca14d6d" y="87.7253996403"/>
      </g>
     </g>
    </g>
    <g id="ytick_31">
     <g id="line2d_161">
      <g>
       <use style="stroke:#000000;stroke-width:0.5;" x="50.3636942763" xlink:href="#m8fbc38bd35" y="75.5529748454"/>
      </g>
     </g>
     <g id="line2d_162">
      <g>
       <use style="stroke:#000000;stroke-width:0.5;" x="411.069918324" xlink:href="#mc3fca14d6d" y="75.5529748454"/>
      </g>
     </g>
    </g>
    <g id="ytick_32">
     <g id="line2d_163">
      <g>
       <use style="stroke:#000000;stroke-width:0.5;" x="50.3636942763" xlink:href="#m8fbc38bd35" y="66.9165020103"/>
      </g>
     </g>
     <g id="line2d_164">
      <g>
       <use style="stroke:#000000;stroke-width:0.5;" x="411.069918324" xlink:href="#mc3fca14d6d" y="66.9165020103"/>
      </g>
     </g>
    </g>
    <g id="ytick_33">
     <g id="line2d_165">
      <g>
       <use style="stroke:#000000;stroke-width:0.5;" x="50.3636942763" xlink:href="#m8fbc38bd35" y="60.2175332396"/>
      </g>
     </g>
     <g id="line2d_166">
      <g>
       <use style="stroke:#000000;stroke-width:0.5;" x="411.069918324" xlink:href="#mc3fca14d6d" y="60.2175332396"/>
      </g>
     </g>
    </g>
    <g id="ytick_34">
     <g id="line2d_167">
      <g>
       <use style="stroke:#000000;stroke-width:0.5;" x="50.3636942763" xlink:href="#m8fbc38bd35" y="54.7440772154"/>
      </g>
     </g>
     <g id="line2d_168">
      <g>
       <use style="stroke:#000000;stroke-width:0.5;" x="411.069918324" xlink:href="#mc3fca14d6d" y="54.7440772154"/>
      </g>
     </g>
    </g>
    <g id="ytick_35">
     <g id="line2d_169">
      <g>
       <use style="stroke:#000000;stroke-width:0.5;" x="50.3636942763" xlink:href="#m8fbc38bd35" y="50.1163360862"/>
      </g>
     </g>
     <g id="line2d_170">
      <g>
       <use style="stroke:#000000;stroke-width:0.5;" x="411.069918324" xlink:href="#mc3fca14d6d" y="50.1163360862"/>
      </g>
     </g>
    </g>
    <g id="ytick_36">
     <g id="line2d_171">
      <g>
       <use style="stroke:#000000;stroke-width:0.5;" x="50.3636942763" xlink:href="#m8fbc38bd35" y="46.1076043803"/>
      </g>
     </g>
     <g id="line2d_172">
      <g>
       <use style="stroke:#000000;stroke-width:0.5;" x="411.069918324" xlink:href="#mc3fca14d6d" y="46.1076043803"/>
      </g>
     </g>
    </g>
    <g id="ytick_37">
     <g id="line2d_173">
      <g>
       <use style="stroke:#000000;stroke-width:0.5;" x="50.3636942763" xlink:href="#m8fbc38bd35" y="42.5716524206"/>
      </g>
     </g>
     <g id="line2d_174">
      <g>
       <use style="stroke:#000000;stroke-width:0.5;" x="411.069918324" xlink:href="#mc3fca14d6d" y="42.5716524206"/>
      </g>
     </g>
    </g>
    <g id="text_13">
     <!-- $N^2 / T_e$ ($\times 10^6$) -->
     <defs>
      <path d="M 17.90625 23.109375 
C 20.59375 23.109375 27.40625 23.109375 32.203125 24.921875 
C 39.796875 27.859375 40.5 33.71875 40.5 35.53125 
C 40.5 39.96875 36.703125 44 30.09375 44 
C 19.59375 44 4.5 34.53125 4.5 16.765625 
C 4.5 6.28125 10.5 -1 19.59375 -1 
C 33.203125 -1 41.796875 9.515625 41.796875 10.8125 
C 41.796875 11.40625 41.203125 11.90625 40.796875 11.90625 
C 40.5 11.90625 40.40625 11.8125 39.5 10.921875 
C 33.09375 2.484375 23.59375 1 19.796875 1 
C 14.09375 1 11.09375 5.46875 11.09375 12.84375 
C 11.09375 14.234375 11.09375 16.734375 12.59375 23.109375 
z
M 13.09375 25 
C 17.40625 40.5 26.90625 42.015625 30.09375 42.015625 
C 34.5 42.015625 37.5 39.40625 37.5 35.578125 
C 37.5 25 21.5 25 17.296875 25 
z
" id="CMMI12-101"/>
      <path d="M 41.703125 61.09375 
C 42.296875 63.5 42.5 64.390625 44 64.796875 
C 44.796875 65 48.09375 65 50.203125 65 
C 60.203125 65 64.90625 64.59375 64.90625 56.78125 
C 64.90625 55.265625 64.5 51.484375 63.90625 47.765625 
L 63.796875 46.5625 
C 63.796875 46.15625 64.203125 45.5625 64.796875 45.5625 
C 65.796875 45.5625 65.796875 46.0625 66.09375 47.65625 
L 69 65.375 
C 69.203125 66.296875 69.203125 66.5 69.203125 66.796875 
C 69.203125 67.890625 68.59375 67.890625 66.59375 67.890625 
L 11.90625 67.890625 
C 9.59375 67.890625 9.5 67.796875 8.90625 66 
L 2.796875 47.96875 
C 2.703125 47.75 2.40625 46.65625 2.40625 46.5625 
C 2.40625 46.0625 2.796875 45.5625 3.40625 45.5625 
C 4.203125 45.5625 4.40625 45.953125 4.796875 47.25 
C 9 59.390625 11.09375 65 24.40625 65 
L 31.09375 65 
C 33.5 65 34.5 65 34.5 63.890625 
C 34.5 63.578125 34.5 63.390625 34 61.578125 
L 20.59375 7.796875 
C 19.59375 3.890625 19.40625 2.890625 8.796875 2.890625 
C 6.296875 2.890625 5.59375 2.890625 5.59375 1 
C 5.59375 0 6.703125 0 7.203125 0 
C 9.703125 0 12.296875 0 14.796875 0 
L 30.40625 0 
C 32.90625 0 35.59375 0 38.09375 0 
C 39.203125 0 40.203125 0 40.203125 1.890625 
C 40.203125 2.890625 39.5 2.890625 36.90625 2.890625 
C 27.90625 2.890625 27.90625 3.796875 27.90625 5.296875 
C 27.90625 5.40625 27.90625 6.109375 28.296875 7.71875 
z
" id="CMMI12-84"/>
      <path d="M 42.90625 71.28125 
C 42.90625 71.390625 43.5 72.90625 43.5 73.09375 
C 43.5 74.296875 42.5 75 41.703125 75 
C 41.203125 75 40.296875 75 39.5 72.796875 
L 6 -21.296875 
C 6 -21.40625 5.40625 -22.890625 5.40625 -23.09375 
C 5.40625 -24.296875 6.40625 -25 7.203125 -25 
C 7.796875 -25 8.703125 -24.890625 9.40625 -22.796875 
z
" id="CMMI12-61"/>
      <path d="M 23.59375 73 
C 13.59375 59.84375 7.296875 41.5625 7.296875 25.796875 
C 7.296875 9.9375 13.59375 -8.34375 23.59375 -21.5 
L 29.09375 -21.5 
C 20.296875 -7.140625 15.40625 9.734375 15.40625 25.796875 
C 15.40625 41.765625 20.296875 58.734375 29.09375 73 
z
" id="Nimbus_Sans_L_Regular-40"/>
      <path d="M 38.90625 27.890625 
L 18.90625 47.796875 
C 17.703125 49 17.5 49.1875 16.703125 49.1875 
C 15.703125 49.1875 14.703125 48.296875 14.703125 47.1875 
C 14.703125 46.5 14.90625 46.296875 16 45.1875 
L 36 25.09375 
L 16 5 
C 14.90625 3.890625 14.703125 3.6875 14.703125 3 
C 14.703125 1.890625 15.703125 1 16.703125 1 
C 17.5 1 17.703125 1.1875 18.90625 2.390625 
L 38.796875 22.296875 
L 59.5 1.59375 
C 59.703125 1.5 60.40625 1 61 1 
C 62.203125 1 63 1.890625 63 3 
C 63 3.1875 63 3.59375 62.703125 4.09375 
C 62.59375 4.296875 46.703125 20 41.703125 25.09375 
L 60 43.390625 
C 60.5 44 62 45.296875 62.5 45.890625 
C 62.59375 46.09375 63 46.5 63 47.1875 
C 63 48.296875 62.203125 49.1875 61 49.1875 
C 60.203125 49.1875 59.796875 48.796875 58.703125 47.6875 
z
" id="CMSY10-2"/>
      <path d="M 10.59375 34 
C 10.59375 57.65625 21.796875 63 28.296875 63 
C 30.40625 63 35.5 62.640625 37.5 59 
C 35.90625 59 32.90625 59 32.90625 55.515625 
C 32.90625 52.828125 35.09375 51.921875 36.5 51.921875 
C 37.40625 51.921875 40.09375 52.3125 40.09375 55.625 
C 40.09375 61.78125 35.09375 65.296875 28.203125 65.296875 
C 16.296875 65.296875 3.796875 52.96875 3.796875 31 
C 3.796875 3.953125 15.09375 -2 23.09375 -2 
C 32.796875 -2 42 6.671875 42 20.046875 
C 42 32.515625 33.90625 41.59375 23.703125 41.59375 
C 17.59375 41.59375 13.09375 37.609375 10.59375 30.625 
z
M 23.09375 0.390625 
C 10.796875 0.390625 10.796875 18.75 10.796875 22.4375 
C 10.796875 29.625 14.203125 40 23.5 40 
C 25.203125 40 30.09375 40 33.40625 33.125 
C 35.203125 29.21875 35.203125 25.140625 35.203125 20.140625 
C 35.203125 14.75 35.203125 10.78125 33.09375 6.78125 
C 30.90625 2.671875 27.703125 0.390625 23.09375 0.390625 
" id="CMR17-54"/>
      <path d="M 9.296875 -21.5 
C 19.296875 -8.34375 25.59375 9.9375 25.59375 25.6875 
C 25.59375 41.5625 19.296875 59.84375 9.296875 73 
L 3.796875 73 
C 12.59375 58.640625 17.5 41.765625 17.5 25.6875 
C 17.5 9.734375 12.59375 -7.25 3.796875 -21.5 
z
" id="Nimbus_Sans_L_Regular-41"/>
     </defs>
     <g transform="translate(22.8771563667 212.418803936)rotate(-90.0)scale(0.12 -0.12)">
      <use transform="translate(0.0 14.9439145441)scale(0.996264009963)" xlink:href="#CMMI12-78"/>
      <use transform="translate(88.5217726008 51.097553486)scale(0.697381766617)" xlink:href="#CMR17-50"/>
      <use transform="translate(121.00308657 14.9439145441)scale(0.996264009963)" xlink:href="#CMMI12-61"/>
      <use transform="translate(169.778005332 14.9439145441)scale(0.996264009963)" xlink:href="#CMMI12-84"/>
      <use transform="translate(226.953048991 0.0)scale(0.697381766617)" xlink:href="#CMMI12-101"/>
      <use transform="translate(286.794606894 14.9439145441)scale(0.996264009963)" xlink:href="#Nimbus_Sans_L_Regular-40"/>
      <use transform="translate(319.969836623 14.9439145441)scale(0.996264009963)" xlink:href="#CMSY10-2"/>
      <use transform="translate(397.457304274 14.9439145441)scale(0.996264009963)" xlink:href="#CMR17-49"/>
      <use transform="translate(443.147781391 14.9439145441)scale(0.996264009963)" xlink:href="#CMR17-48"/>
      <use transform="translate(488.838258508 51.097553486)scale(0.697381766617)" xlink:href="#CMR17-54"/>
      <use transform="translate(521.319572477 14.9439145441)scale(0.996264009963)" xlink:href="#Nimbus_Sans_L_Regular-41"/>
     </g>
    </g>
   </g>
   <g id="text_14">
    <!-- $a^{n+1}_i = \sum_{|\mathbf{dx}^n_{ij}|&lt;r} \frac{r-|\mathbf{dx}^n_{ij}|}{|\mathbf{dx}^n_{ij}|}\mathbf{dx}^n_{ij}$ -->
    <defs>
     <path d="M 65.90625 23 
C 67.59375 23 69.40625 23 69.40625 25 
C 69.40625 27 67.59375 27 65.90625 27 
L 11.796875 27 
C 10.09375 27 8.296875 27 8.296875 25 
C 8.296875 23 10.09375 23 11.796875 23 
z
" id="CMSY10-0"/>
     <path d="M 65.90625 48.5 
C 67.703125 49.296875 67.90625 50 67.90625 50.59375 
C 67.90625 51.703125 67.09375 52.5 66 52.5 
C 65.796875 52.5 65.703125 52.390625 64.296875 51.796875 
L 10.203125 26.859375 
C 8.40625 26.046875 8.203125 25.34375 8.203125 24.75 
C 8.203125 24.046875 8.296875 23.453125 10.203125 22.53125 
L 64.296875 -2.40625 
C 65.59375 -3 65.796875 -3 66 -3 
C 67.09375 -3 67.90625 -2.203125 67.90625 -1.09375 
C 67.90625 -0.5 67.703125 0.203125 65.90625 1 
L 14.40625 24.703125 
z
" id="CMMI12-60"/>
     <path d="M 30.09375 11.875 
C 29.59375 10.171875 29.59375 9.984375 28.203125 8.078125 
C 26 5.28125 21.59375 1 16.90625 1 
C 12.796875 1 10.5 4.6875 10.5 10.578125 
C 10.5 16.0625 13.59375 27.234375 15.5 31.4375 
C 18.90625 38.421875 23.59375 42.015625 27.5 42.015625 
C 34.09375 42.015625 35.40625 33.828125 35.40625 33.03125 
C 35.40625 32.9375 35.09375 31.625 35 31.4375 
z
M 36.5 37.421875 
C 35.40625 40.015625 32.703125 44 27.5 44 
C 16.203125 44 4 29.4375 4 14.671875 
C 4 4.796875 9.796875 -1 16.59375 -1 
C 22.09375 -1 26.796875 3.296875 29.59375 6.59375 
C 30.59375 0.703125 35.296875 -1 38.296875 -1 
C 41.296875 -1 43.703125 0.796875 45.5 4.390625 
C 47.09375 7.78125 48.5 13.875 48.5 14.265625 
C 48.5 14.765625 48.09375 15.171875 47.5 15.171875 
C 46.59375 15.171875 46.5 14.671875 46.09375 13.171875 
C 44.59375 7.28125 42.703125 1 38.59375 1 
C 35.703125 1 35.5 3.59375 35.5 5.59375 
C 35.5 7.890625 35.796875 8.984375 36.703125 12.875 
C 37.40625 15.375 37.90625 17.5625 38.703125 20.453125 
C 42.40625 35.421875 43.296875 39.015625 43.296875 39.609375 
C 43.296875 41.015625 42.203125 42.109375 40.703125 42.109375 
C 37.5 42.109375 36.703125 38.625 36.5 37.421875 
" id="CMMI12-97"/>
     <path d="M 28.296875 14.265625 
C 28.296875 14.765625 27.90625 15.171875 27.296875 15.171875 
C 26.40625 15.171875 26.296875 14.875 25.796875 13.171875 
C 23.203125 4.09375 19.09375 1 15.796875 1 
C 14.59375 1 13.203125 1.296875 13.203125 4.296875 
C 13.203125 6.984375 14.40625 9.984375 15.5 12.96875 
L 22.5 31.53125 
C 22.796875 32.328125 23.5 34.125 23.5 36.015625 
C 23.5 40.21875 20.5 44 15.59375 44 
C 6.40625 44 2.703125 29.53125 2.703125 28.734375 
C 2.703125 28.34375 3.09375 27.84375 3.796875 27.84375 
C 4.703125 27.84375 4.796875 28.234375 5.203125 29.625 
C 7.59375 37.9375 11.40625 41.90625 15.296875 41.90625 
C 16.203125 41.90625 17.90625 41.90625 17.90625 38.71875 
C 17.90625 36.125 16.59375 32.828125 15.796875 30.640625 
L 8.796875 12.078125 
C 8.203125 10.484375 7.59375 8.875 7.59375 7.078125 
C 7.59375 2.59375 10.703125 -1 15.5 -1 
C 24.703125 -1 28.296875 13.578125 28.296875 14.265625 
M 27.5 62.703125 
C 27.5 64.203125 26.296875 66 24.09375 66 
C 21.796875 66 19.203125 63.796875 19.203125 61.203125 
C 19.203125 58.71875 21.296875 57.921875 22.5 57.921875 
C 25.203125 57.921875 27.5 60.515625 27.5 62.703125 
" id="CMMI12-105"/>
     <path d="M 64.296875 31.515625 
C 65.796875 31.515625 67.296875 31.515625 67.296875 33.203125 
C 67.296875 35 65.59375 35 63.90625 35 
L 8 35 
C 6.296875 35 4.59375 35 4.59375 33.203125 
C 4.59375 31.515625 6.09375 31.515625 7.59375 31.515625 
z
M 63.90625 14 
C 65.59375 14 67.296875 14 67.296875 15.796875 
C 67.296875 17.484375 65.796875 17.484375 64.296875 17.484375 
L 7.59375 17.484375 
C 6.09375 17.484375 4.59375 17.484375 4.59375 15.796875 
C 4.59375 14 6.296875 14 8 14 
z
" id="CMR17-61"/>
     <path d="M 34.703125 69 
L 34.703125 64.328125 
C 40.90625 64.328125 41.59375 64.328125 41.59375 60.421875 
L 41.59375 40.234375 
C 39.40625 42.125 35 45 28.09375 45 
C 13.90625 45 3.796875 36.21875 3.796875 22.25 
C 3.796875 7.96875 13.703125 -0.5 27 -0.5 
C 32.5 -0.5 37.203125 1.46875 41.09375 4.859375 
L 41.09375 0 
L 58.90625 0 
L 58.90625 4.5625 
C 52.703125 4.5625 52 4.5625 52 8.4375 
L 52 69 
z
M 41.09375 10.328125 
C 36.90625 4.09375 31.796875 2.78125 28.203125 2.78125 
C 15.796875 2.78125 15.796875 15.453125 15.796875 22.046875 
C 15.796875 26.75 15.796875 31.75 18 35.53125 
C 21.09375 41.125 27 41.71875 29.296875 41.71875 
C 33.40625 41.71875 37.796875 39.9375 41.09375 35.5625 
z
" id="CMBX12-100"/>
     <path d="M 20.59375 29.234375 
C 20.796875 29.84375 23.296875 34.828125 27 38.015625 
C 29.59375 40.40625 33 42.015625 36.90625 42.015625 
C 40.90625 42.015625 42.296875 39.015625 42.296875 35.03125 
C 42.296875 29.34375 38.203125 17.96875 36.203125 12.578125 
C 35.296875 10.171875 34.796875 8.875 34.796875 7.078125 
C 34.796875 2.59375 37.90625 -1 42.703125 -1 
C 52 -1 55.5 13.671875 55.5 14.265625 
C 55.5 14.765625 55.09375 15.171875 54.5 15.171875 
C 53.59375 15.171875 53.5 14.875 53 13.171875 
C 50.703125 4.984375 46.90625 1 43 1 
C 42 1 40.40625 1 40.40625 4.203125 
C 40.40625 6.703125 41.5 9.703125 42.09375 11.09375 
C 44.09375 16.609375 48.296875 27.8125 48.296875 33.515625 
C 48.296875 39.5 44.796875 44 37.203125 44 
C 28.296875 44 23.59375 37.734375 21.796875 35.234375 
C 21.5 40.90625 17.40625 44 13 44 
C 9.796875 44 7.59375 42.109375 5.90625 38.71875 
C 4.09375 35.125 2.703125 29.140625 2.703125 28.734375 
C 2.703125 28.34375 3.09375 27.84375 3.796875 27.84375 
C 4.59375 27.84375 4.703125 27.9375 5.296875 30.234375 
C 6.90625 36.328125 8.703125 42.015625 12.703125 42.015625 
C 15 42.015625 15.796875 40.40625 15.796875 37.421875 
C 15.796875 35.21875 14.796875 31.328125 14.09375 28.234375 
L 11.296875 17.46875 
C 10.90625 15.5625 9.796875 11.078125 9.296875 9.28125 
C 8.59375 6.6875 7.5 2 7.5 1.5 
C 7.5 0.09375 8.59375 -1 10.09375 -1 
C 11.296875 -1 12.703125 -0.40625 13.5 1.09375 
C 13.703125 1.59375 14.59375 5.09375 15.09375 7.078125 
L 17.296875 16.0625 
z
" id="CMMI12-110"/>
     <path d="M 15.90625 71.40625 
C 15.90625 73.203125 15.90625 75 13.90625 75 
C 11.90625 75 11.90625 73.203125 11.90625 71.40625 
L 11.90625 -21.40625 
C 11.90625 -23.203125 11.90625 -25 13.90625 -25 
C 15.90625 -25 15.90625 -23.203125 15.90625 -21.40625 
z
" id="CMSY10-106"/>
     <path d="M 37.703125 23 
L 64.203125 23 
C 65.59375 23 67.296875 23 67.296875 24.6875 
C 67.296875 26.484375 65.703125 26.484375 64.203125 26.484375 
L 37.703125 26.484375 
L 37.703125 52.90625 
C 37.703125 54.296875 37.703125 56 36 56 
C 34.203125 56 34.203125 54.40625 34.203125 52.90625 
L 34.203125 26.484375 
L 7.703125 26.484375 
C 6.296875 26.484375 4.59375 26.484375 4.59375 24.796875 
C 4.59375 23 6.203125 23 7.703125 23 
L 34.203125 23 
L 34.203125 -3.40625 
C 34.203125 -4.796875 34.203125 -6.5 35.90625 -6.5 
C 37.703125 -6.5 37.703125 -4.90625 37.703125 -3.40625 
z
" id="CMR17-43"/>
     <path d="M 33.703125 24.484375 
L 45.296875 37.734375 
C 46.40625 39.03125 47.296875 39.828125 55.59375 39.828125 
L 55.59375 44 
C 50 44 49.796875 44 46.40625 44 
C 43.5 44 39.203125 44 36.40625 44.09375 
L 36.40625 39.828125 
C 38.296875 39.828125 40.40625 39.328125 40.40625 38.625 
C 40.40625 38.4375 39.90625 37.734375 39.703125 37.53125 
L 31 27.78125 
L 21.09375 39.828125 
L 25.296875 39.828125 
L 25.296875 44.09375 
C 23 44 16.203125 44 13.5 44 
C 10.5 44 5.09375 44 2.296875 44.09375 
L 2.296875 39.828125 
L 9.40625 39.828125 
L 25 20.90625 
L 12 6.265625 
C 10.796875 4.875 10.09375 4.171875 1.796875 4.171875 
L 1.796875 0 
C 7.796875 0 8 0 11.09375 0 
C 14 0 18.203125 0 21 -0.09375 
L 21 4.171875 
C 19.09375 4.171875 17 4.671875 17 5.375 
C 17 5.46875 17 5.5625 17.703125 6.359375 
L 27.703125 17.625 
L 38.796875 4.171875 
L 34.59375 4.171875 
L 34.59375 -0.09375 
C 37 0 43.703125 0 46.5 0 
C 49.5 0 54.796875 0 57.59375 -0.09375 
L 57.59375 4.171875 
L 50.59375 4.171875 
z
" id="CMBX12-120"/>
     <path d="M 38.90625 40.8125 
C 35.796875 40.21875 34.203125 38.015625 34.203125 35.828125 
C 34.203125 33.421875 36.09375 32.625 37.5 32.625 
C 40.296875 32.625 42.59375 35.03125 42.59375 38.015625 
C 42.59375 41.21875 39.5 44 34.5 44 
C 30.5 44 25.90625 42.203125 21.703125 36.125 
C 21 41.40625 17 44 13 44 
C 9.09375 44 7.09375 41.015625 5.90625 38.8125 
C 4.203125 35.21875 2.703125 29.234375 2.703125 28.734375 
C 2.703125 28.34375 3.09375 27.84375 3.796875 27.84375 
C 4.59375 27.84375 4.703125 27.9375 5.296875 30.234375 
C 6.796875 36.21875 8.703125 42.015625 12.703125 42.015625 
C 15.09375 42.015625 15.796875 40.3125 15.796875 37.421875 
C 15.796875 35.21875 14.796875 31.328125 14.09375 28.234375 
L 11.296875 17.46875 
C 10.90625 15.5625 9.796875 11.078125 9.296875 9.28125 
C 8.59375 6.6875 7.5 2 7.5 1.5 
C 7.5 0.09375 8.59375 -1 10.09375 -1 
C 11.203125 -1 13.09375 -0.296875 13.703125 1.703125 
C 14 2.5 17.703125 17.5625 18.296875 19.859375 
C 18.796875 22.046875 19.40625 24.15625 19.90625 26.34375 
C 20.296875 27.734375 20.703125 29.34375 21 30.640625 
C 21.296875 31.53125 24 36.421875 26.5 38.625 
C 27.703125 39.71875 30.296875 42.015625 34.40625 42.015625 
C 36 42.015625 37.59375 41.71875 38.90625 40.8125 
" id="CMMI12-114"/>
     <path d="M 42.09375 -53.40625 
L 6.59375 -97.296875 
C 5.796875 -98.296875 5.703125 -98.5 5.703125 -98.90625 
C 5.703125 -100 6.59375 -100 8.40625 -100 
L 91.296875 -100 
L 99.90625 -75.09375 
L 97.40625 -75.09375 
C 94.90625 -82.59375 88.203125 -88.703125 79.703125 -91.59375 
C 78.09375 -92.09375 71.203125 -94.5 56.5 -94.5 
L 14 -94.5 
L 48.703125 -51.59375 
C 49.40625 -50.703125 49.59375 -50.40625 49.59375 -50 
C 49.59375 -49.59375 49.5 -49.5 48.90625 -48.59375 
L 16.40625 -4 
L 56 -4 
C 67.40625 -4 90.40625 -4.703125 97.40625 -23.40625 
L 99.90625 -23.40625 
L 91.296875 0 
L 8.40625 0 
C 5.703125 0 5.59375 -0.09375 5.59375 -3.203125 
z
" id="CMEX10-80"/>
     <path d="M 35 31.6875 
C 35.40625 33.296875 35.40625 34.671875 35.40625 35.078125 
C 35.40625 40.828125 31.09375 44 26.59375 44 
C 16.5 44 11.09375 29.515625 11.09375 28.828125 
C 11.09375 28.328125 11.5 27.9375 12.09375 27.9375 
C 12.90625 27.9375 13 28.328125 13.5 29.3125 
C 17.5 38.9375 22.5 42.015625 26.296875 42.015625 
C 28.40625 42.015625 29.5 40.90625 29.5 37.453125 
C 29.5 35.078125 29.203125 34.078125 28.796875 32.296875 
L 19.296875 -5.109375 
C 17.40625 -12.4375 12.703125 -18 7.203125 -18 
C 6.796875 -18 4.703125 -18 2.796875 -17 
C 5.203125 -16.5 7.09375 -14.625 7.09375 -12.25 
C 7.09375 -10.65625 5.90625 -9.0625 3.703125 -9.0625 
C 1.09375 -9.0625 -1.296875 -11.25 -1.296875 -14.234375 
C -1.296875 -18.296875 3.09375 -20 7.203125 -20 
C 14.09375 -20 23.203125 -14.9375 25.703125 -5 
z
M 39.09375 62.703125 
C 39.09375 65.203125 37 66 35.796875 66 
C 33.09375 66 30.796875 63.40625 30.796875 61.203125 
C 30.796875 59.71875 32 57.921875 34.203125 57.921875 
C 36.5 57.921875 39.09375 60.109375 39.09375 62.703125 
" id="CMMI12-106"/>
    </defs>
    <g transform="translate(147.773327743 34.4086356096)scale(0.144 -0.144)">
     <use transform="translate(0.0 51.5957158945)scale(0.996264009963)" xlink:href="#CMMI12-97"/>
     <use transform="translate(51.2078576189 90.339434518)scale(0.697381766617)" xlink:href="#CMMI12-110"/>
     <use transform="translate(91.9687007462 90.339434518)scale(0.697381766617)" xlink:href="#CMR17-43"/>
     <use transform="translate(142.168832211 90.339434518)scale(0.697381766617)" xlink:href="#CMR17-49"/>
     <use transform="translate(51.2078576189 24.2519962981)scale(0.697381766617)" xlink:href="#CMMI12-105"/>
     <use transform="translate(202.324154903 51.5957158945)scale(0.996264009963)" xlink:href="#CMR17-61"/>
     <use transform="translate(301.71295204 126.316170318)scale(0.996264009963)" xlink:href="#CMEX10-80"/>
     <use transform="translate(406.874504422 23.2015379339)scale(0.697381766617)" xlink:href="#CMSY10-106"/>
     <use transform="translate(426.246272523 23.2015379339)scale(0.697381766617)" xlink:href="#CMBX12-100"/>
     <use transform="translate(469.832625336 23.2015379339)scale(0.697381766617)" xlink:href="#CMBX12-120"/>
     <use transform="translate(511.239665828 52.3974730989)scale(0.498132004981)" xlink:href="#CMMI12-110"/>
     <use transform="translate(511.239665828 5.96107492411)scale(0.498132004981)" xlink:href="#CMMI12-105"/>
     <use transform="translate(527.878959152 5.96107492411)scale(0.498132004981)" xlink:href="#CMMI12-106"/>
     <use transform="translate(551.358324861 23.2015379339)scale(0.697381766617)" xlink:href="#CMSY10-106"/>
     <use transform="translate(570.730092962 23.2015379339)scale(0.697381766617)" xlink:href="#CMMI12-60"/>
     <use transform="translate(623.840316829 23.2015379339)scale(0.697381766617)" xlink:href="#CMMI12-114"/>
     <use transform="translate(674.807636646 109.406072443)scale(0.697381766617)" xlink:href="#CMMI12-114"/>
     <use transform="translate(707.476905452 109.406072443)scale(0.697381766617)" xlink:href="#CMSY10-0"/>
     <use transform="translate(761.7178987 109.406072443)scale(0.697381766617)" xlink:href="#CMSY10-106"/>
     <use transform="translate(781.089666801 109.406072443)scale(0.697381766617)" xlink:href="#CMBX12-100"/>
     <use transform="translate(824.676019614 109.406072443)scale(0.697381766617)" xlink:href="#CMBX12-120"/>
     <use transform="translate(866.083060107 138.602007608)scale(0.498132004981)" xlink:href="#CMMI12-110"/>
     <use transform="translate(866.083060107 92.1656094334)scale(0.498132004981)" xlink:href="#CMMI12-105"/>
     <use transform="translate(882.72235343 92.1656094334)scale(0.498132004981)" xlink:href="#CMMI12-106"/>
     <use transform="translate(906.201719139 109.406072443)scale(0.697381766617)" xlink:href="#CMSY10-106"/>
     <use transform="translate(718.262767673 17.2404630098)scale(0.697381766617)" xlink:href="#CMSY10-106"/>
     <use transform="translate(737.634535774 17.2404630098)scale(0.697381766617)" xlink:href="#CMBX12-100"/>
     <use transform="translate(781.220888587 17.2404630098)scale(0.697381766617)" xlink:href="#CMBX12-120"/>
     <use transform="translate(822.627929079 46.4363981748)scale(0.498132004981)" xlink:href="#CMMI12-110"/>
     <use transform="translate(822.627929079 0.0)scale(0.498132004981)" xlink:href="#CMMI12-105"/>
     <use transform="translate(839.267222403 0.0)scale(0.498132004981)" xlink:href="#CMMI12-106"/>
     <use transform="translate(862.746588112 17.2404630098)scale(0.697381766617)" xlink:href="#CMSY10-106"/>
     <use transform="translate(926.769001012 51.5957158945)scale(0.996264009963)" xlink:href="#CMBX12-100"/>
     <use transform="translate(989.035501634 51.5957158945)scale(0.996264009963)" xlink:href="#CMBX12-120"/>
     <use transform="translate(1048.18867723 93.8541474111)scale(0.697381766617)" xlink:href="#CMMI12-110"/>
     <use transform="translate(1048.18867723 26.9663657525)scale(0.697381766617)" xlink:href="#CMMI12-105"/>
     <use transform="translate(1071.48358451 26.9663657525)scale(0.697381766617)" xlink:href="#CMMI12-106"/>
     <path d="M 674.807637 74.509849 
L 925.573487 74.509849 
L 925.573487 78.494799 
L 674.807637 78.494799 
L 674.807637 74.509849 
z
"/>
    </g>
   </g>
   <g id="legend_1">
    <g id="patch_7">
     <path d="M 60.443694 173.791965 
L 246.885141 173.791965 
Q 249.765141 173.791965 249.765141 170.911965 
L 249.765141 49.488636 
Q 249.765141 46.608636 246.885141 46.608636 
L 60.443694 46.608636 
Q 57.563694 46.608636 57.563694 49.488636 
L 57.563694 170.911965 
Q 57.563694 173.791965 60.443694 173.791965 
z
" style="fill:#ffffff;opacity:0.3;stroke:#000000;stroke-linejoin:miter;"/>
    </g>
    <g id="line2d_175">
     <path d="M 67.643694 57.550208 
L 87.803694 57.550208 
" style="fill:none;stroke:#000000;stroke-dasharray:6.000000,6.000000;stroke-dashoffset:0.0;"/>
    </g>
    <g id="line2d_176"/>
    <g id="text_15">
     <!-- std::vector + Gromacs  -->
     <defs>
      <path d="M 21.40625 10.421875 
L 11 10.421875 
L 11 0 
L 21.40625 0 
z
M 21.40625 52.40625 
L 11 52.40625 
L 11 42 
L 21.40625 42 
z
" id="Nimbus_Sans_L_Regular-58"/>
      <path d="M 53.5 5.203125 
C 52.59375 5 52.203125 5 51.703125 5 
C 48.796875 5 47.203125 6.484375 47.203125 9.078125 
L 47.203125 39.765625 
C 47.203125 49.015625 40.40625 54 27.5 54 
C 19.90625 54 13.59375 51.8125 10.09375 47.90625 
C 7.703125 45.203125 6.703125 42.21875 6.5 37.03125 
L 14.90625 37.03125 
C 15.59375 43.390625 19.40625 46.28125 27.203125 46.28125 
C 34.703125 46.28125 38.90625 43.484375 38.90625 38.515625 
L 38.90625 36.328125 
C 38.90625 32.828125 36.796875 31.34375 30.203125 30.546875 
C 18.40625 29.0625 16.59375 28.65625 13.40625 27.359375 
C 7.296875 24.875 4.203125 20.1875 4.203125 13.421875 
C 4.203125 3.96875 10.796875 -2 21.40625 -2 
C 28 -2 33.296875 0.296875 39.203125 5.703125 
C 39.796875 0.390625 42.40625 -2 47.796875 -2 
C 49.5 -2 50.796875 -1.8125 53.5 -1.09375 
z
M 38.90625 16.75 
C 38.90625 13.953125 38.09375 12.265625 35.59375 9.984375 
C 32.203125 6.890625 28.09375 5.3125 23.203125 5.3125 
C 16.703125 5.3125 12.90625 8.390625 12.90625 13.65625 
C 12.90625 19.140625 16.59375 21.921875 25.5 23.21875 
C 34.296875 24.40625 36.09375 24.8125 38.90625 26.09375 
z
" id="Nimbus_Sans_L_Regular-97"/>
      <path d="M 53.40625 27 
L 32.703125 27 
L 32.703125 47.484375 
L 25.703125 47.484375 
L 25.703125 27 
L 5 27 
L 5 19.984375 
L 25.703125 19.984375 
L 25.703125 -1 
L 32.703125 -1 
L 32.703125 19.984375 
L 53.40625 19.984375 
z
" id="Nimbus_Sans_L_Regular-43"/>
      <path d="M 25.40625 52.8125 
L 16.796875 52.8125 
L 16.796875 67 
L 8.5 67 
L 8.5 52.8125 
L 1.40625 52.8125 
L 1.40625 46 
L 8.5 46 
L 8.5 6.3125 
C 8.5 1 12.09375 -2 18.59375 -2 
C 20.59375 -2 22.59375 -1.8125 25.40625 -1.296875 
L 25.40625 5.71875 
C 24.296875 5.40625 23 5.3125 21.40625 5.3125 
C 17.796875 5.3125 16.796875 6.3125 16.796875 10.015625 
L 16.796875 46 
L 25.40625 46 
z
" id="Nimbus_Sans_L_Regular-116"/>
      <path d="M 28.5 0 
L 48.59375 52.5 
L 39.203125 52.5 
L 24.40625 9.921875 
L 10.40625 52.5 
L 1 52.5 
L 19.40625 0 
z
" id="Nimbus_Sans_L_Regular-118"/>
      <path d="M 70.90625 39 
L 40.5 39 
L 40.5 30.796875 
L 62.703125 30.796875 
L 62.703125 28.765625 
C 62.703125 15.671875 53.09375 6.203125 39.796875 6.203125 
C 32.40625 6.203125 25.703125 8.890625 21.40625 13.59375 
C 16.59375 18.765625 13.703125 27.4375 13.703125 36.40625 
C 13.703125 54.234375 23.90625 66 39.296875 66 
C 50.40625 66 58.40625 60.375 60.40625 51.125 
L 69.90625 51.125 
C 67.296875 65.796875 56.09375 74.21875 39.40625 74.21875 
C 30.5 74.21875 23.296875 71.921875 17.59375 67.234375 
C 9.203125 60.25 4.40625 48.984375 4.40625 35.90625 
C 4.40625 13.5625 18.09375 -2 37.796875 -2 
C 47.703125 -2 55.59375 1.703125 62.703125 9.625 
L 65 -0.109375 
L 70.90625 -0.109375 
z
" id="Nimbus_Sans_L_Regular-71"/>
      <path d="M 7 52.484375 
L 7 0 
L 15.40625 0 
L 15.40625 32.953125 
C 15.40625 40.578125 20.90625 46.6875 27.703125 46.6875 
C 33.90625 46.6875 37.40625 42.875 37.40625 36.15625 
L 37.40625 0 
L 45.796875 0 
L 45.796875 32.953125 
C 45.796875 40.578125 51.296875 46.6875 58.09375 46.6875 
C 64.203125 46.6875 67.796875 42.78125 67.796875 36.15625 
L 67.796875 0 
L 76.203125 0 
L 76.203125 39.375 
C 76.203125 48.78125 70.796875 54 61 54 
C 54 54 49.796875 51.890625 44.90625 45.984375 
C 41.796875 51.59375 37.59375 54 30.796875 54 
C 23.796875 54 19.203125 51.390625 14.703125 45.078125 
L 14.703125 52.484375 
z
" id="Nimbus_Sans_L_Regular-109"/>
      <path d="M 47.09375 34.9375 
C 46.703125 40.03125 45.59375 43.328125 43.59375 46.21875 
C 40 51.109375 33.703125 54 26.40625 54 
C 12.296875 54 3.09375 42.84375 3.09375 25.5 
C 3.09375 8.65625 12.09375 -2 26.296875 -2 
C 38.796875 -2 46.703125 5.46875 47.703125 18.234375 
L 39.296875 18.234375 
C 37.90625 9.875 33.59375 5.703125 26.5 5.703125 
C 17.296875 5.703125 11.796875 13.171875 11.796875 25.5 
C 11.796875 38.53125 17.203125 46.28125 26.296875 46.28125 
C 33.296875 46.28125 37.703125 42.203125 38.703125 34.9375 
z
" id="Nimbus_Sans_L_Regular-99"/>
      <path d="M 27.203125 54 
C 12.5 54 3.59375 43.53125 3.59375 25.984375 
C 3.59375 8.453125 12.40625 -2 27.296875 -2 
C 42 -2 51 8.453125 51 25.59375 
C 51 43.625 42.296875 54 27.203125 54 
M 27.296875 46.28125 
C 36.703125 46.28125 42.296875 38.625 42.296875 25.703125 
C 42.296875 13.453125 36.5 5.703125 27.296875 5.703125 
C 18 5.703125 12.296875 13.359375 12.296875 25.984375 
C 12.296875 38.53125 18 46.28125 27.296875 46.28125 
" id="Nimbus_Sans_L_Regular-111"/>
      <path d="M 51.296875 23.890625 
C 51.296875 31.78125 50.703125 36.53125 49.203125 40.375 
C 45.796875 48.859375 37.796875 54 28 54 
C 13.40625 54 4 42.84375 4 25.703125 
C 4 8.546875 13.09375 -2 27.796875 -2 
C 39.796875 -2 48.09375 4.84375 50.203125 16.3125 
L 41.796875 16.3125 
C 39.5 9.34375 34.796875 5.703125 28.09375 5.703125 
C 22.796875 5.703125 18.296875 8.125 15.5 12.578125 
C 13.5 15.59375 12.796875 18.640625 12.703125 23.890625 
z
M 12.90625 31 
C 13.59375 40.265625 19.5 46.28125 27.90625 46.28125 
C 36.09375 46.28125 42.40625 39.53125 42.40625 31 
C 42.40625 31 42.40625 31 42.296875 31 
z
" id="Nimbus_Sans_L_Regular-101"/>
      <path d="M 49.5 73 
L 41.203125 73 
L 41.203125 45.890625 
C 37.703125 51.1875 32.09375 54 25.09375 54 
C 11.5 54 2.59375 43.140625 2.59375 26.484375 
C 2.59375 8.84375 11.296875 -2 25.40625 -2 
C 32.59375 -2 37.59375 0.703125 42.09375 7.203125 
L 42.09375 -0.03125 
L 49.5 -0.03125 
z
M 26.5 46.1875 
C 35.5 46.1875 41.203125 38.234375 41.203125 25.796875 
C 41.203125 13.765625 35.40625 5.8125 26.59375 5.8125 
C 17.40625 5.8125 11.296875 13.859375 11.296875 26 
C 11.296875 38.125 17.40625 46.1875 26.5 46.1875 
" id="Nimbus_Sans_L_Regular-100"/>
      <path d="M 6.90625 52.484375 
L 6.90625 0 
L 15.296875 0 
L 15.296875 27.203125 
C 15.296875 34.703125 17.203125 39.609375 21.203125 42.5 
C 23.796875 44.40625 26.296875 45 32.09375 45 
L 32.09375 53.625 
C 30.703125 53.8125 30 53.8125 28.90625 53.8125 
C 23.5 53.8125 19.40625 50.625 14.59375 42.90625 
L 14.59375 52.484375 
z
" id="Nimbus_Sans_L_Regular-114"/>
      <path d="M 43.796875 37.921875 
C 43.703125 48.203125 36.90625 54 24.796875 54 
C 12.59375 54 4.703125 47.71875 4.703125 38.0625 
C 4.703125 29.890625 8.90625 26.015625 21.296875 23.03125 
L 29.09375 21.140625 
C 34.90625 19.734375 37.203125 17.65625 37.203125 13.875 
C 37.203125 9 32.296875 5.703125 25 5.703125 
C 20.5 5.703125 16.703125 7 14.59375 9.1875 
C 13.296875 10.6875 12.703125 12.171875 12.203125 15.84375 
L 3.40625 15.84375 
C 3.796875 3.765625 10.59375 -2 24.296875 -2 
C 37.5 -2 45.90625 4.453125 45.90625 14.515625 
C 45.90625 22.28125 41.5 26.578125 31.09375 29.0625 
L 23.09375 30.953125 
C 16.296875 32.53125 13.40625 34.734375 13.40625 38.40625 
C 13.40625 43.1875 17.703125 46.28125 24.5 46.28125 
C 31.203125 46.28125 34.796875 43.390625 35 37.921875 
z
" id="Nimbus_Sans_L_Regular-115"/>
     </defs>
     <g transform="translate(103.643694276 62.5902076685)scale(0.144 -0.144)">
      <use transform="scale(0.996264009963)" xlink:href="#Nimbus_Sans_L_Regular-115"/>
      <use transform="translate(49.8132004981 0.0)scale(0.996264009963)" xlink:href="#Nimbus_Sans_L_Regular-116"/>
      <use transform="translate(77.5083701014 0.0)scale(0.996264009963)" xlink:href="#Nimbus_Sans_L_Regular-100"/>
      <use transform="translate(132.900047065 0.0)scale(0.996264009963)" xlink:href="#Nimbus_Sans_L_Regular-58"/>
      <use transform="translate(160.595216668 0.0)scale(0.996264009963)" xlink:href="#Nimbus_Sans_L_Regular-58"/>
      <use transform="translate(188.290386271 0.0)scale(0.996264009963)" xlink:href="#Nimbus_Sans_L_Regular-118"/>
      <use transform="translate(235.612957148 0.0)scale(0.996264009963)" xlink:href="#Nimbus_Sans_L_Regular-101"/>
      <use transform="translate(291.004634111 0.0)scale(0.996264009963)" xlink:href="#Nimbus_Sans_L_Regular-99"/>
      <use transform="translate(340.817834609 0.0)scale(0.996264009963)" xlink:href="#Nimbus_Sans_L_Regular-116"/>
      <use transform="translate(368.513004213 0.0)scale(0.996264009963)" xlink:href="#Nimbus_Sans_L_Regular-111"/>
      <use transform="translate(423.904681176 0.0)scale(0.996264009963)" xlink:href="#Nimbus_Sans_L_Regular-114"/>
      <use transform="translate(484.775080509 0.0)scale(0.996264009963)" xlink:href="#Nimbus_Sans_L_Regular-43"/>
      <use transform="translate(570.651742976 0.0)scale(0.996264009963)" xlink:href="#Nimbus_Sans_L_Regular-71"/>
      <use transform="translate(648.160113077 0.0)scale(0.996264009963)" xlink:href="#Nimbus_Sans_L_Regular-114"/>
      <use transform="translate(681.335342806 0.0)scale(0.996264009963)" xlink:href="#Nimbus_Sans_L_Regular-111"/>
      <use transform="translate(736.72701977 0.0)scale(0.996264009963)" xlink:href="#Nimbus_Sans_L_Regular-109"/>
      <use transform="translate(819.715449997 0.0)scale(0.996264009963)" xlink:href="#Nimbus_Sans_L_Regular-97"/>
      <use transform="translate(875.10712696 0.0)scale(0.996264009963)" xlink:href="#Nimbus_Sans_L_Regular-99"/>
      <use transform="translate(924.920327459 0.0)scale(0.996264009963)" xlink:href="#Nimbus_Sans_L_Regular-115"/>
     </g>
    </g>
    <g id="line2d_177">
     <path d="M 67.643694 78.027429 
L 87.803694 78.027429 
" style="fill:none;stroke:#000000;stroke-linecap:square;"/>
    </g>
    <g id="line2d_178"/>
    <g id="text_16">
     <!-- Aboria -->
     <defs>
      <path d="M 5.40625 73 
L 5.40625 -0.03125 
L 12.90625 -0.03125 
L 12.90625 7 
C 16.90625 0.890625 22.203125 -2 29.5 -2 
C 43.296875 -2 52.296875 9.25 52.296875 26.59375 
C 52.296875 43.53125 43.703125 54 29.90625 54 
C 22.703125 54 17.59375 51.28125 13.703125 45.390625 
L 13.703125 73 
z
M 28.296875 46.1875 
C 37.59375 46.1875 43.59375 38.125 43.59375 25.703125 
C 43.59375 13.859375 37.40625 5.8125 28.296875 5.8125 
C 19.5 5.8125 13.703125 13.765625 13.703125 26 
C 13.703125 38.234375 19.5 46.1875 28.296875 46.1875 
" id="Nimbus_Sans_L_Regular-98"/>
      <path d="M 15 52.484375 
L 6.703125 52.484375 
L 6.703125 0 
L 15 0 
z
M 15 73 
L 6.59375 73 
L 6.59375 62.484375 
L 15 62.484375 
z
" id="Nimbus_Sans_L_Regular-105"/>
      <path d="M 47.40625 22 
L 54.90625 0 
L 65.296875 0 
L 39.703125 73 
L 27.703125 73 
L 1.703125 0 
L 11.59375 0 
L 19.296875 22 
z
M 44.796875 29.8125 
L 21.59375 29.8125 
L 33.59375 63 
z
" id="Nimbus_Sans_L_Regular-65"/>
     </defs>
     <g transform="translate(103.643694276 83.0674291962)scale(0.144 -0.144)">
      <use transform="scale(0.996264009963)" xlink:href="#Nimbus_Sans_L_Regular-65"/>
      <use transform="translate(66.4500311333 0.0)scale(0.996264009963)" xlink:href="#Nimbus_Sans_L_Regular-98"/>
      <use transform="translate(121.841708097 0.0)scale(0.996264009963)" xlink:href="#Nimbus_Sans_L_Regular-111"/>
      <use transform="translate(177.23338506 0.0)scale(0.996264009963)" xlink:href="#Nimbus_Sans_L_Regular-114"/>
      <use transform="translate(211.901992285 0.0)scale(0.996264009963)" xlink:href="#Nimbus_Sans_L_Regular-105"/>
      <use transform="translate(234.018776634 0.0)scale(0.996264009963)" xlink:href="#Nimbus_Sans_L_Regular-97"/>
     </g>
    </g>
    <g id="line2d_179">
     <path d="M 67.643694 98.504651 
L 87.803694 98.504651 
" style="fill:none;stroke:#0000ff;stroke-linecap:square;"/>
    </g>
    <g id="line2d_180"/>
    <g id="text_17">
     <!-- $r = 1.1$ -->
     <defs>
      <path d="M 18.40625 4.796875 
C 18.40625 7.6875 16 9.671875 13.59375 9.671875 
C 10.703125 9.671875 8.703125 7.28125 8.703125 4.890625 
C 8.703125 2 11.09375 0 13.5 0 
C 16.40625 0 18.40625 2.390625 18.40625 4.796875 
" id="CMMI12-58"/>
     </defs>
     <g transform="translate(103.643694276 103.544650724)scale(0.144 -0.144)">
      <use transform="scale(0.996264009963)" xlink:href="#CMMI12-114"/>
      <use transform="translate(74.3446207581 0.0)scale(0.996264009963)" xlink:href="#CMR17-61"/>
      <use transform="translate(173.733417896 0.0)scale(0.996264009963)" xlink:href="#CMR17-49"/>
      <use transform="translate(219.423895013 0.0)scale(0.996264009963)" xlink:href="#CMMI12-58"/>
      <use transform="translate(246.521072103 0.0)scale(0.996264009963)" xlink:href="#CMR17-49"/>
     </g>
    </g>
    <g id="line2d_181">
     <path d="M 67.643694 118.981872 
L 87.803694 118.981872 
" style="fill:none;stroke:#008000;stroke-linecap:square;"/>
    </g>
    <g id="line2d_182"/>
    <g id="text_18">
     <!-- $r = 2.1$ -->
     <g transform="translate(103.643694276 124.021872252)scale(0.144 -0.144)">
      <use transform="scale(0.996264009963)" xlink:href="#CMMI12-114"/>
      <use transform="translate(74.3446207581 0.0)scale(0.996264009963)" xlink:href="#CMR17-61"/>
      <use transform="translate(173.733417896 0.0)scale(0.996264009963)" xlink:href="#CMR17-50"/>
      <use transform="translate(219.423895013 0.0)scale(0.996264009963)" xlink:href="#CMMI12-58"/>
      <use transform="translate(246.521072103 0.0)scale(0.996264009963)" xlink:href="#CMR17-49"/>
     </g>
    </g>
    <g id="line2d_183">
     <path d="M 67.643694 139.459094 
L 87.803694 139.459094 
" style="fill:none;stroke:#ff0000;stroke-linecap:square;"/>
    </g>
    <g id="line2d_184"/>
    <g id="text_19">
     <!-- $r = 3.1$ -->
     <g transform="translate(103.643694276 144.499093779)scale(0.144 -0.144)">
      <use transform="scale(0.996264009963)" xlink:href="#CMMI12-114"/>
      <use transform="translate(74.3446207581 0.0)scale(0.996264009963)" xlink:href="#CMR17-61"/>
      <use transform="translate(173.733417896 0.0)scale(0.996264009963)" xlink:href="#CMR17-51"/>
      <use transform="translate(219.423895013 0.0)scale(0.996264009963)" xlink:href="#CMMI12-58"/>
      <use transform="translate(246.521072103 0.0)scale(0.996264009963)" xlink:href="#CMR17-49"/>
     </g>
    </g>
    <g id="line2d_185">
     <path d="M 67.643694 159.936315 
L 87.803694 159.936315 
" style="fill:none;stroke:#00bfbf;stroke-linecap:square;"/>
    </g>
    <g id="line2d_186"/>
    <g id="text_20">
     <!-- $r = 4.1$ -->
     <g transform="translate(103.643694276 164.976315307)scale(0.144 -0.144)">
      <use transform="scale(0.996264009963)" xlink:href="#CMMI12-114"/>
      <use transform="translate(74.3446207581 0.0)scale(0.996264009963)" xlink:href="#CMR17-61"/>
      <use transform="translate(173.733417896 0.0)scale(0.996264009963)" xlink:href="#CMR17-52"/>
      <use transform="translate(219.423895013 0.0)scale(0.996264009963)" xlink:href="#CMMI12-58"/>
      <use transform="translate(246.521072103 0.0)scale(0.996264009963)" xlink:href="#CMR17-49"/>
     </g>
    </g>
   </g>
  </g>
 </g>
 <defs>
  <clipPath id="p435a9c8f73">
   <rect height="276.502646642" width="360.706224048" x="50.3636942763" y="39.4086356096"/>
  </clipPath>
 </defs>
</svg>
