<?xml version="1.0" encoding="utf-8" standalone="no"?>
<!DOCTYPE svg PUBLIC "-//W3C//DTD SVG 1.1//EN"
  "http://www.w3.org/Graphics/SVG/1.1/DTD/svg11.dtd">
<!-- Created with matplotlib (http://matplotlib.org/) -->
<svg height="360pt" version="1.1" viewBox="0 0 432 360" width="432pt" xmlns="http://www.w3.org/2000/svg" xmlns:xlink="http://www.w3.org/1999/xlink">
 <defs>
  <style type="text/css">
*{stroke-linecap:butt;stroke-linejoin:round;stroke-miterlimit:100000;}
  </style>
 </defs>
 <g id="figure_1">
  <g id="patch_1">
   <path d="M 0 360 
L 432 360 
L 432 0 
L 0 0 
z
" style="fill:#ffffff;"/>
  </g>
  <g id="axes_1">
   <g id="patch_2">
    <path d="M 51.982502 315.911282 
L 411.069918 315.911282 
L 411.069918 38.051025 
L 51.982502 38.051025 
z
" style="fill:#ffffff;"/>
   </g>
   <g id="line2d_1">
    <path clip-path="url(#p4a37eb821c)" d="M 106.030543 299.942574 
L 106.030543 297.857272 
L 106.030543 297.920942 
L 106.030543 298.007396 
L 106.030543 297.958572 
L 106.030543 298.033356 
L 106.030543 297.624187 
L 106.030543 298.902503 
L 106.030543 298.061778 
L 137.646621 296.701374 
L 137.646621 296.841018 
L 137.646621 296.672635 
L 137.646621 296.708122 
L 137.646621 296.831095 
L 137.646621 296.737813 
L 160.078585 296.379532 
L 160.078585 299.243398 
L 160.078585 296.561173 
L 160.078585 296.553552 
L 177.478168 296.640006 
L 177.478168 296.352461 
L 177.478168 299.832224 
L 177.478168 296.397156 
L 191.694663 86.670219 
L 191.694663 79.475226 
L 191.694663 80.568408 
L 203.714538 78.902834 
L 203.714538 82.148242 
L 203.714538 81.296402 
L 214.126627 75.432756 
L 214.126627 75.704266 
L 223.31074 77.658814 
L 223.31074 80.550148 
L 231.52621 77.958903 
L 231.52621 75.522466 
L 238.958006 75.580419 
L 238.958006 76.340963 
L 245.742705 92.113105 
L 245.742705 77.869194 
L 251.984022 73.916433 
L 257.762579 71.115602 
L 257.762579 72.872473 
L 263.142288 71.23786 
L 268.174669 71.588758 
L 272.901864 69.78346 
L 272.901864 72.271501 
L 277.358782 69.49131 
L 281.574665 69.291251 
L 285.574252 69.544501 
L 289.378657 69.383342 
L 293.006048 72.880412 
L 299.790746 68.365579 
L 302.973835 68.25126 
L 306.032064 68.178222 
L 308.97486 70.900459 
L 314.546861 69.016566 
L 317.190329 70.488432 
L 322.22271 73.204317 
L 324.622126 69.389693 
L 329.210204 73.976769 
L 333.543255 68.901453 
L 337.648141 68.683928 
L 341.547696 68.70695 
L 345.261486 69.994634 
L 348.806407 69.721537 
L 352.197152 68.883193 
L 357.021877 72.393759 
L 360.080105 68.379075 
L 364.453673 69.888253 
L 367.238785 68.630737 
L 371.238371 69.304747 
L 375.042776 68.207596 
L 379.842743 69.884284 
L 383.258246 68.744263 
L 386.530398 69.011009 
L 390.690042 68.327473 
L 394.638979 69.715186 
L 398.397531 81.606017 
L 401.983212 69.933505 
L 406.245194 69.526241 
L 410.286245 73.989471 
" style="fill:none;stroke:#0000ff;stroke-linecap:square;"/>
   </g>
   <g id="line2d_2">
    <path clip-path="url(#p4a37eb821c)" d="M 106.030543 300.862768 
L 106.030543 300.811562 
L 106.030543 303.939872 
L 106.030543 301.036946 
L 106.030543 300.879439 
L 106.030543 300.84816 
L 106.030543 300.739477 
L 106.030543 300.994791 
L 106.030543 300.797351 
L 137.646621 300.519571 
L 137.646621 300.454551 
L 137.646621 301.856555 
L 137.646621 300.349203 
L 137.646621 300.203921 
L 137.646621 300.40152 
L 160.078585 300.228373 
L 160.078585 300.510203 
L 160.078585 300.163354 
L 160.078585 300.399138 
L 177.478168 300.307523 
L 177.478168 300.388182 
L 177.478168 300.277912 
L 177.478168 300.476304 
L 191.694663 85.775509 
L 191.694663 86.846462 
L 191.694663 86.422527 
L 203.714538 86.115292 
L 203.714538 85.666747 
L 203.714538 87.584776 
L 214.126627 85.841402 
L 214.126627 84.928432 
L 223.31074 89.256701 
L 223.31074 87.901537 
L 231.52621 87.553815 
L 231.52621 87.289451 
L 238.958006 88.729561 
L 238.958006 88.989955 
L 245.742705 111.67923 
L 245.742705 93.746923 
L 251.984022 87.675279 
L 257.762579 88.472341 
L 257.762579 86.446343 
L 263.142288 86.799623 
L 268.174669 87.262458 
L 272.901864 89.36467 
L 272.901864 87.208474 
L 277.358782 86.821851 
L 281.574665 89.697308 
L 285.574252 88.430265 
L 289.378657 86.841699 
L 293.006048 88.650966 
L 299.790746 87.58954 
L 302.973835 87.456961 
L 306.032064 86.903622 
L 308.97486 87.117971 
L 314.546861 87.997597 
L 317.190329 87.703859 
L 322.22271 87.264046 
L 324.622126 103.240217 
L 329.210204 90.133152 
L 333.543255 87.530792 
L 337.648141 89.432944 
L 341.547696 89.328945 
L 345.261486 87.297389 
L 348.806407 88.483456 
L 352.197152 88.666844 
L 357.021877 86.759928 
L 360.080105 87.780866 
L 364.453673 90.343532 
L 367.238785 87.541113 
L 371.238371 86.737699 
L 375.042776 86.704356 
L 379.842743 88.057139 
L 383.258246 87.261665 
L 386.530398 89.27893 
L 390.690042 88.44138 
L 394.638979 88.080955 
L 398.397531 87.790393 
L 401.983212 87.40377 
L 406.245194 88.234969 
L 410.286245 88.712889 
" style="fill:none;stroke:#008000;stroke-linecap:square;"/>
   </g>
   <g id="patch_3">
    <path d="M 51.982502 38.051025 
L 411.069918 38.051025 
" style="fill:none;stroke:#000000;stroke-linecap:square;stroke-linejoin:miter;"/>
   </g>
   <g id="patch_4">
    <path d="M 411.069918 315.911282 
L 411.069918 38.051025 
" style="fill:none;stroke:#000000;stroke-linecap:square;stroke-linejoin:miter;"/>
   </g>
   <g id="patch_5">
    <path d="M 51.982502 315.911282 
L 411.069918 315.911282 
" style="fill:none;stroke:#000000;stroke-linecap:square;stroke-linejoin:miter;"/>
   </g>
   <g id="patch_6">
    <path d="M 51.982502 315.911282 
L 51.982502 38.051025 
" style="fill:none;stroke:#000000;stroke-linecap:square;stroke-linejoin:miter;"/>
   </g>
   <g id="matplotlib.axis_1">
    <g id="xtick_1">
     <g id="line2d_3">
      <defs>
       <path d="M 0 0 
L 0 -4 
" id="m6874bad599" style="stroke:#000000;stroke-width:0.5;"/>
      </defs>
      <g>
       <use style="stroke:#000000;stroke-width:0.5;" x="51.9825016783" xlink:href="#m6874bad599" y="315.911282252"/>
      </g>
     </g>
     <g id="line2d_4">
      <defs>
       <path d="M 0 0 
L 0 4 
" id="mc4fc413280" style="stroke:#000000;stroke-width:0.5;"/>
      </defs>
      <g>
       <use style="stroke:#000000;stroke-width:0.5;" x="51.9825016783" xlink:href="#mc4fc413280" y="38.0510252325"/>
      </g>
     </g>
     <g id="text_1">
      <!-- $10^{0}$ -->
      <defs>
       <path d="M 26.59375 63.40625 
C 26.59375 65.5 26.5 65.5 25.09375 65.5 
C 21.203125 61.1875 15.296875 59.796875 9.703125 59.796875 
C 9.40625 59.796875 8.90625 59.796875 8.796875 59.5 
C 8.703125 59.296875 8.703125 59.09375 8.703125 57 
C 11.796875 57 17 57.59375 21 59.984375 
L 21 7.203125 
C 21 3.6875 20.796875 2.5 12.203125 2.5 
L 9.203125 2.5 
L 9.203125 0 
C 14 0 19 0 23.796875 0 
C 28.59375 0 33.59375 0 38.40625 0 
L 38.40625 2.5 
L 35.40625 2.5 
C 26.796875 2.5 26.59375 3.59375 26.59375 7.15625 
z
" id="CMR17-49"/>
       <path d="M 42 31.640625 
C 42 37.75 41.90625 48.125 37.703125 56.109375 
C 34 63.109375 28.09375 65.59375 22.90625 65.59375 
C 18.09375 65.59375 12 63.40625 8.203125 56.203125 
C 4.203125 48.71875 3.796875 39.4375 3.796875 31.640625 
C 3.796875 25.953125 3.90625 17.28125 7 9.671875 
C 11.296875 -0.609375 19 -2 22.90625 -2 
C 27.5 -2 34.5 -0.109375 38.59375 9.375 
C 41.59375 16.28125 42 24.359375 42 31.640625 
M 22.90625 -0.40625 
C 16.5 -0.40625 12.703125 5.078125 11.296875 12.6875 
C 10.203125 18.5625 10.203125 27.15625 10.203125 32.75 
C 10.203125 40.4375 10.203125 46.828125 11.5 52.921875 
C 13.40625 61.390625 19 64 22.90625 64 
C 27 64 32.296875 61.296875 34.203125 53.125 
C 35.5 47.4375 35.59375 40.734375 35.59375 32.75 
C 35.59375 26.25 35.59375 18.265625 34.40625 12.375 
C 32.296875 1.484375 26.40625 -0.40625 22.90625 -0.40625 
" id="CMR17-48"/>
      </defs>
      <g transform="translate(44.0124200021 328.429266569)scale(0.12 -0.12)">
       <use transform="scale(0.996264009963)" xlink:href="#CMR17-49"/>
       <use transform="translate(45.6904771171 0.0)scale(0.996264009963)" xlink:href="#CMR17-48"/>
       <use transform="translate(91.3809542341 36.1536389419)scale(0.697381766617)" xlink:href="#CMR17-48"/>
      </g>
     </g>
    </g>
    <g id="xtick_2">
     <g id="line2d_5">
      <g>
       <use style="stroke:#000000;stroke-width:0.5;" x="141.75435584" xlink:href="#m6874bad599" y="315.911282252"/>
      </g>
     </g>
     <g id="line2d_6">
      <g>
       <use style="stroke:#000000;stroke-width:0.5;" x="141.75435584" xlink:href="#mc4fc413280" y="38.0510252325"/>
      </g>
     </g>
     <g id="text_2">
      <!-- $10^{1}$ -->
      <g transform="translate(133.784274164 328.429266569)scale(0.12 -0.12)">
       <use transform="scale(0.996264009963)" xlink:href="#CMR17-49"/>
       <use transform="translate(45.6904771171 0.0)scale(0.996264009963)" xlink:href="#CMR17-48"/>
       <use transform="translate(91.3809542341 36.1536389419)scale(0.697381766617)" xlink:href="#CMR17-49"/>
      </g>
     </g>
    </g>
    <g id="xtick_3">
     <g id="line2d_7">
      <g>
       <use style="stroke:#000000;stroke-width:0.5;" x="231.526210001" xlink:href="#m6874bad599" y="315.911282252"/>
      </g>
     </g>
     <g id="line2d_8">
      <g>
       <use style="stroke:#000000;stroke-width:0.5;" x="231.526210001" xlink:href="#mc4fc413280" y="38.0510252325"/>
      </g>
     </g>
     <g id="text_3">
      <!-- $10^{2}$ -->
      <defs>
       <path d="M 41.703125 15.453125 
L 39.90625 15.453125 
C 38.90625 8.375 38.09375 7.171875 37.703125 6.5625 
C 37.203125 5.765625 30 5.765625 28.59375 5.765625 
L 9.40625 5.765625 
C 13 9.671875 20 16.75 28.5 24.953125 
C 34.59375 30.734375 41.703125 37.53125 41.703125 47.421875 
C 41.703125 59.21875 32.296875 66 21.796875 66 
C 10.796875 66 4.09375 56.3125 4.09375 47.34375 
C 4.09375 43.4375 7 42.9375 8.203125 42.9375 
C 9.203125 42.9375 12.203125 43.546875 12.203125 47.03125 
C 12.203125 50.109375 9.59375 51 8.203125 51 
C 7.59375 51 7 50.90625 6.59375 50.703125 
C 8.5 59.21875 14.296875 63.40625 20.40625 63.40625 
C 29.09375 63.40625 34.796875 56.515625 34.796875 47.421875 
C 34.796875 38.734375 29.703125 31.25 24 24.75 
L 4.09375 2.28125 
L 4.09375 0 
L 39.296875 0 
z
" id="CMR17-50"/>
      </defs>
      <g transform="translate(223.556128325 328.429266569)scale(0.12 -0.12)">
       <use transform="scale(0.996264009963)" xlink:href="#CMR17-49"/>
       <use transform="translate(45.6904771171 0.0)scale(0.996264009963)" xlink:href="#CMR17-48"/>
       <use transform="translate(91.3809542341 36.1536389419)scale(0.697381766617)" xlink:href="#CMR17-50"/>
      </g>
     </g>
    </g>
    <g id="xtick_4">
     <g id="line2d_9">
      <g>
       <use style="stroke:#000000;stroke-width:0.5;" x="321.298064162" xlink:href="#m6874bad599" y="315.911282252"/>
      </g>
     </g>
     <g id="line2d_10">
      <g>
       <use style="stroke:#000000;stroke-width:0.5;" x="321.298064162" xlink:href="#mc4fc413280" y="38.0510252325"/>
      </g>
     </g>
     <g id="text_4">
      <!-- $10^{3}$ -->
      <defs>
       <path d="M 22.09375 33.703125 
C 31 33.703125 34.90625 25.96875 34.90625 17.03125 
C 34.90625 5 28.5 0.390625 22.703125 0.390625 
C 17.40625 0.390625 8.796875 3.03125 6.09375 10.828125 
C 6.59375 10.625 7.09375 10.625 7.59375 10.625 
C 10 10.625 11.796875 12.21875 11.796875 14.8125 
C 11.796875 17.703125 9.59375 19 7.59375 19 
C 5.90625 19 3.296875 18.203125 3.296875 14.46875 
C 3.296875 5.234375 12.296875 -2 22.90625 -2 
C 34 -2 42.5 6.71875 42.5 16.953125 
C 42.5 26.671875 34.5 33.703125 25 34.796875 
C 32.59375 36.375 39.90625 43.0625 39.90625 52.015625 
C 39.90625 59.6875 32 65.296875 23 65.296875 
C 13.90625 65.296875 5.90625 59.828125 5.90625 52.015625 
C 5.90625 48.59375 8.5 48 9.796875 48 
C 11.90625 48 13.703125 49.296875 13.703125 51.890625 
C 13.703125 54.46875 11.90625 55.765625 9.796875 55.765625 
C 9.40625 55.765625 8.90625 55.765625 8.5 55.578125 
C 11.40625 61.859375 19.296875 63 22.796875 63 
C 26.296875 63 32.90625 61.328125 32.90625 51.875 
C 32.90625 49.109375 32.5 44.1875 29.09375 39.84375 
C 26.09375 36 22.703125 36 19.40625 35.6875 
C 18.90625 35.6875 16.59375 35.453125 16.203125 35.453125 
C 15.5 35.359375 15.09375 35.265625 15.09375 34.5 
C 15.09375 33.796875 15.203125 33.703125 17.203125 33.703125 
z
" id="CMR17-51"/>
      </defs>
      <g transform="translate(313.327982486 328.429266569)scale(0.12 -0.12)">
       <use transform="scale(0.996264009963)" xlink:href="#CMR17-49"/>
       <use transform="translate(45.6904771171 0.0)scale(0.996264009963)" xlink:href="#CMR17-48"/>
       <use transform="translate(91.3809542341 36.1536389419)scale(0.697381766617)" xlink:href="#CMR17-51"/>
      </g>
     </g>
    </g>
    <g id="xtick_5">
     <g id="line2d_11">
      <g>
       <use style="stroke:#000000;stroke-width:0.5;" x="411.069918324" xlink:href="#m6874bad599" y="315.911282252"/>
      </g>
     </g>
     <g id="line2d_12">
      <g>
       <use style="stroke:#000000;stroke-width:0.5;" x="411.069918324" xlink:href="#mc4fc413280" y="38.0510252325"/>
      </g>
     </g>
     <g id="text_5">
      <!-- $10^{4}$ -->
      <defs>
       <path d="M 33.59375 64.40625 
C 33.59375 66.5 33.5 66.5 31.703125 66.5 
L 2 19.59375 
L 2 17 
L 27.796875 17 
L 27.796875 7.140625 
C 27.796875 3.5 27.59375 2.5 20.59375 2.5 
L 18.703125 2.5 
L 18.703125 0 
C 21.90625 0 27.296875 0 30.703125 0 
C 34.09375 0 39.5 0 42.703125 0 
L 42.703125 2.5 
L 40.796875 2.5 
C 33.796875 2.5 33.59375 3.5 33.59375 7.140625 
L 33.59375 17 
L 43.796875 17 
L 43.796875 19.59375 
L 33.59375 19.59375 
z
M 28.09375 57.859375 
L 28.09375 19.59375 
L 4 19.59375 
z
" id="CMR17-52"/>
      </defs>
      <g transform="translate(403.099836648 328.429266569)scale(0.12 -0.12)">
       <use transform="scale(0.996264009963)" xlink:href="#CMR17-49"/>
       <use transform="translate(45.6904771171 0.0)scale(0.996264009963)" xlink:href="#CMR17-48"/>
       <use transform="translate(91.3809542341 36.1536389419)scale(0.697381766617)" xlink:href="#CMR17-52"/>
      </g>
     </g>
    </g>
    <g id="xtick_6">
     <g id="line2d_13">
      <defs>
       <path d="M 0 0 
L 0 -2 
" id="m7ae4113314" style="stroke:#000000;stroke-width:0.5;"/>
      </defs>
      <g>
       <use style="stroke:#000000;stroke-width:0.5;" x="79.0065225472" xlink:href="#m7ae4113314" y="315.911282252"/>
      </g>
     </g>
     <g id="line2d_14">
      <defs>
       <path d="M 0 0 
L 0 2 
" id="m50164034dc" style="stroke:#000000;stroke-width:0.5;"/>
      </defs>
      <g>
       <use style="stroke:#000000;stroke-width:0.5;" x="79.0065225472" xlink:href="#m50164034dc" y="38.0510252325"/>
      </g>
     </g>
    </g>
    <g id="xtick_7">
     <g id="line2d_15">
      <g>
       <use style="stroke:#000000;stroke-width:0.5;" x="94.8145613743" xlink:href="#m7ae4113314" y="315.911282252"/>
      </g>
     </g>
     <g id="line2d_16">
      <g>
       <use style="stroke:#000000;stroke-width:0.5;" x="94.8145613743" xlink:href="#m50164034dc" y="38.0510252325"/>
      </g>
     </g>
    </g>
    <g id="xtick_8">
     <g id="line2d_17">
      <g>
       <use style="stroke:#000000;stroke-width:0.5;" x="106.030543416" xlink:href="#m7ae4113314" y="315.911282252"/>
      </g>
     </g>
     <g id="line2d_18">
      <g>
       <use style="stroke:#000000;stroke-width:0.5;" x="106.030543416" xlink:href="#m50164034dc" y="38.0510252325"/>
      </g>
     </g>
    </g>
    <g id="xtick_9">
     <g id="line2d_19">
      <g>
       <use style="stroke:#000000;stroke-width:0.5;" x="114.730334971" xlink:href="#m7ae4113314" y="315.911282252"/>
      </g>
     </g>
     <g id="line2d_20">
      <g>
       <use style="stroke:#000000;stroke-width:0.5;" x="114.730334971" xlink:href="#m50164034dc" y="38.0510252325"/>
      </g>
     </g>
    </g>
    <g id="xtick_10">
     <g id="line2d_21">
      <g>
       <use style="stroke:#000000;stroke-width:0.5;" x="121.838582243" xlink:href="#m7ae4113314" y="315.911282252"/>
      </g>
     </g>
     <g id="line2d_22">
      <g>
       <use style="stroke:#000000;stroke-width:0.5;" x="121.838582243" xlink:href="#m50164034dc" y="38.0510252325"/>
      </g>
     </g>
    </g>
    <g id="xtick_11">
     <g id="line2d_23">
      <g>
       <use style="stroke:#000000;stroke-width:0.5;" x="127.848519679" xlink:href="#m7ae4113314" y="315.911282252"/>
      </g>
     </g>
     <g id="line2d_24">
      <g>
       <use style="stroke:#000000;stroke-width:0.5;" x="127.848519679" xlink:href="#m50164034dc" y="38.0510252325"/>
      </g>
     </g>
    </g>
    <g id="xtick_12">
     <g id="line2d_25">
      <g>
       <use style="stroke:#000000;stroke-width:0.5;" x="133.054564285" xlink:href="#m7ae4113314" y="315.911282252"/>
      </g>
     </g>
     <g id="line2d_26">
      <g>
       <use style="stroke:#000000;stroke-width:0.5;" x="133.054564285" xlink:href="#m50164034dc" y="38.0510252325"/>
      </g>
     </g>
    </g>
    <g id="xtick_13">
     <g id="line2d_27">
      <g>
       <use style="stroke:#000000;stroke-width:0.5;" x="137.64662107" xlink:href="#m7ae4113314" y="315.911282252"/>
      </g>
     </g>
     <g id="line2d_28">
      <g>
       <use style="stroke:#000000;stroke-width:0.5;" x="137.64662107" xlink:href="#m50164034dc" y="38.0510252325"/>
      </g>
     </g>
    </g>
    <g id="xtick_14">
     <g id="line2d_29">
      <g>
       <use style="stroke:#000000;stroke-width:0.5;" x="168.778376709" xlink:href="#m7ae4113314" y="315.911282252"/>
      </g>
     </g>
     <g id="line2d_30">
      <g>
       <use style="stroke:#000000;stroke-width:0.5;" x="168.778376709" xlink:href="#m50164034dc" y="38.0510252325"/>
      </g>
     </g>
    </g>
    <g id="xtick_15">
     <g id="line2d_31">
      <g>
       <use style="stroke:#000000;stroke-width:0.5;" x="184.586415536" xlink:href="#m7ae4113314" y="315.911282252"/>
      </g>
     </g>
     <g id="line2d_32">
      <g>
       <use style="stroke:#000000;stroke-width:0.5;" x="184.586415536" xlink:href="#m50164034dc" y="38.0510252325"/>
      </g>
     </g>
    </g>
    <g id="xtick_16">
     <g id="line2d_33">
      <g>
       <use style="stroke:#000000;stroke-width:0.5;" x="195.802397578" xlink:href="#m7ae4113314" y="315.911282252"/>
      </g>
     </g>
     <g id="line2d_34">
      <g>
       <use style="stroke:#000000;stroke-width:0.5;" x="195.802397578" xlink:href="#m50164034dc" y="38.0510252325"/>
      </g>
     </g>
    </g>
    <g id="xtick_17">
     <g id="line2d_35">
      <g>
       <use style="stroke:#000000;stroke-width:0.5;" x="204.502189132" xlink:href="#m7ae4113314" y="315.911282252"/>
      </g>
     </g>
     <g id="line2d_36">
      <g>
       <use style="stroke:#000000;stroke-width:0.5;" x="204.502189132" xlink:href="#m50164034dc" y="38.0510252325"/>
      </g>
     </g>
    </g>
    <g id="xtick_18">
     <g id="line2d_37">
      <g>
       <use style="stroke:#000000;stroke-width:0.5;" x="211.610436405" xlink:href="#m7ae4113314" y="315.911282252"/>
      </g>
     </g>
     <g id="line2d_38">
      <g>
       <use style="stroke:#000000;stroke-width:0.5;" x="211.610436405" xlink:href="#m50164034dc" y="38.0510252325"/>
      </g>
     </g>
    </g>
    <g id="xtick_19">
     <g id="line2d_39">
      <g>
       <use style="stroke:#000000;stroke-width:0.5;" x="217.62037384" xlink:href="#m7ae4113314" y="315.911282252"/>
      </g>
     </g>
     <g id="line2d_40">
      <g>
       <use style="stroke:#000000;stroke-width:0.5;" x="217.62037384" xlink:href="#m50164034dc" y="38.0510252325"/>
      </g>
     </g>
    </g>
    <g id="xtick_20">
     <g id="line2d_41">
      <g>
       <use style="stroke:#000000;stroke-width:0.5;" x="222.826418447" xlink:href="#m7ae4113314" y="315.911282252"/>
      </g>
     </g>
     <g id="line2d_42">
      <g>
       <use style="stroke:#000000;stroke-width:0.5;" x="222.826418447" xlink:href="#m50164034dc" y="38.0510252325"/>
      </g>
     </g>
    </g>
    <g id="xtick_21">
     <g id="line2d_43">
      <g>
       <use style="stroke:#000000;stroke-width:0.5;" x="227.418475232" xlink:href="#m7ae4113314" y="315.911282252"/>
      </g>
     </g>
     <g id="line2d_44">
      <g>
       <use style="stroke:#000000;stroke-width:0.5;" x="227.418475232" xlink:href="#m50164034dc" y="38.0510252325"/>
      </g>
     </g>
    </g>
    <g id="xtick_22">
     <g id="line2d_45">
      <g>
       <use style="stroke:#000000;stroke-width:0.5;" x="258.55023087" xlink:href="#m7ae4113314" y="315.911282252"/>
      </g>
     </g>
     <g id="line2d_46">
      <g>
       <use style="stroke:#000000;stroke-width:0.5;" x="258.55023087" xlink:href="#m50164034dc" y="38.0510252325"/>
      </g>
     </g>
    </g>
    <g id="xtick_23">
     <g id="line2d_47">
      <g>
       <use style="stroke:#000000;stroke-width:0.5;" x="274.358269697" xlink:href="#m7ae4113314" y="315.911282252"/>
      </g>
     </g>
     <g id="line2d_48">
      <g>
       <use style="stroke:#000000;stroke-width:0.5;" x="274.358269697" xlink:href="#m50164034dc" y="38.0510252325"/>
      </g>
     </g>
    </g>
    <g id="xtick_24">
     <g id="line2d_49">
      <g>
       <use style="stroke:#000000;stroke-width:0.5;" x="285.574251739" xlink:href="#m7ae4113314" y="315.911282252"/>
      </g>
     </g>
     <g id="line2d_50">
      <g>
       <use style="stroke:#000000;stroke-width:0.5;" x="285.574251739" xlink:href="#m50164034dc" y="38.0510252325"/>
      </g>
     </g>
    </g>
    <g id="xtick_25">
     <g id="line2d_51">
      <g>
       <use style="stroke:#000000;stroke-width:0.5;" x="294.274043294" xlink:href="#m7ae4113314" y="315.911282252"/>
      </g>
     </g>
     <g id="line2d_52">
      <g>
       <use style="stroke:#000000;stroke-width:0.5;" x="294.274043294" xlink:href="#m50164034dc" y="38.0510252325"/>
      </g>
     </g>
    </g>
    <g id="xtick_26">
     <g id="line2d_53">
      <g>
       <use style="stroke:#000000;stroke-width:0.5;" x="301.382290566" xlink:href="#m7ae4113314" y="315.911282252"/>
      </g>
     </g>
     <g id="line2d_54">
      <g>
       <use style="stroke:#000000;stroke-width:0.5;" x="301.382290566" xlink:href="#m50164034dc" y="38.0510252325"/>
      </g>
     </g>
    </g>
    <g id="xtick_27">
     <g id="line2d_55">
      <g>
       <use style="stroke:#000000;stroke-width:0.5;" x="307.392228001" xlink:href="#m7ae4113314" y="315.911282252"/>
      </g>
     </g>
     <g id="line2d_56">
      <g>
       <use style="stroke:#000000;stroke-width:0.5;" x="307.392228001" xlink:href="#m50164034dc" y="38.0510252325"/>
      </g>
     </g>
    </g>
    <g id="xtick_28">
     <g id="line2d_57">
      <g>
       <use style="stroke:#000000;stroke-width:0.5;" x="312.598272608" xlink:href="#m7ae4113314" y="315.911282252"/>
      </g>
     </g>
     <g id="line2d_58">
      <g>
       <use style="stroke:#000000;stroke-width:0.5;" x="312.598272608" xlink:href="#m50164034dc" y="38.0510252325"/>
      </g>
     </g>
    </g>
    <g id="xtick_29">
     <g id="line2d_59">
      <g>
       <use style="stroke:#000000;stroke-width:0.5;" x="317.190329393" xlink:href="#m7ae4113314" y="315.911282252"/>
      </g>
     </g>
     <g id="line2d_60">
      <g>
       <use style="stroke:#000000;stroke-width:0.5;" x="317.190329393" xlink:href="#m50164034dc" y="38.0510252325"/>
      </g>
     </g>
    </g>
    <g id="xtick_30">
     <g id="line2d_61">
      <g>
       <use style="stroke:#000000;stroke-width:0.5;" x="348.322085031" xlink:href="#m7ae4113314" y="315.911282252"/>
      </g>
     </g>
     <g id="line2d_62">
      <g>
       <use style="stroke:#000000;stroke-width:0.5;" x="348.322085031" xlink:href="#m50164034dc" y="38.0510252325"/>
      </g>
     </g>
    </g>
    <g id="xtick_31">
     <g id="line2d_63">
      <g>
       <use style="stroke:#000000;stroke-width:0.5;" x="364.130123858" xlink:href="#m7ae4113314" y="315.911282252"/>
      </g>
     </g>
     <g id="line2d_64">
      <g>
       <use style="stroke:#000000;stroke-width:0.5;" x="364.130123858" xlink:href="#m50164034dc" y="38.0510252325"/>
      </g>
     </g>
    </g>
    <g id="xtick_32">
     <g id="line2d_65">
      <g>
       <use style="stroke:#000000;stroke-width:0.5;" x="375.3461059" xlink:href="#m7ae4113314" y="315.911282252"/>
      </g>
     </g>
     <g id="line2d_66">
      <g>
       <use style="stroke:#000000;stroke-width:0.5;" x="375.3461059" xlink:href="#m50164034dc" y="38.0510252325"/>
      </g>
     </g>
    </g>
    <g id="xtick_33">
     <g id="line2d_67">
      <g>
       <use style="stroke:#000000;stroke-width:0.5;" x="384.045897455" xlink:href="#m7ae4113314" y="315.911282252"/>
      </g>
     </g>
     <g id="line2d_68">
      <g>
       <use style="stroke:#000000;stroke-width:0.5;" x="384.045897455" xlink:href="#m50164034dc" y="38.0510252325"/>
      </g>
     </g>
    </g>
    <g id="xtick_34">
     <g id="line2d_69">
      <g>
       <use style="stroke:#000000;stroke-width:0.5;" x="391.154144727" xlink:href="#m7ae4113314" y="315.911282252"/>
      </g>
     </g>
     <g id="line2d_70">
      <g>
       <use style="stroke:#000000;stroke-width:0.5;" x="391.154144727" xlink:href="#m50164034dc" y="38.0510252325"/>
      </g>
     </g>
    </g>
    <g id="xtick_35">
     <g id="line2d_71">
      <g>
       <use style="stroke:#000000;stroke-width:0.5;" x="397.164082163" xlink:href="#m7ae4113314" y="315.911282252"/>
      </g>
     </g>
     <g id="line2d_72">
      <g>
       <use style="stroke:#000000;stroke-width:0.5;" x="397.164082163" xlink:href="#m50164034dc" y="38.0510252325"/>
      </g>
     </g>
    </g>
    <g id="xtick_36">
     <g id="line2d_73">
      <g>
       <use style="stroke:#000000;stroke-width:0.5;" x="402.370126769" xlink:href="#m7ae4113314" y="315.911282252"/>
      </g>
     </g>
     <g id="line2d_74">
      <g>
       <use style="stroke:#000000;stroke-width:0.5;" x="402.370126769" xlink:href="#m50164034dc" y="38.0510252325"/>
      </g>
     </g>
    </g>
    <g id="xtick_37">
     <g id="line2d_75">
      <g>
       <use style="stroke:#000000;stroke-width:0.5;" x="406.962183554" xlink:href="#m7ae4113314" y="315.911282252"/>
      </g>
     </g>
     <g id="line2d_76">
      <g>
       <use style="stroke:#000000;stroke-width:0.5;" x="406.962183554" xlink:href="#m50164034dc" y="38.0510252325"/>
      </g>
     </g>
    </g>
    <g id="text_6">
     <!-- $N$ -->
     <defs>
      <path d="M 74 57.78125 
C 75.09375 62.09375 76.703125 65.09375 84.296875 65.09375 
C 84.59375 65.09375 85.796875 65.09375 85.796875 66.859375 
C 85.796875 68 84.90625 68 84.5 68 
C 82.5 68 77.40625 68 75.40625 68 
L 70.59375 68 
C 69.203125 68 67.40625 68 66 68 
C 65.40625 68 64.203125 68 64.203125 66.09375 
C 64.203125 65.09375 65 65.09375 65.703125 65.09375 
C 71.703125 65.09375 72.09375 62.796875 72.09375 60.984375 
C 72.09375 60.09375 72 59.78125 71.703125 58.390625 
L 60.40625 13.28125 
L 39 66.390625 
C 38.296875 68 38.203125 68 36 68 
L 23.796875 68 
C 21.796875 68 20.90625 68 20.90625 66.09375 
C 20.90625 65.09375 21.59375 65.09375 23.5 65.09375 
C 24 65.09375 29.90625 65.09375 29.90625 64.296875 
C 29.90625 64.09375 29.703125 63.296875 29.59375 63 
L 16.296875 9.921875 
C 15.09375 5 12.703125 2.90625 6.09375 2.90625 
C 5.59375 2.90625 4.59375 2.90625 4.59375 1.046875 
C 4.59375 0 5.59375 0 5.90625 0 
C 7.90625 0 13 0 15 0 
L 19.796875 0 
C 21.203125 0 22.90625 0 24.296875 0 
C 25 0 26.09375 0 26.09375 1.90625 
C 26.09375 2.8125 25.09375 2.90625 24.703125 2.90625 
C 21.40625 2.90625 18.203125 3.5 18.203125 7.09375 
C 18.203125 7.890625 18.40625 8.78125 18.59375 9.578125 
L 32.09375 63 
C 32.703125 62 32.703125 61.8125 33.09375 60.90625 
L 56.90625 1.796875 
C 57.40625 0.59375 57.59375 0 58.5 0 
C 59.5 0 59.59375 0.296875 60 2 
z
" id="CMMI12-78"/>
     </defs>
     <g transform="translate(226.839302871 344.493625443)scale(0.12 -0.12)">
      <use transform="scale(0.996264009963)" xlink:href="#CMMI12-78"/>
     </g>
    </g>
   </g>
   <g id="matplotlib.axis_2">
    <g id="ytick_1">
     <g id="line2d_77">
      <defs>
       <path d="M 0 0 
L 4 0 
" id="m042a29747f" style="stroke:#000000;stroke-width:0.5;"/>
      </defs>
      <g>
       <use style="stroke:#000000;stroke-width:0.5;" x="51.9825016783" xlink:href="#m042a29747f" y="315.911282252"/>
      </g>
     </g>
     <g id="line2d_78">
      <defs>
       <path d="M 0 0 
L -4 0 
" id="m1396ee04ef" style="stroke:#000000;stroke-width:0.5;"/>
      </defs>
      <g>
       <use style="stroke:#000000;stroke-width:0.5;" x="411.069918324" xlink:href="#m1396ee04ef" y="315.911282252"/>
      </g>
     </g>
     <g id="text_7">
      <!-- $50$ -->
      <defs>
       <path d="M 11.40625 57.6875 
C 12.40625 57.28125 16.5 56 20.703125 56 
C 30 56 35.09375 61.109375 38 64.0625 
C 38 64.953125 38 65.5 37.40625 65.5 
C 37.296875 65.5 37.09375 65.5 36.296875 65.046875 
C 32.796875 63.40625 28.703125 62.078125 23.703125 62.078125 
C 20.703125 62.078125 16.203125 62.484375 11.296875 64.671875 
C 10.203125 65.171875 10 65.171875 9.90625 65.171875 
C 9.40625 65.171875 9.296875 65.0625 9.296875 63.078125 
L 9.296875 34.421875 
C 9.296875 32.640625 9.296875 32.140625 10.296875 32.140625 
C 10.796875 32.140625 11 32.34375 11.5 33.03125 
C 14.703125 37.515625 19.09375 39.40625 24.09375 39.40625 
C 27.59375 39.40625 35.09375 37.21875 35.09375 20.140625 
C 35.09375 16.953125 35.09375 11.171875 32.09375 6.578125 
C 29.59375 2.484375 25.703125 0.390625 21.40625 0.390625 
C 14.796875 0.390625 8.09375 5 6.296875 12.71875 
C 6.703125 12.609375 7.5 12.421875 7.90625 12.421875 
C 9.203125 12.421875 11.703125 13.125 11.703125 16.21875 
C 11.703125 18.90625 9.796875 20 7.90625 20 
C 5.59375 20 4.09375 18.59375 4.09375 15.796875 
C 4.09375 7.09375 11 -2 21.59375 -2 
C 31.90625 -2 41.703125 6.875 41.703125 19.75 
C 41.703125 31.71875 33.90625 41 24.203125 41 
C 19.09375 41 14.796875 39.109375 11.40625 35.53125 
z
" id="CMR17-53"/>
      </defs>
      <g transform="translate(36.2765211755 318.897087132)scale(0.12 -0.12)">
       <use transform="scale(0.996264009963)" xlink:href="#CMR17-53"/>
       <use transform="translate(45.6904771171 0.0)scale(0.996264009963)" xlink:href="#CMR17-48"/>
      </g>
     </g>
    </g>
    <g id="ytick_2">
     <g id="line2d_79">
      <g>
       <use style="stroke:#000000;stroke-width:0.5;" x="51.9825016783" xlink:href="#m042a29747f" y="276.216959821"/>
      </g>
     </g>
     <g id="line2d_80">
      <g>
       <use style="stroke:#000000;stroke-width:0.5;" x="411.069918324" xlink:href="#m1396ee04ef" y="276.216959821"/>
      </g>
     </g>
     <g id="text_8">
      <!-- $100$ -->
      <g transform="translate(30.4235309241 279.2027647)scale(0.12 -0.12)">
       <use transform="scale(0.996264009963)" xlink:href="#CMR17-49"/>
       <use transform="translate(45.6904771171 0.0)scale(0.996264009963)" xlink:href="#CMR17-48"/>
       <use transform="translate(91.3809542341 0.0)scale(0.996264009963)" xlink:href="#CMR17-48"/>
      </g>
     </g>
    </g>
    <g id="ytick_3">
     <g id="line2d_81">
      <g>
       <use style="stroke:#000000;stroke-width:0.5;" x="51.9825016783" xlink:href="#m042a29747f" y="236.522637389"/>
      </g>
     </g>
     <g id="line2d_82">
      <g>
       <use style="stroke:#000000;stroke-width:0.5;" x="411.069918324" xlink:href="#m1396ee04ef" y="236.522637389"/>
      </g>
     </g>
     <g id="text_9">
      <!-- $150$ -->
      <g transform="translate(30.4235309241 239.508442269)scale(0.12 -0.12)">
       <use transform="scale(0.996264009963)" xlink:href="#CMR17-49"/>
       <use transform="translate(45.6904771171 0.0)scale(0.996264009963)" xlink:href="#CMR17-53"/>
       <use transform="translate(91.3809542341 0.0)scale(0.996264009963)" xlink:href="#CMR17-48"/>
      </g>
     </g>
    </g>
    <g id="ytick_4">
     <g id="line2d_83">
      <g>
       <use style="stroke:#000000;stroke-width:0.5;" x="51.9825016783" xlink:href="#m042a29747f" y="196.828314958"/>
      </g>
     </g>
     <g id="line2d_84">
      <g>
       <use style="stroke:#000000;stroke-width:0.5;" x="411.069918324" xlink:href="#m1396ee04ef" y="196.828314958"/>
      </g>
     </g>
     <g id="text_10">
      <!-- $200$ -->
      <g transform="translate(30.4235309241 199.814119838)scale(0.12 -0.12)">
       <use transform="scale(0.996264009963)" xlink:href="#CMR17-50"/>
       <use transform="translate(45.6904771171 0.0)scale(0.996264009963)" xlink:href="#CMR17-48"/>
       <use transform="translate(91.3809542341 0.0)scale(0.996264009963)" xlink:href="#CMR17-48"/>
      </g>
     </g>
    </g>
    <g id="ytick_5">
     <g id="line2d_85">
      <g>
       <use style="stroke:#000000;stroke-width:0.5;" x="51.9825016783" xlink:href="#m042a29747f" y="157.133992527"/>
      </g>
     </g>
     <g id="line2d_86">
      <g>
       <use style="stroke:#000000;stroke-width:0.5;" x="411.069918324" xlink:href="#m1396ee04ef" y="157.133992527"/>
      </g>
     </g>
     <g id="text_11">
      <!-- $250$ -->
      <g transform="translate(30.4235309241 160.119797406)scale(0.12 -0.12)">
       <use transform="scale(0.996264009963)" xlink:href="#CMR17-50"/>
       <use transform="translate(45.6904771171 0.0)scale(0.996264009963)" xlink:href="#CMR17-53"/>
       <use transform="translate(91.3809542341 0.0)scale(0.996264009963)" xlink:href="#CMR17-48"/>
      </g>
     </g>
    </g>
    <g id="ytick_6">
     <g id="line2d_87">
      <g>
       <use style="stroke:#000000;stroke-width:0.5;" x="51.9825016783" xlink:href="#m042a29747f" y="117.439670095"/>
      </g>
     </g>
     <g id="line2d_88">
      <g>
       <use style="stroke:#000000;stroke-width:0.5;" x="411.069918324" xlink:href="#m1396ee04ef" y="117.439670095"/>
      </g>
     </g>
     <g id="text_12">
      <!-- $300$ -->
      <g transform="translate(30.4235309241 120.425474975)scale(0.12 -0.12)">
       <use transform="scale(0.996264009963)" xlink:href="#CMR17-51"/>
       <use transform="translate(45.6904771171 0.0)scale(0.996264009963)" xlink:href="#CMR17-48"/>
       <use transform="translate(91.3809542341 0.0)scale(0.996264009963)" xlink:href="#CMR17-48"/>
      </g>
     </g>
    </g>
    <g id="ytick_7">
     <g id="line2d_89">
      <g>
       <use style="stroke:#000000;stroke-width:0.5;" x="51.9825016783" xlink:href="#m042a29747f" y="77.7453476639"/>
      </g>
     </g>
     <g id="line2d_90">
      <g>
       <use style="stroke:#000000;stroke-width:0.5;" x="411.069918324" xlink:href="#m1396ee04ef" y="77.7453476639"/>
      </g>
     </g>
     <g id="text_13">
      <!-- $350$ -->
      <g transform="translate(30.4235309241 80.7311525435)scale(0.12 -0.12)">
       <use transform="scale(0.996264009963)" xlink:href="#CMR17-51"/>
       <use transform="translate(45.6904771171 0.0)scale(0.996264009963)" xlink:href="#CMR17-53"/>
       <use transform="translate(91.3809542341 0.0)scale(0.996264009963)" xlink:href="#CMR17-48"/>
      </g>
     </g>
    </g>
    <g id="ytick_8">
     <g id="line2d_91">
      <g>
       <use style="stroke:#000000;stroke-width:0.5;" x="51.9825016783" xlink:href="#m042a29747f" y="38.0510252325"/>
      </g>
     </g>
     <g id="line2d_92">
      <g>
       <use style="stroke:#000000;stroke-width:0.5;" x="411.069918324" xlink:href="#m1396ee04ef" y="38.0510252325"/>
      </g>
     </g>
     <g id="text_14">
      <!-- $400$ -->
      <g transform="translate(30.4235309241 41.0368301122)scale(0.12 -0.12)">
       <use transform="scale(0.996264009963)" xlink:href="#CMR17-52"/>
       <use transform="translate(45.6904771171 0.0)scale(0.996264009963)" xlink:href="#CMR17-48"/>
       <use transform="translate(91.3809542341 0.0)scale(0.996264009963)" xlink:href="#CMR17-48"/>
      </g>
     </g>
    </g>
    <g id="text_15">
     <!-- $N^2 / T_e$ ($\times 10^6$) -->
     <defs>
      <path d="M 17.90625 23.109375 
C 20.59375 23.109375 27.40625 23.109375 32.203125 24.921875 
C 39.796875 27.859375 40.5 33.71875 40.5 35.53125 
C 40.5 39.96875 36.703125 44 30.09375 44 
C 19.59375 44 4.5 34.53125 4.5 16.765625 
C 4.5 6.28125 10.5 -1 19.59375 -1 
C 33.203125 -1 41.796875 9.515625 41.796875 10.8125 
C 41.796875 11.40625 41.203125 11.90625 40.796875 11.90625 
C 40.5 11.90625 40.40625 11.8125 39.5 10.921875 
C 33.09375 2.484375 23.59375 1 19.796875 1 
C 14.09375 1 11.09375 5.46875 11.09375 12.84375 
C 11.09375 14.234375 11.09375 16.734375 12.59375 23.109375 
z
M 13.09375 25 
C 17.40625 40.5 26.90625 42.015625 30.09375 42.015625 
C 34.5 42.015625 37.5 39.40625 37.5 35.578125 
C 37.5 25 21.5 25 17.296875 25 
z
" id="CMMI12-101"/>
      <path d="M 41.703125 61.09375 
C 42.296875 63.5 42.5 64.390625 44 64.796875 
C 44.796875 65 48.09375 65 50.203125 65 
C 60.203125 65 64.90625 64.59375 64.90625 56.78125 
C 64.90625 55.265625 64.5 51.484375 63.90625 47.765625 
L 63.796875 46.5625 
C 63.796875 46.15625 64.203125 45.5625 64.796875 45.5625 
C 65.796875 45.5625 65.796875 46.0625 66.09375 47.65625 
L 69 65.375 
C 69.203125 66.296875 69.203125 66.5 69.203125 66.796875 
C 69.203125 67.890625 68.59375 67.890625 66.59375 67.890625 
L 11.90625 67.890625 
C 9.59375 67.890625 9.5 67.796875 8.90625 66 
L 2.796875 47.96875 
C 2.703125 47.75 2.40625 46.65625 2.40625 46.5625 
C 2.40625 46.0625 2.796875 45.5625 3.40625 45.5625 
C 4.203125 45.5625 4.40625 45.953125 4.796875 47.25 
C 9 59.390625 11.09375 65 24.40625 65 
L 31.09375 65 
C 33.5 65 34.5 65 34.5 63.890625 
C 34.5 63.578125 34.5 63.390625 34 61.578125 
L 20.59375 7.796875 
C 19.59375 3.890625 19.40625 2.890625 8.796875 2.890625 
C 6.296875 2.890625 5.59375 2.890625 5.59375 1 
C 5.59375 0 6.703125 0 7.203125 0 
C 9.703125 0 12.296875 0 14.796875 0 
L 30.40625 0 
C 32.90625 0 35.59375 0 38.09375 0 
C 39.203125 0 40.203125 0 40.203125 1.890625 
C 40.203125 2.890625 39.5 2.890625 36.90625 2.890625 
C 27.90625 2.890625 27.90625 3.796875 27.90625 5.296875 
C 27.90625 5.40625 27.90625 6.109375 28.296875 7.71875 
z
" id="CMMI12-84"/>
      <path d="M 42.90625 71.28125 
C 42.90625 71.390625 43.5 72.90625 43.5 73.09375 
C 43.5 74.296875 42.5 75 41.703125 75 
C 41.203125 75 40.296875 75 39.5 72.796875 
L 6 -21.296875 
C 6 -21.40625 5.40625 -22.890625 5.40625 -23.09375 
C 5.40625 -24.296875 6.40625 -25 7.203125 -25 
C 7.796875 -25 8.703125 -24.890625 9.40625 -22.796875 
z
" id="CMMI12-61"/>
      <path d="M 23.59375 73 
C 13.59375 59.84375 7.296875 41.5625 7.296875 25.796875 
C 7.296875 9.9375 13.59375 -8.34375 23.59375 -21.5 
L 29.09375 -21.5 
C 20.296875 -7.140625 15.40625 9.734375 15.40625 25.796875 
C 15.40625 41.765625 20.296875 58.734375 29.09375 73 
z
" id="Nimbus_Sans_L_Regular-40"/>
      <path d="M 38.90625 27.890625 
L 18.90625 47.796875 
C 17.703125 49 17.5 49.1875 16.703125 49.1875 
C 15.703125 49.1875 14.703125 48.296875 14.703125 47.1875 
C 14.703125 46.5 14.90625 46.296875 16 45.1875 
L 36 25.09375 
L 16 5 
C 14.90625 3.890625 14.703125 3.6875 14.703125 3 
C 14.703125 1.890625 15.703125 1 16.703125 1 
C 17.5 1 17.703125 1.1875 18.90625 2.390625 
L 38.796875 22.296875 
L 59.5 1.59375 
C 59.703125 1.5 60.40625 1 61 1 
C 62.203125 1 63 1.890625 63 3 
C 63 3.1875 63 3.59375 62.703125 4.09375 
C 62.59375 4.296875 46.703125 20 41.703125 25.09375 
L 60 43.390625 
C 60.5 44 62 45.296875 62.5 45.890625 
C 62.59375 46.09375 63 46.5 63 47.1875 
C 63 48.296875 62.203125 49.1875 61 49.1875 
C 60.203125 49.1875 59.796875 48.796875 58.703125 47.6875 
z
" id="CMSY10-2"/>
      <path d="M 10.59375 34 
C 10.59375 57.65625 21.796875 63 28.296875 63 
C 30.40625 63 35.5 62.640625 37.5 59 
C 35.90625 59 32.90625 59 32.90625 55.515625 
C 32.90625 52.828125 35.09375 51.921875 36.5 51.921875 
C 37.40625 51.921875 40.09375 52.3125 40.09375 55.625 
C 40.09375 61.78125 35.09375 65.296875 28.203125 65.296875 
C 16.296875 65.296875 3.796875 52.96875 3.796875 31 
C 3.796875 3.953125 15.09375 -2 23.09375 -2 
C 32.796875 -2 42 6.671875 42 20.046875 
C 42 32.515625 33.90625 41.59375 23.703125 41.59375 
C 17.59375 41.59375 13.09375 37.609375 10.59375 30.625 
z
M 23.09375 0.390625 
C 10.796875 0.390625 10.796875 18.75 10.796875 22.4375 
C 10.796875 29.625 14.203125 40 23.5 40 
C 25.203125 40 30.09375 40 33.40625 33.125 
C 35.203125 29.21875 35.203125 25.140625 35.203125 20.140625 
C 35.203125 14.75 35.203125 10.78125 33.09375 6.78125 
C 30.90625 2.671875 27.703125 0.390625 23.09375 0.390625 
" id="CMR17-54"/>
      <path d="M 9.296875 -21.5 
C 19.296875 -8.34375 25.59375 9.9375 25.59375 25.6875 
C 25.59375 41.5625 19.296875 59.84375 9.296875 73 
L 3.796875 73 
C 12.59375 58.640625 17.5 41.765625 17.5 25.6875 
C 17.5 9.734375 12.59375 -7.25 3.796875 -21.5 
z
" id="Nimbus_Sans_L_Regular-41"/>
     </defs>
     <g transform="translate(22.8771563667 211.739998747)rotate(-90.0)scale(0.12 -0.12)">
      <use transform="translate(0.0 14.9439145441)scale(0.996264009963)" xlink:href="#CMMI12-78"/>
      <use transform="translate(88.5217726008 51.097553486)scale(0.697381766617)" xlink:href="#CMR17-50"/>
      <use transform="translate(121.00308657 14.9439145441)scale(0.996264009963)" xlink:href="#CMMI12-61"/>
      <use transform="translate(169.778005332 14.9439145441)scale(0.996264009963)" xlink:href="#CMMI12-84"/>
      <use transform="translate(226.953048991 0.0)scale(0.697381766617)" xlink:href="#CMMI12-101"/>
      <use transform="translate(286.794606894 14.9439145441)scale(0.996264009963)" xlink:href="#Nimbus_Sans_L_Regular-40"/>
      <use transform="translate(319.969836623 14.9439145441)scale(0.996264009963)" xlink:href="#CMSY10-2"/>
      <use transform="translate(397.457304274 14.9439145441)scale(0.996264009963)" xlink:href="#CMR17-49"/>
      <use transform="translate(443.147781391 14.9439145441)scale(0.996264009963)" xlink:href="#CMR17-48"/>
      <use transform="translate(488.838258508 51.097553486)scale(0.697381766617)" xlink:href="#CMR17-54"/>
      <use transform="translate(521.319572477 14.9439145441)scale(0.996264009963)" xlink:href="#Nimbus_Sans_L_Regular-41"/>
     </g>
    </g>
   </g>
   <g id="text_16">
    <!-- $a_i^{n+1} = a_i^{n} + \sum_j^N a_j^{n} \sqrt{\mathbf{dx}_{ij}^{n} \cdot \mathbf{dx}_{ij}^{n} + (b_j^{n})^2}$ -->
    <defs>
     <path d="M 30.09375 11.875 
C 29.59375 10.171875 29.59375 9.984375 28.203125 8.078125 
C 26 5.28125 21.59375 1 16.90625 1 
C 12.796875 1 10.5 4.6875 10.5 10.578125 
C 10.5 16.0625 13.59375 27.234375 15.5 31.4375 
C 18.90625 38.421875 23.59375 42.015625 27.5 42.015625 
C 34.09375 42.015625 35.40625 33.828125 35.40625 33.03125 
C 35.40625 32.9375 35.09375 31.625 35 31.4375 
z
M 36.5 37.421875 
C 35.40625 40.015625 32.703125 44 27.5 44 
C 16.203125 44 4 29.4375 4 14.671875 
C 4 4.796875 9.796875 -1 16.59375 -1 
C 22.09375 -1 26.796875 3.296875 29.59375 6.59375 
C 30.59375 0.703125 35.296875 -1 38.296875 -1 
C 41.296875 -1 43.703125 0.796875 45.5 4.390625 
C 47.09375 7.78125 48.5 13.875 48.5 14.265625 
C 48.5 14.765625 48.09375 15.171875 47.5 15.171875 
C 46.59375 15.171875 46.5 14.671875 46.09375 13.171875 
C 44.59375 7.28125 42.703125 1 38.59375 1 
C 35.703125 1 35.5 3.59375 35.5 5.59375 
C 35.5 7.890625 35.796875 8.984375 36.703125 12.875 
C 37.40625 15.375 37.90625 17.5625 38.703125 20.453125 
C 42.40625 35.421875 43.296875 39.015625 43.296875 39.609375 
C 43.296875 41.015625 42.203125 42.109375 40.703125 42.109375 
C 37.5 42.109375 36.703125 38.625 36.5 37.421875 
" id="CMMI12-97"/>
     <path d="M 28.296875 14.265625 
C 28.296875 14.765625 27.90625 15.171875 27.296875 15.171875 
C 26.40625 15.171875 26.296875 14.875 25.796875 13.171875 
C 23.203125 4.09375 19.09375 1 15.796875 1 
C 14.59375 1 13.203125 1.296875 13.203125 4.296875 
C 13.203125 6.984375 14.40625 9.984375 15.5 12.96875 
L 22.5 31.53125 
C 22.796875 32.328125 23.5 34.125 23.5 36.015625 
C 23.5 40.21875 20.5 44 15.59375 44 
C 6.40625 44 2.703125 29.53125 2.703125 28.734375 
C 2.703125 28.34375 3.09375 27.84375 3.796875 27.84375 
C 4.703125 27.84375 4.796875 28.234375 5.203125 29.625 
C 7.59375 37.9375 11.40625 41.90625 15.296875 41.90625 
C 16.203125 41.90625 17.90625 41.90625 17.90625 38.71875 
C 17.90625 36.125 16.59375 32.828125 15.796875 30.640625 
L 8.796875 12.078125 
C 8.203125 10.484375 7.59375 8.875 7.59375 7.078125 
C 7.59375 2.59375 10.703125 -1 15.5 -1 
C 24.703125 -1 28.296875 13.578125 28.296875 14.265625 
M 27.5 62.703125 
C 27.5 64.203125 26.296875 66 24.09375 66 
C 21.796875 66 19.203125 63.796875 19.203125 61.203125 
C 19.203125 58.71875 21.296875 57.921875 22.5 57.921875 
C 25.203125 57.921875 27.5 60.515625 27.5 62.703125 
" id="CMMI12-105"/>
     <path d="M 19.203125 25.296875 
C 19.203125 28.203125 16.796875 30.59375 13.90625 30.59375 
C 11 30.59375 8.59375 28.203125 8.59375 25.296875 
C 8.59375 22.390625 11 20 13.90625 20 
C 16.796875 20 19.203125 22.390625 19.203125 25.296875 
" id="CMSY10-1"/>
     <path d="M 64.296875 31.515625 
C 65.796875 31.515625 67.296875 31.515625 67.296875 33.203125 
C 67.296875 35 65.59375 35 63.90625 35 
L 8 35 
C 6.296875 35 4.59375 35 4.59375 33.203125 
C 4.59375 31.515625 6.09375 31.515625 7.59375 31.515625 
z
M 63.90625 14 
C 65.59375 14 67.296875 14 67.296875 15.796875 
C 67.296875 17.484375 65.796875 17.484375 64.296875 17.484375 
L 7.59375 17.484375 
C 6.09375 17.484375 4.59375 17.484375 4.59375 15.796875 
C 4.59375 14 6.296875 14 8 14 
z
" id="CMR17-61"/>
     <path d="M 23.09375 66.515625 
C 23.203125 66.921875 23.40625 67.515625 23.40625 68 
C 23.40625 69 22.40625 69 22.203125 69 
C 22.09375 69 18.5 68.640625 16.703125 68.390625 
C 15 68.390625 13.5 68.09375 11.703125 68.09375 
C 9.296875 67.890625 8.59375 67.796875 8.59375 66 
C 8.59375 65 9.59375 65 10.59375 65 
C 15.703125 65 15.703125 64.109375 15.703125 63.125 
C 15.703125 62.4375 14.90625 59.546875 14.5 57.75 
L 12.09375 48.203125 
C 11.09375 44.234375 5.40625 21.671875 5 19.875 
C 4.5 17.40625 4.5 15.703125 4.5 14.40625 
C 4.5 4.28125 10.203125 -1 16.703125 -1 
C 28.296875 -1 40.296875 13.875 40.296875 28.34375 
C 40.296875 37.515625 35.09375 44 27.59375 44 
C 22.40625 44 17.703125 39.71875 15.796875 37.71875 
z
M 16.796875 1 
C 13.59375 1 10.09375 3.390625 10.09375 11.171875 
C 10.09375 14.46875 10.40625 16.359375 12.203125 23.34375 
C 12.5 24.640625 14.09375 31.03125 14.5 32.328125 
C 14.703125 33.125 20.59375 42.015625 27.40625 42.015625 
C 31.796875 42.015625 33.796875 37.625 33.796875 32.4375 
C 33.796875 27.640625 31 16.359375 28.5 11.171875 
C 26 5.78125 21.40625 1 16.796875 1 
" id="CMMI12-98"/>
     <path d="M 34.703125 69 
L 34.703125 64.328125 
C 40.90625 64.328125 41.59375 64.328125 41.59375 60.421875 
L 41.59375 40.234375 
C 39.40625 42.125 35 45 28.09375 45 
C 13.90625 45 3.796875 36.21875 3.796875 22.25 
C 3.796875 7.96875 13.703125 -0.5 27 -0.5 
C 32.5 -0.5 37.203125 1.46875 41.09375 4.859375 
L 41.09375 0 
L 58.90625 0 
L 58.90625 4.5625 
C 52.703125 4.5625 52 4.5625 52 8.4375 
L 52 69 
z
M 41.09375 10.328125 
C 36.90625 4.09375 31.796875 2.78125 28.203125 2.78125 
C 15.796875 2.78125 15.796875 15.453125 15.796875 22.046875 
C 15.796875 26.75 15.796875 31.75 18 35.53125 
C 21.09375 41.125 27 41.71875 29.296875 41.71875 
C 33.40625 41.71875 37.796875 39.9375 41.09375 35.5625 
z
" id="CMBX12-100"/>
     <path d="M 20.59375 29.234375 
C 20.796875 29.84375 23.296875 34.828125 27 38.015625 
C 29.59375 40.40625 33 42.015625 36.90625 42.015625 
C 40.90625 42.015625 42.296875 39.015625 42.296875 35.03125 
C 42.296875 29.34375 38.203125 17.96875 36.203125 12.578125 
C 35.296875 10.171875 34.796875 8.875 34.796875 7.078125 
C 34.796875 2.59375 37.90625 -1 42.703125 -1 
C 52 -1 55.5 13.671875 55.5 14.265625 
C 55.5 14.765625 55.09375 15.171875 54.5 15.171875 
C 53.59375 15.171875 53.5 14.875 53 13.171875 
C 50.703125 4.984375 46.90625 1 43 1 
C 42 1 40.40625 1 40.40625 4.203125 
C 40.40625 6.703125 41.5 9.703125 42.09375 11.09375 
C 44.09375 16.609375 48.296875 27.8125 48.296875 33.515625 
C 48.296875 39.5 44.796875 44 37.203125 44 
C 28.296875 44 23.59375 37.734375 21.796875 35.234375 
C 21.5 40.90625 17.40625 44 13 44 
C 9.796875 44 7.59375 42.109375 5.90625 38.71875 
C 4.09375 35.125 2.703125 29.140625 2.703125 28.734375 
C 2.703125 28.34375 3.09375 27.84375 3.796875 27.84375 
C 4.59375 27.84375 4.703125 27.9375 5.296875 30.234375 
C 6.90625 36.328125 8.703125 42.015625 12.703125 42.015625 
C 15 42.015625 15.796875 40.40625 15.796875 37.421875 
C 15.796875 35.21875 14.796875 31.328125 14.09375 28.234375 
L 11.296875 17.46875 
C 10.90625 15.5625 9.796875 11.078125 9.296875 9.28125 
C 8.59375 6.6875 7.5 2 7.5 1.5 
C 7.5 0.09375 8.59375 -1 10.09375 -1 
C 11.296875 -1 12.703125 -0.40625 13.5 1.09375 
C 13.703125 1.59375 14.59375 5.09375 15.09375 7.078125 
L 17.296875 16.0625 
z
" id="CMMI12-110"/>
     <path d="M 37.703125 23 
L 64.203125 23 
C 65.59375 23 67.296875 23 67.296875 24.6875 
C 67.296875 26.484375 65.703125 26.484375 64.203125 26.484375 
L 37.703125 26.484375 
L 37.703125 52.90625 
C 37.703125 54.296875 37.703125 56 36 56 
C 34.203125 56 34.203125 54.40625 34.203125 52.90625 
L 34.203125 26.484375 
L 7.703125 26.484375 
C 6.296875 26.484375 4.59375 26.484375 4.59375 24.796875 
C 4.59375 23 6.203125 23 7.703125 23 
L 34.203125 23 
L 34.203125 -3.40625 
C 34.203125 -4.796875 34.203125 -6.5 35.90625 -6.5 
C 37.703125 -6.5 37.703125 -4.90625 37.703125 -3.40625 
z
" id="CMR17-43"/>
     <path d="M 33.703125 24.484375 
L 45.296875 37.734375 
C 46.40625 39.03125 47.296875 39.828125 55.59375 39.828125 
L 55.59375 44 
C 50 44 49.796875 44 46.40625 44 
C 43.5 44 39.203125 44 36.40625 44.09375 
L 36.40625 39.828125 
C 38.296875 39.828125 40.40625 39.328125 40.40625 38.625 
C 40.40625 38.4375 39.90625 37.734375 39.703125 37.53125 
L 31 27.78125 
L 21.09375 39.828125 
L 25.296875 39.828125 
L 25.296875 44.09375 
C 23 44 16.203125 44 13.5 44 
C 10.5 44 5.09375 44 2.296875 44.09375 
L 2.296875 39.828125 
L 9.40625 39.828125 
L 25 20.90625 
L 12 6.265625 
C 10.796875 4.875 10.09375 4.171875 1.796875 4.171875 
L 1.796875 0 
C 7.796875 0 8 0 11.09375 0 
C 14 0 18.203125 0 21 -0.09375 
L 21 4.171875 
C 19.09375 4.171875 17 4.671875 17 5.375 
C 17 5.46875 17 5.5625 17.703125 6.359375 
L 27.703125 17.625 
L 38.796875 4.171875 
L 34.59375 4.171875 
L 34.59375 -0.09375 
C 37 0 43.703125 0 46.5 0 
C 49.5 0 54.796875 0 57.59375 -0.09375 
L 57.59375 4.171875 
L 50.59375 4.171875 
z
" id="CMBX12-120"/>
     <path d="M 26.296875 24.703125 
C 26.296875 31.875 25.59375 44.015625 19.59375 56.859375 
C 14.796875 67.234375 6.59375 74.5 5.40625 74.5 
C 5.09375 74.5 4.703125 74.390625 4.703125 73.890625 
C 4.703125 73.703125 4.796875 73.59375 4.90625 73.390625 
C 9.703125 68.40625 21.90625 55.75 21.90625 24.75 
C 21.90625 -6.359375 9.796875 -19.015625 4.90625 -24.015625 
C 4.796875 -24.203125 4.703125 -24.3125 4.703125 -24.5 
C 4.703125 -25 5.09375 -25 5.40625 -25 
C 6.5 -25 15 -17.625 19.90625 -6.65625 
C 24.90625 4.390625 26.296875 15.140625 26.296875 24.703125 
" id="CMR17-41"/>
     <path d="M 30.59375 -24.390625 
C 30.59375 -24.296875 30.59375 -24.09375 30.296875 -23.796875 
C 25.703125 -19.125 13.40625 -6.359375 13.40625 24.703125 
C 13.40625 55.765625 25.5 68.421875 30.40625 73.390625 
C 30.40625 73.5 30.59375 73.703125 30.59375 74 
C 30.59375 74.296875 30.296875 74.5 29.90625 74.5 
C 28.796875 74.5 20.296875 67.125 15.40625 56.15625 
C 10.40625 45.109375 9 34.359375 9 24.8125 
C 9 17.625 9.703125 5.484375 15.703125 -7.359375 
C 20.5 -17.734375 28.703125 -25 29.90625 -25 
C 30.40625 -25 30.59375 -24.796875 30.59375 -24.390625 
" id="CMR17-40"/>
     <path d="M 46.40625 -161 
L 24.90625 -86 
L 11 -102.296875 
L 12.59375 -103.796875 
L 19.40625 -95.796875 
L 42.40625 -176 
C 45.703125 -176 45.796875 -176 46.59375 -173.59375 
L 101.5 0 
C 102 1.5 102 1.90625 102 2 
C 102 3.09375 101.203125 4 100 4 
C 98.5 4 98.09375 2.703125 97.703125 1.40625 
z
" id="CMEX10-113"/>
     <path d="M 42.09375 -53.40625 
L 6.59375 -97.296875 
C 5.796875 -98.296875 5.703125 -98.5 5.703125 -98.90625 
C 5.703125 -100 6.59375 -100 8.40625 -100 
L 91.296875 -100 
L 99.90625 -75.09375 
L 97.40625 -75.09375 
C 94.90625 -82.59375 88.203125 -88.703125 79.703125 -91.59375 
C 78.09375 -92.09375 71.203125 -94.5 56.5 -94.5 
L 14 -94.5 
L 48.703125 -51.59375 
C 49.40625 -50.703125 49.59375 -50.40625 49.59375 -50 
C 49.59375 -49.59375 49.5 -49.5 48.90625 -48.59375 
L 16.40625 -4 
L 56 -4 
C 67.40625 -4 90.40625 -4.703125 97.40625 -23.40625 
L 99.90625 -23.40625 
L 91.296875 0 
L 8.40625 0 
C 5.703125 0 5.59375 -0.09375 5.59375 -3.203125 
z
" id="CMEX10-80"/>
     <path d="M 35 31.6875 
C 35.40625 33.296875 35.40625 34.671875 35.40625 35.078125 
C 35.40625 40.828125 31.09375 44 26.59375 44 
C 16.5 44 11.09375 29.515625 11.09375 28.828125 
C 11.09375 28.328125 11.5 27.9375 12.09375 27.9375 
C 12.90625 27.9375 13 28.328125 13.5 29.3125 
C 17.5 38.9375 22.5 42.015625 26.296875 42.015625 
C 28.40625 42.015625 29.5 40.90625 29.5 37.453125 
C 29.5 35.078125 29.203125 34.078125 28.796875 32.296875 
L 19.296875 -5.109375 
C 17.40625 -12.4375 12.703125 -18 7.203125 -18 
C 6.796875 -18 4.703125 -18 2.796875 -17 
C 5.203125 -16.5 7.09375 -14.625 7.09375 -12.25 
C 7.09375 -10.65625 5.90625 -9.0625 3.703125 -9.0625 
C 1.09375 -9.0625 -1.296875 -11.25 -1.296875 -14.234375 
C -1.296875 -18.296875 3.09375 -20 7.203125 -20 
C 14.09375 -20 23.203125 -14.9375 25.703125 -5 
z
M 39.09375 62.703125 
C 39.09375 65.203125 37 66 35.796875 66 
C 33.09375 66 30.796875 63.40625 30.796875 61.203125 
C 30.796875 59.71875 32 57.921875 34.203125 57.921875 
C 36.5 57.921875 39.09375 60.109375 39.09375 62.703125 
" id="CMMI12-106"/>
    </defs>
    <g transform="translate(111.203023148 33.0510252325)scale(0.144 -0.144)">
     <use transform="translate(0.0 28.3941779606)scale(0.996264009963)" xlink:href="#CMMI12-97"/>
     <use transform="translate(51.2078576189 67.1378965841)scale(0.697381766617)" xlink:href="#CMMI12-110"/>
     <use transform="translate(91.9687007462 67.1378965841)scale(0.697381766617)" xlink:href="#CMR17-43"/>
     <use transform="translate(142.168832211 67.1378965841)scale(0.697381766617)" xlink:href="#CMR17-49"/>
     <use transform="translate(51.2078576189 1.05045836414)scale(0.697381766617)" xlink:href="#CMMI12-105"/>
     <use transform="translate(202.324154903 28.3941779606)scale(0.996264009963)" xlink:href="#CMR17-61"/>
     <use transform="translate(301.71295204 28.3941779606)scale(0.996264009963)" xlink:href="#CMMI12-97"/>
     <use transform="translate(352.920809659 64.5478169024)scale(0.697381766617)" xlink:href="#CMMI12-110"/>
     <use transform="translate(352.920809659 2.8883690555)scale(0.697381766617)" xlink:href="#CMMI12-105"/>
     <use transform="translate(416.318991769 28.3941779606)scale(0.996264009963)" xlink:href="#CMR17-43"/>
     <use transform="translate(510.172987162 103.114632384)scale(0.996264009963)" xlink:href="#CMEX10-80"/>
     <use transform="translate(615.334539544 76.1881409071)scale(0.697381766617)" xlink:href="#CMMI12-78"/>
     <use transform="translate(615.334539544 0.0)scale(0.697381766617)" xlink:href="#CMMI12-106"/>
     <use transform="translate(694.402050052 28.3941779606)scale(0.996264009963)" xlink:href="#CMMI12-97"/>
     <use transform="translate(745.60990767 64.5478169024)scale(0.697381766617)" xlink:href="#CMMI12-110"/>
     <use transform="translate(745.60990767 2.8883690555)scale(0.697381766617)" xlink:href="#CMMI12-106"/>
     <use transform="translate(786.868882803 135.420092135)scale(0.996264009963)" xlink:href="#CMEX10-113"/>
     <use transform="translate(886.495557431 28.3941779606)scale(0.996264009963)" xlink:href="#CMBX12-100"/>
     <use transform="translate(948.762058054 28.3941779606)scale(0.996264009963)" xlink:href="#CMBX12-120"/>
     <use transform="translate(1007.91523365 70.6526094772)scale(0.697381766617)" xlink:href="#CMMI12-110"/>
     <use transform="translate(1007.91523365 3.76482781853)scale(0.697381766617)" xlink:href="#CMMI12-105"/>
     <use transform="translate(1031.21014093 3.76482781853)scale(0.697381766617)" xlink:href="#CMMI12-106"/>
     <use transform="translate(1086.0210642 28.3941779606)scale(0.996264009963)" xlink:href="#CMSY10-1"/>
     <use transform="translate(1135.83435591 28.3941779606)scale(0.996264009963)" xlink:href="#CMBX12-100"/>
     <use transform="translate(1198.10085653 28.3941779606)scale(0.996264009963)" xlink:href="#CMBX12-120"/>
     <use transform="translate(1257.25403212 70.6526094772)scale(0.697381766617)" xlink:href="#CMMI12-110"/>
     <use transform="translate(1257.25403212 3.76482781853)scale(0.697381766617)" xlink:href="#CMMI12-105"/>
     <use transform="translate(1280.5489394 3.76482781853)scale(0.697381766617)" xlink:href="#CMMI12-106"/>
     <use transform="translate(1335.35986267 28.3941779606)scale(0.996264009963)" xlink:href="#CMR17-43"/>
     <use transform="translate(1429.21385807 28.3941779606)scale(0.996264009963)" xlink:href="#CMR17-40"/>
     <use transform="translate(1464.49462587 28.3941779606)scale(0.996264009963)" xlink:href="#CMMI12-98"/>
     <use transform="translate(1505.97050003 62.7099062111)scale(0.697381766617)" xlink:href="#CMMI12-110"/>
     <use transform="translate(1505.97050003 1.05045836414)scale(0.697381766617)" xlink:href="#CMMI12-106"/>
     <use transform="translate(1547.22947516 28.3941779606)scale(0.996264009963)" xlink:href="#CMR17-41"/>
     <use transform="translate(1582.51024296 57.1751348702)scale(0.697381766617)" xlink:href="#CMR17-50"/>
     <path d="M 886.495557 135.420092 
L 1614.991557 135.420092 
L 1614.991557 139.405042 
L 886.495557 139.405042 
L 886.495557 135.420092 
z
"/>
    </g>
   </g>
   <g id="legend_1">
    <g id="patch_7">
     <path d="M 289.090503 308.711282 
L 400.989918 308.711282 
Q 403.869918 308.711282 403.869918 305.831282 
L 403.869918 266.316839 
Q 403.869918 263.436839 400.989918 263.436839 
L 289.090503 263.436839 
Q 286.210503 263.436839 286.210503 266.316839 
L 286.210503 305.831282 
Q 286.210503 308.711282 289.090503 308.711282 
z
" style="fill:#ffffff;opacity:0.3;stroke:#000000;stroke-linejoin:miter;"/>
    </g>
    <g id="line2d_93">
     <path d="M 296.290503 274.378411 
L 316.450503 274.378411 
" style="fill:none;stroke:#0000ff;stroke-linecap:square;"/>
    </g>
    <g id="line2d_94"/>
    <g id="text_17">
     <!-- Aboria -->
     <defs>
      <path d="M 53.5 5.203125 
C 52.59375 5 52.203125 5 51.703125 5 
C 48.796875 5 47.203125 6.484375 47.203125 9.078125 
L 47.203125 39.765625 
C 47.203125 49.015625 40.40625 54 27.5 54 
C 19.90625 54 13.59375 51.8125 10.09375 47.90625 
C 7.703125 45.203125 6.703125 42.21875 6.5 37.03125 
L 14.90625 37.03125 
C 15.59375 43.390625 19.40625 46.28125 27.203125 46.28125 
C 34.703125 46.28125 38.90625 43.484375 38.90625 38.515625 
L 38.90625 36.328125 
C 38.90625 32.828125 36.796875 31.34375 30.203125 30.546875 
C 18.40625 29.0625 16.59375 28.65625 13.40625 27.359375 
C 7.296875 24.875 4.203125 20.1875 4.203125 13.421875 
C 4.203125 3.96875 10.796875 -2 21.40625 -2 
C 28 -2 33.296875 0.296875 39.203125 5.703125 
C 39.796875 0.390625 42.40625 -2 47.796875 -2 
C 49.5 -2 50.796875 -1.8125 53.5 -1.09375 
z
M 38.90625 16.75 
C 38.90625 13.953125 38.09375 12.265625 35.59375 9.984375 
C 32.203125 6.890625 28.09375 5.3125 23.203125 5.3125 
C 16.703125 5.3125 12.90625 8.390625 12.90625 13.65625 
C 12.90625 19.140625 16.59375 21.921875 25.5 23.21875 
C 34.296875 24.40625 36.09375 24.8125 38.90625 26.09375 
z
" id="Nimbus_Sans_L_Regular-97"/>
      <path d="M 5.40625 73 
L 5.40625 -0.03125 
L 12.90625 -0.03125 
L 12.90625 7 
C 16.90625 0.890625 22.203125 -2 29.5 -2 
C 43.296875 -2 52.296875 9.25 52.296875 26.59375 
C 52.296875 43.53125 43.703125 54 29.90625 54 
C 22.703125 54 17.59375 51.28125 13.703125 45.390625 
L 13.703125 73 
z
M 28.296875 46.1875 
C 37.59375 46.1875 43.59375 38.125 43.59375 25.703125 
C 43.59375 13.859375 37.40625 5.8125 28.296875 5.8125 
C 19.5 5.8125 13.703125 13.765625 13.703125 26 
C 13.703125 38.234375 19.5 46.1875 28.296875 46.1875 
" id="Nimbus_Sans_L_Regular-98"/>
      <path d="M 47.40625 22 
L 54.90625 0 
L 65.296875 0 
L 39.703125 73 
L 27.703125 73 
L 1.703125 0 
L 11.59375 0 
L 19.296875 22 
z
M 44.796875 29.8125 
L 21.59375 29.8125 
L 33.59375 63 
z
" id="Nimbus_Sans_L_Regular-65"/>
      <path d="M 15 52.484375 
L 6.703125 52.484375 
L 6.703125 0 
L 15 0 
z
M 15 73 
L 6.59375 73 
L 6.59375 62.484375 
L 15 62.484375 
z
" id="Nimbus_Sans_L_Regular-105"/>
      <path d="M 27.203125 54 
C 12.5 54 3.59375 43.53125 3.59375 25.984375 
C 3.59375 8.453125 12.40625 -2 27.296875 -2 
C 42 -2 51 8.453125 51 25.59375 
C 51 43.625 42.296875 54 27.203125 54 
M 27.296875 46.28125 
C 36.703125 46.28125 42.296875 38.625 42.296875 25.703125 
C 42.296875 13.453125 36.5 5.703125 27.296875 5.703125 
C 18 5.703125 12.296875 13.359375 12.296875 25.984375 
C 12.296875 38.53125 18 46.28125 27.296875 46.28125 
" id="Nimbus_Sans_L_Regular-111"/>
      <path d="M 6.90625 52.484375 
L 6.90625 0 
L 15.296875 0 
L 15.296875 27.203125 
C 15.296875 34.703125 17.203125 39.609375 21.203125 42.5 
C 23.796875 44.40625 26.296875 45 32.09375 45 
L 32.09375 53.625 
C 30.703125 53.8125 30 53.8125 28.90625 53.8125 
C 23.5 53.8125 19.40625 50.625 14.59375 42.90625 
L 14.59375 52.484375 
z
" id="Nimbus_Sans_L_Regular-114"/>
     </defs>
     <g transform="translate(332.290502729 279.418411256)scale(0.144 -0.144)">
      <use transform="scale(0.996264009963)" xlink:href="#Nimbus_Sans_L_Regular-65"/>
      <use transform="translate(66.4500311333 0.0)scale(0.996264009963)" xlink:href="#Nimbus_Sans_L_Regular-98"/>
      <use transform="translate(121.841708097 0.0)scale(0.996264009963)" xlink:href="#Nimbus_Sans_L_Regular-111"/>
      <use transform="translate(177.23338506 0.0)scale(0.996264009963)" xlink:href="#Nimbus_Sans_L_Regular-114"/>
      <use transform="translate(211.901992285 0.0)scale(0.996264009963)" xlink:href="#Nimbus_Sans_L_Regular-105"/>
      <use transform="translate(234.018776634 0.0)scale(0.996264009963)" xlink:href="#Nimbus_Sans_L_Regular-97"/>
     </g>
    </g>
    <g id="line2d_95">
     <path d="M 296.290503 294.855633 
L 316.450503 294.855633 
" style="fill:none;stroke:#008000;stroke-linecap:square;"/>
    </g>
    <g id="line2d_96"/>
    <g id="text_18">
     <!-- std::vector -->
     <defs>
      <path d="M 21.40625 10.421875 
L 11 10.421875 
L 11 0 
L 21.40625 0 
z
M 21.40625 52.40625 
L 11 52.40625 
L 11 42 
L 21.40625 42 
z
" id="Nimbus_Sans_L_Regular-58"/>
      <path d="M 25.40625 52.8125 
L 16.796875 52.8125 
L 16.796875 67 
L 8.5 67 
L 8.5 52.8125 
L 1.40625 52.8125 
L 1.40625 46 
L 8.5 46 
L 8.5 6.3125 
C 8.5 1 12.09375 -2 18.59375 -2 
C 20.59375 -2 22.59375 -1.8125 25.40625 -1.296875 
L 25.40625 5.71875 
C 24.296875 5.40625 23 5.3125 21.40625 5.3125 
C 17.796875 5.3125 16.796875 6.3125 16.796875 10.015625 
L 16.796875 46 
L 25.40625 46 
z
" id="Nimbus_Sans_L_Regular-116"/>
      <path d="M 28.5 0 
L 48.59375 52.5 
L 39.203125 52.5 
L 24.40625 9.921875 
L 10.40625 52.5 
L 1 52.5 
L 19.40625 0 
z
" id="Nimbus_Sans_L_Regular-118"/>
      <path d="M 47.09375 34.9375 
C 46.703125 40.03125 45.59375 43.328125 43.59375 46.21875 
C 40 51.109375 33.703125 54 26.40625 54 
C 12.296875 54 3.09375 42.84375 3.09375 25.5 
C 3.09375 8.65625 12.09375 -2 26.296875 -2 
C 38.796875 -2 46.703125 5.46875 47.703125 18.234375 
L 39.296875 18.234375 
C 37.90625 9.875 33.59375 5.703125 26.5 5.703125 
C 17.296875 5.703125 11.796875 13.171875 11.796875 25.5 
C 11.796875 38.53125 17.203125 46.28125 26.296875 46.28125 
C 33.296875 46.28125 37.703125 42.203125 38.703125 34.9375 
z
" id="Nimbus_Sans_L_Regular-99"/>
      <path d="M 51.296875 23.890625 
C 51.296875 31.78125 50.703125 36.53125 49.203125 40.375 
C 45.796875 48.859375 37.796875 54 28 54 
C 13.40625 54 4 42.84375 4 25.703125 
C 4 8.546875 13.09375 -2 27.796875 -2 
C 39.796875 -2 48.09375 4.84375 50.203125 16.3125 
L 41.796875 16.3125 
C 39.5 9.34375 34.796875 5.703125 28.09375 5.703125 
C 22.796875 5.703125 18.296875 8.125 15.5 12.578125 
C 13.5 15.59375 12.796875 18.640625 12.703125 23.890625 
z
M 12.90625 31 
C 13.59375 40.265625 19.5 46.28125 27.90625 46.28125 
C 36.09375 46.28125 42.40625 39.53125 42.40625 31 
C 42.40625 31 42.40625 31 42.296875 31 
z
" id="Nimbus_Sans_L_Regular-101"/>
      <path d="M 49.5 73 
L 41.203125 73 
L 41.203125 45.890625 
C 37.703125 51.1875 32.09375 54 25.09375 54 
C 11.5 54 2.59375 43.140625 2.59375 26.484375 
C 2.59375 8.84375 11.296875 -2 25.40625 -2 
C 32.59375 -2 37.59375 0.703125 42.09375 7.203125 
L 42.09375 -0.03125 
L 49.5 -0.03125 
z
M 26.5 46.1875 
C 35.5 46.1875 41.203125 38.234375 41.203125 25.796875 
C 41.203125 13.765625 35.40625 5.8125 26.59375 5.8125 
C 17.40625 5.8125 11.296875 13.859375 11.296875 26 
C 11.296875 38.125 17.40625 46.1875 26.5 46.1875 
" id="Nimbus_Sans_L_Regular-100"/>
      <path d="M 43.796875 37.921875 
C 43.703125 48.203125 36.90625 54 24.796875 54 
C 12.59375 54 4.703125 47.71875 4.703125 38.0625 
C 4.703125 29.890625 8.90625 26.015625 21.296875 23.03125 
L 29.09375 21.140625 
C 34.90625 19.734375 37.203125 17.65625 37.203125 13.875 
C 37.203125 9 32.296875 5.703125 25 5.703125 
C 20.5 5.703125 16.703125 7 14.59375 9.1875 
C 13.296875 10.6875 12.703125 12.171875 12.203125 15.84375 
L 3.40625 15.84375 
C 3.796875 3.765625 10.59375 -2 24.296875 -2 
C 37.5 -2 45.90625 4.453125 45.90625 14.515625 
C 45.90625 22.28125 41.5 26.578125 31.09375 29.0625 
L 23.09375 30.953125 
C 16.296875 32.53125 13.40625 34.734375 13.40625 38.40625 
C 13.40625 43.1875 17.703125 46.28125 24.5 46.28125 
C 31.203125 46.28125 34.796875 43.390625 35 37.921875 
z
" id="Nimbus_Sans_L_Regular-115"/>
     </defs>
     <g transform="translate(332.290502729 299.895632783)scale(0.144 -0.144)">
      <use transform="scale(0.996264009963)" xlink:href="#Nimbus_Sans_L_Regular-115"/>
      <use transform="translate(49.8132004981 0.0)scale(0.996264009963)" xlink:href="#Nimbus_Sans_L_Regular-116"/>
      <use transform="translate(77.5083701014 0.0)scale(0.996264009963)" xlink:href="#Nimbus_Sans_L_Regular-100"/>
      <use transform="translate(132.900047065 0.0)scale(0.996264009963)" xlink:href="#Nimbus_Sans_L_Regular-58"/>
      <use transform="translate(160.595216668 0.0)scale(0.996264009963)" xlink:href="#Nimbus_Sans_L_Regular-58"/>
      <use transform="translate(188.290386271 0.0)scale(0.996264009963)" xlink:href="#Nimbus_Sans_L_Regular-118"/>
      <use transform="translate(235.612957148 0.0)scale(0.996264009963)" xlink:href="#Nimbus_Sans_L_Regular-101"/>
      <use transform="translate(291.004634111 0.0)scale(0.996264009963)" xlink:href="#Nimbus_Sans_L_Regular-99"/>
      <use transform="translate(340.817834609 0.0)scale(0.996264009963)" xlink:href="#Nimbus_Sans_L_Regular-116"/>
      <use transform="translate(368.513004213 0.0)scale(0.996264009963)" xlink:href="#Nimbus_Sans_L_Regular-111"/>
      <use transform="translate(423.904681176 0.0)scale(0.996264009963)" xlink:href="#Nimbus_Sans_L_Regular-114"/>
     </g>
    </g>
   </g>
  </g>
 </g>
 <defs>
  <clipPath id="p4a37eb821c">
   <rect height="277.86025702" width="359.087416646" x="51.9825016783" y="38.0510252325"/>
  </clipPath>
 </defs>
</svg>
