<?xml version="1.0" encoding="utf-8" standalone="no"?>
<!DOCTYPE svg PUBLIC "-//W3C//DTD SVG 1.1//EN"
  "http://www.w3.org/Graphics/SVG/1.1/DTD/svg11.dtd">
<!-- Created with matplotlib (http://matplotlib.org/) -->
<svg height="360pt" version="1.1" viewBox="0 0 432 360" width="432pt" xmlns="http://www.w3.org/2000/svg" xmlns:xlink="http://www.w3.org/1999/xlink">
 <defs>
  <style type="text/css">
*{stroke-linecap:butt;stroke-linejoin:round;stroke-miterlimit:100000;}
  </style>
 </defs>
 <g id="figure_1">
  <g id="patch_1">
   <path d="M 0 360 
L 432 360 
L 432 0 
L 0 0 
z
" style="fill:#ffffff;"/>
  </g>
  <g id="axes_1">
   <g id="patch_2">
    <path d="M 57.835492 315.911282 
L 411.069918 315.911282 
L 411.069918 28.181572 
L 57.835492 28.181572 
z
" style="fill:#ffffff;"/>
   </g>
   <g id="line2d_1">
    <path clip-path="url(#pd590e08cab)" d="M 57.835492 253.395344 
L 62.497082 254.446955 
L 66.438401 244.646963 
L 69.852526 212.34174 
L 74.246387 199.780283 
L 77.994738 196.925182 
L 82.265971 166.961832 
L 86.763136 168.601069 
L 91.286894 163.061039 
L 95.717098 154.069075 
L 99.98833 148.270088 
L 104.485496 148.798689 
L 109.009253 159.725841 
L 113.439458 142.217077 
L 117.955361 138.846529 
L 122.616952 122.839714 
L 127.2447 113.407112 
L 131.878054 96.930887 
L 136.51609 87.495819 
L 141.138375 80.253251 
L 145.799965 68.929854 
L 150.434225 62.857935 
L 155.050199 56.731758 
L 159.683238 51.801715 
L 164.328952 46.621758 
L 168.964061 42.119199 
L 173.614609 39.042135 
L 178.271597 36.561083 
L 182.929352 35.824495 
L 187.58135 140.584416 
L 192.232278 148.054702 
L 196.887202 159.702001 
L 201.546941 146.70155 
L 206.206987 151.61844 
L 210.864719 146.125269 
L 215.526309 134.611148 
L 220.187899 131.554636 
L 224.846512 156.920887 
L 229.506241 128.642811 
L 234.167314 136.078569 
L 238.827181 144.712927 
L 243.488412 168.527082 
L 248.148805 185.762913 
L 252.810146 197.609979 
L 257.471113 209.155339 
L 262.132183 198.718149 
L 266.793341 197.073157 
L 271.454691 202.070611 
L 276.11608 194.888056 
L 280.777337 200.795558 
L 285.438857 199.194136 
L 290.100216 199.051094 
L 294.761806 197.901819 
L 299.423396 203.851247 
L 304.084953 199.730958 
L 308.746459 199.032186 
L 313.408003 197.998003 
L 318.069516 203.600511 
L 322.731074 210.191988 
L 327.39261 203.436916 
L 332.054155 204.980792 
L 336.715718 208.019218 
L 341.377285 216.037834 
L 346.038868 233.079653 
L 350.700453 239.780303 
L 355.362026 245.768205 
L 360.023601 257.270734 
L 364.685179 264.297916 
L 369.346759 267.509308 
L 374.008342 268.456843 
L 378.669931 269.991594 
L 383.33152 267.838553 
L 387.993106 268.614766 
L 392.654696 271.693802 
L 397.316286 269.408982 
L 401.977876 269.551285 
" style="fill:none;stroke:#0000ff;stroke-linecap:square;"/>
   </g>
   <g id="line2d_2">
    <path clip-path="url(#pd590e08cab)" d="M 57.835492 281.940844 
L 62.497082 261.257435 
L 66.438401 255.495606 
L 69.852526 235.707859 
L 74.246387 280.889726 
L 77.994738 218.14977 
L 82.265971 209.306603 
L 86.763136 190.061595 
L 91.286894 188.90821 
L 95.717098 182.681739 
L 99.98833 173.178438 
L 104.485496 177.219807 
L 109.009253 174.600645 
L 113.439458 161.000073 
L 117.955361 141.880844 
L 122.616952 129.275817 
L 127.2447 117.295574 
L 131.878054 103.949026 
L 136.51609 94.30597 
L 141.138375 88.405045 
L 145.799965 76.312176 
L 150.434225 68.757216 
L 155.050199 60.948231 
L 159.683238 54.614889 
L 164.328952 88.934467 
L 168.964061 76.330262 
L 173.614609 41.883261 
L 178.271597 63.119358 
L 182.929352 36.787979 
L 187.58135 135.172632 
L 192.232278 137.19085 
L 196.887202 162.830856 
L 201.546941 151.690783 
L 206.206987 136.52825 
L 210.864719 129.569301 
L 215.526309 160.191141 
L 220.187899 114.593381 
L 224.846512 110.67368 
L 229.506241 125.157994 
L 234.167314 142.708684 
L 238.827181 141.060404 
L 243.488412 177.9268 
L 248.148805 185.778533 
L 252.810146 203.440205 
L 257.471113 198.9434 
L 262.132183 202.538378 
L 266.793341 203.062868 
L 271.454691 196.218189 
L 276.11608 196.897231 
L 280.777337 197.209623 
L 285.438857 199.079044 
L 290.100216 203.381837 
L 294.761806 196.962998 
L 299.423396 202.565506 
L 304.084953 197.431586 
L 308.746459 199.897841 
L 313.408003 199.374995 
L 318.069516 203.065334 
L 322.731074 210.197743 
L 327.39261 202.891052 
L 332.054155 204.755541 
L 336.715718 209.471842 
L 341.377285 215.445932 
L 346.038868 233.318058 
L 350.700453 239.96593 
L 355.362026 245.732362 
L 360.023601 257.904808 
L 364.685179 264.453701 
L 369.346759 267.937614 
L 374.008342 267.991708 
L 378.669931 270.30004 
L 383.33152 267.897579 
L 387.993106 268.527871 
L 392.654696 271.433119 
L 397.316286 269.256485 
L 401.977876 269.221875 
" style="fill:none;stroke:#008000;stroke-linecap:square;"/>
   </g>
   <g id="line2d_3">
    <path clip-path="url(#pd590e08cab)" d="M 57.835492 232.872488 
L 62.497082 224.568608 
L 66.438401 206.819796 
L 69.852526 199.509817 
L 74.246387 208.560149 
L 77.994738 174.615442 
L 82.265971 159.323841 
L 86.763136 172.335801 
L 91.286894 160.325141 
L 95.717098 124.018584 
L 99.98833 121.60001 
L 104.485496 105.728839 
L 109.009253 96.292949 
L 113.439458 127.271574 
L 117.955361 118.158763 
L 122.616952 98.52902 
L 127.2447 98.321855 
L 131.878054 82.686622 
L 136.51609 74.350681 
L 141.138375 67.663021 
L 145.799965 56.174385 
L 150.434225 52.223445 
L 155.050199 47.279426 
L 159.683238 44.661086 
L 164.328952 40.456944 
L 168.964061 36.206765 
L 173.614609 33.653369 
L 178.271597 32.661935 
L 182.929352 32.30926 
L 187.58135 122.201776 
L 192.232278 117.37696 
L 196.887202 141.785482 
L 201.546941 122.590622 
L 206.206987 132.221347 
L 210.864719 127.048789 
L 215.526309 155.682827 
L 220.187899 128.208751 
L 224.846512 131.253753 
L 229.506241 133.193873 
L 234.167314 133.971566 
L 238.827181 142.125826 
L 243.488412 151.699826 
L 248.148805 192.75639 
L 252.810146 200.994502 
L 257.471113 204.515492 
L 262.132183 205.022718 
L 266.793341 207.671476 
L 271.454691 201.78206 
L 276.11608 202.150354 
L 280.777337 199.765485 
L 285.438857 204.370805 
L 290.100216 200.952576 
L 294.761806 204.933111 
L 299.423396 206.70306 
L 304.084953 197.439807 
L 308.746459 199.592848 
L 313.408003 198.942578 
L 318.069516 197.654371 
L 322.731074 209.718467 
L 327.39261 204.121713 
L 332.054155 204.698817 
L 336.715718 207.816163 
L 341.377285 219.245609 
L 346.038868 230.969361 
L 350.700453 244.178621 
L 355.362026 257.799006 
L 360.023601 271.042465 
L 364.685179 265.191193 
L 369.346759 268.250089 
L 374.008342 268.693275 
L 378.669931 257.214586 
L 383.33152 258.469416 
L 387.993106 256.57451 
L 392.654696 258.078597 
L 397.316286 257.200117 
L 401.977876 258.277213 
" style="fill:none;stroke:#ff0000;stroke-linecap:square;"/>
   </g>
   <g id="line2d_4">
    <path clip-path="url(#pd590e08cab)" d="M 57.835492 258.221147 
L 62.497082 234.71774 
L 66.438401 226.345956 
L 69.852526 213.947272 
L 74.246387 201.481999 
L 77.994738 203.576671 
L 82.265971 190.549092 
L 86.763136 191.292256 
L 91.286894 176.382925 
L 95.717098 168.871535 
L 99.98833 155.504435 
L 104.485496 157.3755 
L 109.009253 170.548588 
L 113.439458 148.643315 
L 117.955361 137.566543 
L 122.616952 126.373035 
L 127.2447 112.411567 
L 131.878054 168.074935 
L 136.51609 89.380859 
L 141.138375 82.057727 
L 145.799965 132.178599 
L 150.434225 65.537109 
L 155.050199 58.362774 
L 159.683238 54.073136 
L 164.328952 48.120419 
L 168.964061 78.703621 
L 173.614609 70.069263 
L 178.271597 38.174836 
L 182.929352 34.746742 
L 187.58135 147.847536 
L 192.232278 140.706085 
L 196.887202 152.566304 
L 201.546941 148.923646 
L 206.206987 148.044015 
L 210.864719 142.49412 
L 215.526309 130.855042 
L 220.187899 127.796064 
L 224.846512 157.905745 
L 229.506241 163.423579 
L 234.167314 137.34869 
L 238.827181 144.845282 
L 243.488412 156.144839 
L 248.148805 192.816402 
L 252.810146 205.321957 
L 257.471113 208.425328 
L 262.132183 204.331345 
L 266.793341 204.550841 
L 271.454691 199.753976 
L 276.11608 209.270431 
L 280.777337 200.27189 
L 285.438857 202.199679 
L 290.100216 197.846739 
L 294.761806 198.105696 
L 299.423396 203.932634 
L 304.084953 199.031364 
L 308.746459 198.244628 
L 313.408003 198.871879 
L 318.069516 196.648962 
L 322.731074 209.615706 
L 327.39261 202.872144 
L 332.054155 203.833161 
L 336.715718 208.573303 
L 341.377285 221.479213 
L 346.038868 231.01622 
L 350.700453 245.665444 
L 355.362026 259.007389 
L 360.023601 271.198496 
L 364.685179 264.948021 
L 369.346759 267.996476 
L 374.008342 268.47123 
L 378.669931 269.869514 
L 383.33152 268.471641 
L 387.993106 268.367647 
L 392.654696 271.763762 
L 397.316286 269.269474 
L 401.977876 269.182909 
" style="fill:none;stroke:#00bfbf;stroke-linecap:square;"/>
   </g>
   <g id="patch_3">
    <path d="M 57.835492 28.181572 
L 411.069918 28.181572 
" style="fill:none;stroke:#000000;stroke-linecap:square;stroke-linejoin:miter;"/>
   </g>
   <g id="patch_4">
    <path d="M 411.069918 315.911282 
L 411.069918 28.181572 
" style="fill:none;stroke:#000000;stroke-linecap:square;stroke-linejoin:miter;"/>
   </g>
   <g id="patch_5">
    <path d="M 57.835492 315.911282 
L 411.069918 315.911282 
" style="fill:none;stroke:#000000;stroke-linecap:square;stroke-linejoin:miter;"/>
   </g>
   <g id="patch_6">
    <path d="M 57.835492 315.911282 
L 57.835492 28.181572 
" style="fill:none;stroke:#000000;stroke-linecap:square;stroke-linejoin:miter;"/>
   </g>
   <g id="matplotlib.axis_1">
    <g id="xtick_1">
     <g id="line2d_5">
      <defs>
       <path d="M 0 0 
L 0 -4 
" id="m420108ceda" style="stroke:#000000;stroke-width:0.5;"/>
      </defs>
      <g>
       <use style="stroke:#000000;stroke-width:0.5;" x="57.8354919297" xlink:href="#m420108ceda" y="315.911282252"/>
      </g>
     </g>
     <g id="line2d_6">
      <defs>
       <path d="M 0 0 
L 0 4 
" id="m3b663a8768" style="stroke:#000000;stroke-width:0.5;"/>
      </defs>
      <g>
       <use style="stroke:#000000;stroke-width:0.5;" x="57.8354919297" xlink:href="#m3b663a8768" y="28.1815720589"/>
      </g>
     </g>
     <g id="text_1">
      <!-- $10^{1}$ -->
      <defs>
       <path d="M 26.59375 63.40625 
C 26.59375 65.5 26.5 65.5 25.09375 65.5 
C 21.203125 61.1875 15.296875 59.796875 9.703125 59.796875 
C 9.40625 59.796875 8.90625 59.796875 8.796875 59.5 
C 8.703125 59.296875 8.703125 59.09375 8.703125 57 
C 11.796875 57 17 57.59375 21 59.984375 
L 21 7.203125 
C 21 3.6875 20.796875 2.5 12.203125 2.5 
L 9.203125 2.5 
L 9.203125 0 
C 14 0 19 0 23.796875 0 
C 28.59375 0 33.59375 0 38.40625 0 
L 38.40625 2.5 
L 35.40625 2.5 
C 26.796875 2.5 26.59375 3.59375 26.59375 7.15625 
z
" id="CMR17-49"/>
       <path d="M 42 31.640625 
C 42 37.75 41.90625 48.125 37.703125 56.109375 
C 34 63.109375 28.09375 65.59375 22.90625 65.59375 
C 18.09375 65.59375 12 63.40625 8.203125 56.203125 
C 4.203125 48.71875 3.796875 39.4375 3.796875 31.640625 
C 3.796875 25.953125 3.90625 17.28125 7 9.671875 
C 11.296875 -0.609375 19 -2 22.90625 -2 
C 27.5 -2 34.5 -0.109375 38.59375 9.375 
C 41.59375 16.28125 42 24.359375 42 31.640625 
M 22.90625 -0.40625 
C 16.5 -0.40625 12.703125 5.078125 11.296875 12.6875 
C 10.203125 18.5625 10.203125 27.15625 10.203125 32.75 
C 10.203125 40.4375 10.203125 46.828125 11.5 52.921875 
C 13.40625 61.390625 19 64 22.90625 64 
C 27 64 32.296875 61.296875 34.203125 53.125 
C 35.5 47.4375 35.59375 40.734375 35.59375 32.75 
C 35.59375 26.25 35.59375 18.265625 34.40625 12.375 
C 32.296875 1.484375 26.40625 -0.40625 22.90625 -0.40625 
" id="CMR17-48"/>
      </defs>
      <g transform="translate(49.8654102535 328.429266569)scale(0.12 -0.12)">
       <use transform="scale(0.996264009963)" xlink:href="#CMR17-49"/>
       <use transform="translate(45.6904771171 0.0)scale(0.996264009963)" xlink:href="#CMR17-48"/>
       <use transform="translate(91.3809542341 36.1536389419)scale(0.697381766617)" xlink:href="#CMR17-49"/>
      </g>
     </g>
    </g>
    <g id="xtick_2">
     <g id="line2d_7">
      <g>
       <use style="stroke:#000000;stroke-width:0.5;" x="116.707896329" xlink:href="#m420108ceda" y="315.911282252"/>
      </g>
     </g>
     <g id="line2d_8">
      <g>
       <use style="stroke:#000000;stroke-width:0.5;" x="116.707896329" xlink:href="#m3b663a8768" y="28.1815720589"/>
      </g>
     </g>
     <g id="text_2">
      <!-- $10^{2}$ -->
      <defs>
       <path d="M 41.703125 15.453125 
L 39.90625 15.453125 
C 38.90625 8.375 38.09375 7.171875 37.703125 6.5625 
C 37.203125 5.765625 30 5.765625 28.59375 5.765625 
L 9.40625 5.765625 
C 13 9.671875 20 16.75 28.5 24.953125 
C 34.59375 30.734375 41.703125 37.53125 41.703125 47.421875 
C 41.703125 59.21875 32.296875 66 21.796875 66 
C 10.796875 66 4.09375 56.3125 4.09375 47.34375 
C 4.09375 43.4375 7 42.9375 8.203125 42.9375 
C 9.203125 42.9375 12.203125 43.546875 12.203125 47.03125 
C 12.203125 50.109375 9.59375 51 8.203125 51 
C 7.59375 51 7 50.90625 6.59375 50.703125 
C 8.5 59.21875 14.296875 63.40625 20.40625 63.40625 
C 29.09375 63.40625 34.796875 56.515625 34.796875 47.421875 
C 34.796875 38.734375 29.703125 31.25 24 24.75 
L 4.09375 2.28125 
L 4.09375 0 
L 39.296875 0 
z
" id="CMR17-50"/>
      </defs>
      <g transform="translate(108.737814653 328.429266569)scale(0.12 -0.12)">
       <use transform="scale(0.996264009963)" xlink:href="#CMR17-49"/>
       <use transform="translate(45.6904771171 0.0)scale(0.996264009963)" xlink:href="#CMR17-48"/>
       <use transform="translate(91.3809542341 36.1536389419)scale(0.697381766617)" xlink:href="#CMR17-50"/>
      </g>
     </g>
    </g>
    <g id="xtick_3">
     <g id="line2d_9">
      <g>
       <use style="stroke:#000000;stroke-width:0.5;" x="175.580300728" xlink:href="#m420108ceda" y="315.911282252"/>
      </g>
     </g>
     <g id="line2d_10">
      <g>
       <use style="stroke:#000000;stroke-width:0.5;" x="175.580300728" xlink:href="#m3b663a8768" y="28.1815720589"/>
      </g>
     </g>
     <g id="text_3">
      <!-- $10^{3}$ -->
      <defs>
       <path d="M 22.09375 33.703125 
C 31 33.703125 34.90625 25.96875 34.90625 17.03125 
C 34.90625 5 28.5 0.390625 22.703125 0.390625 
C 17.40625 0.390625 8.796875 3.03125 6.09375 10.828125 
C 6.59375 10.625 7.09375 10.625 7.59375 10.625 
C 10 10.625 11.796875 12.21875 11.796875 14.8125 
C 11.796875 17.703125 9.59375 19 7.59375 19 
C 5.90625 19 3.296875 18.203125 3.296875 14.46875 
C 3.296875 5.234375 12.296875 -2 22.90625 -2 
C 34 -2 42.5 6.71875 42.5 16.953125 
C 42.5 26.671875 34.5 33.703125 25 34.796875 
C 32.59375 36.375 39.90625 43.0625 39.90625 52.015625 
C 39.90625 59.6875 32 65.296875 23 65.296875 
C 13.90625 65.296875 5.90625 59.828125 5.90625 52.015625 
C 5.90625 48.59375 8.5 48 9.796875 48 
C 11.90625 48 13.703125 49.296875 13.703125 51.890625 
C 13.703125 54.46875 11.90625 55.765625 9.796875 55.765625 
C 9.40625 55.765625 8.90625 55.765625 8.5 55.578125 
C 11.40625 61.859375 19.296875 63 22.796875 63 
C 26.296875 63 32.90625 61.328125 32.90625 51.875 
C 32.90625 49.109375 32.5 44.1875 29.09375 39.84375 
C 26.09375 36 22.703125 36 19.40625 35.6875 
C 18.90625 35.6875 16.59375 35.453125 16.203125 35.453125 
C 15.5 35.359375 15.09375 35.265625 15.09375 34.5 
C 15.09375 33.796875 15.203125 33.703125 17.203125 33.703125 
z
" id="CMR17-51"/>
      </defs>
      <g transform="translate(167.610219052 328.429266569)scale(0.12 -0.12)">
       <use transform="scale(0.996264009963)" xlink:href="#CMR17-49"/>
       <use transform="translate(45.6904771171 0.0)scale(0.996264009963)" xlink:href="#CMR17-48"/>
       <use transform="translate(91.3809542341 36.1536389419)scale(0.697381766617)" xlink:href="#CMR17-51"/>
      </g>
     </g>
    </g>
    <g id="xtick_4">
     <g id="line2d_11">
      <g>
       <use style="stroke:#000000;stroke-width:0.5;" x="234.452705127" xlink:href="#m420108ceda" y="315.911282252"/>
      </g>
     </g>
     <g id="line2d_12">
      <g>
       <use style="stroke:#000000;stroke-width:0.5;" x="234.452705127" xlink:href="#m3b663a8768" y="28.1815720589"/>
      </g>
     </g>
     <g id="text_4">
      <!-- $10^{4}$ -->
      <defs>
       <path d="M 33.59375 64.40625 
C 33.59375 66.5 33.5 66.5 31.703125 66.5 
L 2 19.59375 
L 2 17 
L 27.796875 17 
L 27.796875 7.140625 
C 27.796875 3.5 27.59375 2.5 20.59375 2.5 
L 18.703125 2.5 
L 18.703125 0 
C 21.90625 0 27.296875 0 30.703125 0 
C 34.09375 0 39.5 0 42.703125 0 
L 42.703125 2.5 
L 40.796875 2.5 
C 33.796875 2.5 33.59375 3.5 33.59375 7.140625 
L 33.59375 17 
L 43.796875 17 
L 43.796875 19.59375 
L 33.59375 19.59375 
z
M 28.09375 57.859375 
L 28.09375 19.59375 
L 4 19.59375 
z
" id="CMR17-52"/>
      </defs>
      <g transform="translate(226.482623451 328.429266569)scale(0.12 -0.12)">
       <use transform="scale(0.996264009963)" xlink:href="#CMR17-49"/>
       <use transform="translate(45.6904771171 0.0)scale(0.996264009963)" xlink:href="#CMR17-48"/>
       <use transform="translate(91.3809542341 36.1536389419)scale(0.697381766617)" xlink:href="#CMR17-52"/>
      </g>
     </g>
    </g>
    <g id="xtick_5">
     <g id="line2d_13">
      <g>
       <use style="stroke:#000000;stroke-width:0.5;" x="293.325109526" xlink:href="#m420108ceda" y="315.911282252"/>
      </g>
     </g>
     <g id="line2d_14">
      <g>
       <use style="stroke:#000000;stroke-width:0.5;" x="293.325109526" xlink:href="#m3b663a8768" y="28.1815720589"/>
      </g>
     </g>
     <g id="text_5">
      <!-- $10^{5}$ -->
      <defs>
       <path d="M 11.40625 57.6875 
C 12.40625 57.28125 16.5 56 20.703125 56 
C 30 56 35.09375 61.109375 38 64.0625 
C 38 64.953125 38 65.5 37.40625 65.5 
C 37.296875 65.5 37.09375 65.5 36.296875 65.046875 
C 32.796875 63.40625 28.703125 62.078125 23.703125 62.078125 
C 20.703125 62.078125 16.203125 62.484375 11.296875 64.671875 
C 10.203125 65.171875 10 65.171875 9.90625 65.171875 
C 9.40625 65.171875 9.296875 65.0625 9.296875 63.078125 
L 9.296875 34.421875 
C 9.296875 32.640625 9.296875 32.140625 10.296875 32.140625 
C 10.796875 32.140625 11 32.34375 11.5 33.03125 
C 14.703125 37.515625 19.09375 39.40625 24.09375 39.40625 
C 27.59375 39.40625 35.09375 37.21875 35.09375 20.140625 
C 35.09375 16.953125 35.09375 11.171875 32.09375 6.578125 
C 29.59375 2.484375 25.703125 0.390625 21.40625 0.390625 
C 14.796875 0.390625 8.09375 5 6.296875 12.71875 
C 6.703125 12.609375 7.5 12.421875 7.90625 12.421875 
C 9.203125 12.421875 11.703125 13.125 11.703125 16.21875 
C 11.703125 18.90625 9.796875 20 7.90625 20 
C 5.59375 20 4.09375 18.59375 4.09375 15.796875 
C 4.09375 7.09375 11 -2 21.59375 -2 
C 31.90625 -2 41.703125 6.875 41.703125 19.75 
C 41.703125 31.71875 33.90625 41 24.203125 41 
C 19.09375 41 14.796875 39.109375 11.40625 35.53125 
z
" id="CMR17-53"/>
      </defs>
      <g transform="translate(285.35502785 328.429266569)scale(0.12 -0.12)">
       <use transform="scale(0.996264009963)" xlink:href="#CMR17-49"/>
       <use transform="translate(45.6904771171 0.0)scale(0.996264009963)" xlink:href="#CMR17-48"/>
       <use transform="translate(91.3809542341 36.1536389419)scale(0.697381766617)" xlink:href="#CMR17-53"/>
      </g>
     </g>
    </g>
    <g id="xtick_6">
     <g id="line2d_15">
      <g>
       <use style="stroke:#000000;stroke-width:0.5;" x="352.197513925" xlink:href="#m420108ceda" y="315.911282252"/>
      </g>
     </g>
     <g id="line2d_16">
      <g>
       <use style="stroke:#000000;stroke-width:0.5;" x="352.197513925" xlink:href="#m3b663a8768" y="28.1815720589"/>
      </g>
     </g>
     <g id="text_6">
      <!-- $10^{6}$ -->
      <defs>
       <path d="M 10.59375 34 
C 10.59375 57.65625 21.796875 63 28.296875 63 
C 30.40625 63 35.5 62.640625 37.5 59 
C 35.90625 59 32.90625 59 32.90625 55.515625 
C 32.90625 52.828125 35.09375 51.921875 36.5 51.921875 
C 37.40625 51.921875 40.09375 52.3125 40.09375 55.625 
C 40.09375 61.78125 35.09375 65.296875 28.203125 65.296875 
C 16.296875 65.296875 3.796875 52.96875 3.796875 31 
C 3.796875 3.953125 15.09375 -2 23.09375 -2 
C 32.796875 -2 42 6.671875 42 20.046875 
C 42 32.515625 33.90625 41.59375 23.703125 41.59375 
C 17.59375 41.59375 13.09375 37.609375 10.59375 30.625 
z
M 23.09375 0.390625 
C 10.796875 0.390625 10.796875 18.75 10.796875 22.4375 
C 10.796875 29.625 14.203125 40 23.5 40 
C 25.203125 40 30.09375 40 33.40625 33.125 
C 35.203125 29.21875 35.203125 25.140625 35.203125 20.140625 
C 35.203125 14.75 35.203125 10.78125 33.09375 6.78125 
C 30.90625 2.671875 27.703125 0.390625 23.09375 0.390625 
" id="CMR17-54"/>
      </defs>
      <g transform="translate(344.227432249 328.429266569)scale(0.12 -0.12)">
       <use transform="scale(0.996264009963)" xlink:href="#CMR17-49"/>
       <use transform="translate(45.6904771171 0.0)scale(0.996264009963)" xlink:href="#CMR17-48"/>
       <use transform="translate(91.3809542341 36.1536389419)scale(0.697381766617)" xlink:href="#CMR17-54"/>
      </g>
     </g>
    </g>
    <g id="xtick_7">
     <g id="line2d_17">
      <g>
       <use style="stroke:#000000;stroke-width:0.5;" x="411.069918324" xlink:href="#m420108ceda" y="315.911282252"/>
      </g>
     </g>
     <g id="line2d_18">
      <g>
       <use style="stroke:#000000;stroke-width:0.5;" x="411.069918324" xlink:href="#m3b663a8768" y="28.1815720589"/>
      </g>
     </g>
     <g id="text_7">
      <!-- $10^{7}$ -->
      <defs>
       <path d="M 45.09375 61.578125 
L 45.09375 63.765625 
L 21.59375 63.765625 
C 9.90625 63.765625 9.703125 65.078125 9.296875 67 
L 7.5 67 
L 4.59375 48.34375 
L 6.40625 48.34375 
C 6.703125 50.234375 7.40625 55.3125 8.59375 57.203125 
C 9.203125 58 16.59375 58 18.296875 58 
L 40.296875 58 
L 29.203125 41.578125 
C 21.796875 30.53125 16.703125 15.609375 16.703125 2.578125 
C 16.703125 1.390625 16.703125 -2 20.296875 -2 
C 23.90625 -2 23.90625 1.390625 23.90625 2.671875 
L 23.90625 7.265625 
C 23.90625 23.5625 26.703125 34.3125 31.296875 41.1875 
z
" id="CMR17-55"/>
      </defs>
      <g transform="translate(403.099836648 328.429266569)scale(0.12 -0.12)">
       <use transform="scale(0.996264009963)" xlink:href="#CMR17-49"/>
       <use transform="translate(45.6904771171 0.0)scale(0.996264009963)" xlink:href="#CMR17-48"/>
       <use transform="translate(91.3809542341 36.1536389419)scale(0.697381766617)" xlink:href="#CMR17-55"/>
      </g>
     </g>
    </g>
    <g id="xtick_8">
     <g id="line2d_19">
      <defs>
       <path d="M 0 0 
L 0 -2 
" id="maaaa09da26" style="stroke:#000000;stroke-width:0.5;"/>
      </defs>
      <g>
       <use style="stroke:#000000;stroke-width:0.5;" x="75.5578515706" xlink:href="#maaaa09da26" y="315.911282252"/>
      </g>
     </g>
     <g id="line2d_20">
      <defs>
       <path d="M 0 0 
L 0 2 
" id="mdc110b69e6" style="stroke:#000000;stroke-width:0.5;"/>
      </defs>
      <g>
       <use style="stroke:#000000;stroke-width:0.5;" x="75.5578515706" xlink:href="#mdc110b69e6" y="28.1815720589"/>
      </g>
     </g>
    </g>
    <g id="xtick_9">
     <g id="line2d_21">
      <g>
       <use style="stroke:#000000;stroke-width:0.5;" x="85.9247673849" xlink:href="#maaaa09da26" y="315.911282252"/>
      </g>
     </g>
     <g id="line2d_22">
      <g>
       <use style="stroke:#000000;stroke-width:0.5;" x="85.9247673849" xlink:href="#mdc110b69e6" y="28.1815720589"/>
      </g>
     </g>
    </g>
    <g id="xtick_10">
     <g id="line2d_23">
      <g>
       <use style="stroke:#000000;stroke-width:0.5;" x="93.2802112116" xlink:href="#maaaa09da26" y="315.911282252"/>
      </g>
     </g>
     <g id="line2d_24">
      <g>
       <use style="stroke:#000000;stroke-width:0.5;" x="93.2802112116" xlink:href="#mdc110b69e6" y="28.1815720589"/>
      </g>
     </g>
    </g>
    <g id="xtick_11">
     <g id="line2d_25">
      <g>
       <use style="stroke:#000000;stroke-width:0.5;" x="98.9855366877" xlink:href="#maaaa09da26" y="315.911282252"/>
      </g>
     </g>
     <g id="line2d_26">
      <g>
       <use style="stroke:#000000;stroke-width:0.5;" x="98.9855366877" xlink:href="#mdc110b69e6" y="28.1815720589"/>
      </g>
     </g>
    </g>
    <g id="xtick_12">
     <g id="line2d_27">
      <g>
       <use style="stroke:#000000;stroke-width:0.5;" x="103.647127026" xlink:href="#maaaa09da26" y="315.911282252"/>
      </g>
     </g>
     <g id="line2d_28">
      <g>
       <use style="stroke:#000000;stroke-width:0.5;" x="103.647127026" xlink:href="#mdc110b69e6" y="28.1815720589"/>
      </g>
     </g>
    </g>
    <g id="xtick_13">
     <g id="line2d_29">
      <g>
       <use style="stroke:#000000;stroke-width:0.5;" x="107.588445498" xlink:href="#maaaa09da26" y="315.911282252"/>
      </g>
     </g>
     <g id="line2d_30">
      <g>
       <use style="stroke:#000000;stroke-width:0.5;" x="107.588445498" xlink:href="#mdc110b69e6" y="28.1815720589"/>
      </g>
     </g>
    </g>
    <g id="xtick_14">
     <g id="line2d_31">
      <g>
       <use style="stroke:#000000;stroke-width:0.5;" x="111.002570853" xlink:href="#maaaa09da26" y="315.911282252"/>
      </g>
     </g>
     <g id="line2d_32">
      <g>
       <use style="stroke:#000000;stroke-width:0.5;" x="111.002570853" xlink:href="#mdc110b69e6" y="28.1815720589"/>
      </g>
     </g>
    </g>
    <g id="xtick_15">
     <g id="line2d_33">
      <g>
       <use style="stroke:#000000;stroke-width:0.5;" x="114.01404284" xlink:href="#maaaa09da26" y="315.911282252"/>
      </g>
     </g>
     <g id="line2d_34">
      <g>
       <use style="stroke:#000000;stroke-width:0.5;" x="114.01404284" xlink:href="#mdc110b69e6" y="28.1815720589"/>
      </g>
     </g>
    </g>
    <g id="xtick_16">
     <g id="line2d_35">
      <g>
       <use style="stroke:#000000;stroke-width:0.5;" x="134.43025597" xlink:href="#maaaa09da26" y="315.911282252"/>
      </g>
     </g>
     <g id="line2d_36">
      <g>
       <use style="stroke:#000000;stroke-width:0.5;" x="134.43025597" xlink:href="#mdc110b69e6" y="28.1815720589"/>
      </g>
     </g>
    </g>
    <g id="xtick_17">
     <g id="line2d_37">
      <g>
       <use style="stroke:#000000;stroke-width:0.5;" x="144.797171784" xlink:href="#maaaa09da26" y="315.911282252"/>
      </g>
     </g>
     <g id="line2d_38">
      <g>
       <use style="stroke:#000000;stroke-width:0.5;" x="144.797171784" xlink:href="#mdc110b69e6" y="28.1815720589"/>
      </g>
     </g>
    </g>
    <g id="xtick_18">
     <g id="line2d_39">
      <g>
       <use style="stroke:#000000;stroke-width:0.5;" x="152.152615611" xlink:href="#maaaa09da26" y="315.911282252"/>
      </g>
     </g>
     <g id="line2d_40">
      <g>
       <use style="stroke:#000000;stroke-width:0.5;" x="152.152615611" xlink:href="#mdc110b69e6" y="28.1815720589"/>
      </g>
     </g>
    </g>
    <g id="xtick_19">
     <g id="line2d_41">
      <g>
       <use style="stroke:#000000;stroke-width:0.5;" x="157.857941087" xlink:href="#maaaa09da26" y="315.911282252"/>
      </g>
     </g>
     <g id="line2d_42">
      <g>
       <use style="stroke:#000000;stroke-width:0.5;" x="157.857941087" xlink:href="#mdc110b69e6" y="28.1815720589"/>
      </g>
     </g>
    </g>
    <g id="xtick_20">
     <g id="line2d_43">
      <g>
       <use style="stroke:#000000;stroke-width:0.5;" x="162.519531425" xlink:href="#maaaa09da26" y="315.911282252"/>
      </g>
     </g>
     <g id="line2d_44">
      <g>
       <use style="stroke:#000000;stroke-width:0.5;" x="162.519531425" xlink:href="#mdc110b69e6" y="28.1815720589"/>
      </g>
     </g>
    </g>
    <g id="xtick_21">
     <g id="line2d_45">
      <g>
       <use style="stroke:#000000;stroke-width:0.5;" x="166.460849897" xlink:href="#maaaa09da26" y="315.911282252"/>
      </g>
     </g>
     <g id="line2d_46">
      <g>
       <use style="stroke:#000000;stroke-width:0.5;" x="166.460849897" xlink:href="#mdc110b69e6" y="28.1815720589"/>
      </g>
     </g>
    </g>
    <g id="xtick_22">
     <g id="line2d_47">
      <g>
       <use style="stroke:#000000;stroke-width:0.5;" x="169.874975252" xlink:href="#maaaa09da26" y="315.911282252"/>
      </g>
     </g>
     <g id="line2d_48">
      <g>
       <use style="stroke:#000000;stroke-width:0.5;" x="169.874975252" xlink:href="#mdc110b69e6" y="28.1815720589"/>
      </g>
     </g>
    </g>
    <g id="xtick_23">
     <g id="line2d_49">
      <g>
       <use style="stroke:#000000;stroke-width:0.5;" x="172.886447239" xlink:href="#maaaa09da26" y="315.911282252"/>
      </g>
     </g>
     <g id="line2d_50">
      <g>
       <use style="stroke:#000000;stroke-width:0.5;" x="172.886447239" xlink:href="#mdc110b69e6" y="28.1815720589"/>
      </g>
     </g>
    </g>
    <g id="xtick_24">
     <g id="line2d_51">
      <g>
       <use style="stroke:#000000;stroke-width:0.5;" x="193.302660369" xlink:href="#maaaa09da26" y="315.911282252"/>
      </g>
     </g>
     <g id="line2d_52">
      <g>
       <use style="stroke:#000000;stroke-width:0.5;" x="193.302660369" xlink:href="#mdc110b69e6" y="28.1815720589"/>
      </g>
     </g>
    </g>
    <g id="xtick_25">
     <g id="line2d_53">
      <g>
       <use style="stroke:#000000;stroke-width:0.5;" x="203.669576183" xlink:href="#maaaa09da26" y="315.911282252"/>
      </g>
     </g>
     <g id="line2d_54">
      <g>
       <use style="stroke:#000000;stroke-width:0.5;" x="203.669576183" xlink:href="#mdc110b69e6" y="28.1815720589"/>
      </g>
     </g>
    </g>
    <g id="xtick_26">
     <g id="line2d_55">
      <g>
       <use style="stroke:#000000;stroke-width:0.5;" x="211.02502001" xlink:href="#maaaa09da26" y="315.911282252"/>
      </g>
     </g>
     <g id="line2d_56">
      <g>
       <use style="stroke:#000000;stroke-width:0.5;" x="211.02502001" xlink:href="#mdc110b69e6" y="28.1815720589"/>
      </g>
     </g>
    </g>
    <g id="xtick_27">
     <g id="line2d_57">
      <g>
       <use style="stroke:#000000;stroke-width:0.5;" x="216.730345486" xlink:href="#maaaa09da26" y="315.911282252"/>
      </g>
     </g>
     <g id="line2d_58">
      <g>
       <use style="stroke:#000000;stroke-width:0.5;" x="216.730345486" xlink:href="#mdc110b69e6" y="28.1815720589"/>
      </g>
     </g>
    </g>
    <g id="xtick_28">
     <g id="line2d_59">
      <g>
       <use style="stroke:#000000;stroke-width:0.5;" x="221.391935824" xlink:href="#maaaa09da26" y="315.911282252"/>
      </g>
     </g>
     <g id="line2d_60">
      <g>
       <use style="stroke:#000000;stroke-width:0.5;" x="221.391935824" xlink:href="#mdc110b69e6" y="28.1815720589"/>
      </g>
     </g>
    </g>
    <g id="xtick_29">
     <g id="line2d_61">
      <g>
       <use style="stroke:#000000;stroke-width:0.5;" x="225.333254296" xlink:href="#maaaa09da26" y="315.911282252"/>
      </g>
     </g>
     <g id="line2d_62">
      <g>
       <use style="stroke:#000000;stroke-width:0.5;" x="225.333254296" xlink:href="#mdc110b69e6" y="28.1815720589"/>
      </g>
     </g>
    </g>
    <g id="xtick_30">
     <g id="line2d_63">
      <g>
       <use style="stroke:#000000;stroke-width:0.5;" x="228.747379651" xlink:href="#maaaa09da26" y="315.911282252"/>
      </g>
     </g>
     <g id="line2d_64">
      <g>
       <use style="stroke:#000000;stroke-width:0.5;" x="228.747379651" xlink:href="#mdc110b69e6" y="28.1815720589"/>
      </g>
     </g>
    </g>
    <g id="xtick_31">
     <g id="line2d_65">
      <g>
       <use style="stroke:#000000;stroke-width:0.5;" x="231.758851638" xlink:href="#maaaa09da26" y="315.911282252"/>
      </g>
     </g>
     <g id="line2d_66">
      <g>
       <use style="stroke:#000000;stroke-width:0.5;" x="231.758851638" xlink:href="#mdc110b69e6" y="28.1815720589"/>
      </g>
     </g>
    </g>
    <g id="xtick_32">
     <g id="line2d_67">
      <g>
       <use style="stroke:#000000;stroke-width:0.5;" x="252.175064768" xlink:href="#maaaa09da26" y="315.911282252"/>
      </g>
     </g>
     <g id="line2d_68">
      <g>
       <use style="stroke:#000000;stroke-width:0.5;" x="252.175064768" xlink:href="#mdc110b69e6" y="28.1815720589"/>
      </g>
     </g>
    </g>
    <g id="xtick_33">
     <g id="line2d_69">
      <g>
       <use style="stroke:#000000;stroke-width:0.5;" x="262.541980582" xlink:href="#maaaa09da26" y="315.911282252"/>
      </g>
     </g>
     <g id="line2d_70">
      <g>
       <use style="stroke:#000000;stroke-width:0.5;" x="262.541980582" xlink:href="#mdc110b69e6" y="28.1815720589"/>
      </g>
     </g>
    </g>
    <g id="xtick_34">
     <g id="line2d_71">
      <g>
       <use style="stroke:#000000;stroke-width:0.5;" x="269.897424409" xlink:href="#maaaa09da26" y="315.911282252"/>
      </g>
     </g>
     <g id="line2d_72">
      <g>
       <use style="stroke:#000000;stroke-width:0.5;" x="269.897424409" xlink:href="#mdc110b69e6" y="28.1815720589"/>
      </g>
     </g>
    </g>
    <g id="xtick_35">
     <g id="line2d_73">
      <g>
       <use style="stroke:#000000;stroke-width:0.5;" x="275.602749885" xlink:href="#maaaa09da26" y="315.911282252"/>
      </g>
     </g>
     <g id="line2d_74">
      <g>
       <use style="stroke:#000000;stroke-width:0.5;" x="275.602749885" xlink:href="#mdc110b69e6" y="28.1815720589"/>
      </g>
     </g>
    </g>
    <g id="xtick_36">
     <g id="line2d_75">
      <g>
       <use style="stroke:#000000;stroke-width:0.5;" x="280.264340223" xlink:href="#maaaa09da26" y="315.911282252"/>
      </g>
     </g>
     <g id="line2d_76">
      <g>
       <use style="stroke:#000000;stroke-width:0.5;" x="280.264340223" xlink:href="#mdc110b69e6" y="28.1815720589"/>
      </g>
     </g>
    </g>
    <g id="xtick_37">
     <g id="line2d_77">
      <g>
       <use style="stroke:#000000;stroke-width:0.5;" x="284.205658695" xlink:href="#maaaa09da26" y="315.911282252"/>
      </g>
     </g>
     <g id="line2d_78">
      <g>
       <use style="stroke:#000000;stroke-width:0.5;" x="284.205658695" xlink:href="#mdc110b69e6" y="28.1815720589"/>
      </g>
     </g>
    </g>
    <g id="xtick_38">
     <g id="line2d_79">
      <g>
       <use style="stroke:#000000;stroke-width:0.5;" x="287.61978405" xlink:href="#maaaa09da26" y="315.911282252"/>
      </g>
     </g>
     <g id="line2d_80">
      <g>
       <use style="stroke:#000000;stroke-width:0.5;" x="287.61978405" xlink:href="#mdc110b69e6" y="28.1815720589"/>
      </g>
     </g>
    </g>
    <g id="xtick_39">
     <g id="line2d_81">
      <g>
       <use style="stroke:#000000;stroke-width:0.5;" x="290.631256037" xlink:href="#maaaa09da26" y="315.911282252"/>
      </g>
     </g>
     <g id="line2d_82">
      <g>
       <use style="stroke:#000000;stroke-width:0.5;" x="290.631256037" xlink:href="#mdc110b69e6" y="28.1815720589"/>
      </g>
     </g>
    </g>
    <g id="xtick_40">
     <g id="line2d_83">
      <g>
       <use style="stroke:#000000;stroke-width:0.5;" x="311.047469167" xlink:href="#maaaa09da26" y="315.911282252"/>
      </g>
     </g>
     <g id="line2d_84">
      <g>
       <use style="stroke:#000000;stroke-width:0.5;" x="311.047469167" xlink:href="#mdc110b69e6" y="28.1815720589"/>
      </g>
     </g>
    </g>
    <g id="xtick_41">
     <g id="line2d_85">
      <g>
       <use style="stroke:#000000;stroke-width:0.5;" x="321.414384981" xlink:href="#maaaa09da26" y="315.911282252"/>
      </g>
     </g>
     <g id="line2d_86">
      <g>
       <use style="stroke:#000000;stroke-width:0.5;" x="321.414384981" xlink:href="#mdc110b69e6" y="28.1815720589"/>
      </g>
     </g>
    </g>
    <g id="xtick_42">
     <g id="line2d_87">
      <g>
       <use style="stroke:#000000;stroke-width:0.5;" x="328.769828808" xlink:href="#maaaa09da26" y="315.911282252"/>
      </g>
     </g>
     <g id="line2d_88">
      <g>
       <use style="stroke:#000000;stroke-width:0.5;" x="328.769828808" xlink:href="#mdc110b69e6" y="28.1815720589"/>
      </g>
     </g>
    </g>
    <g id="xtick_43">
     <g id="line2d_89">
      <g>
       <use style="stroke:#000000;stroke-width:0.5;" x="334.475154284" xlink:href="#maaaa09da26" y="315.911282252"/>
      </g>
     </g>
     <g id="line2d_90">
      <g>
       <use style="stroke:#000000;stroke-width:0.5;" x="334.475154284" xlink:href="#mdc110b69e6" y="28.1815720589"/>
      </g>
     </g>
    </g>
    <g id="xtick_44">
     <g id="line2d_91">
      <g>
       <use style="stroke:#000000;stroke-width:0.5;" x="339.136744622" xlink:href="#maaaa09da26" y="315.911282252"/>
      </g>
     </g>
     <g id="line2d_92">
      <g>
       <use style="stroke:#000000;stroke-width:0.5;" x="339.136744622" xlink:href="#mdc110b69e6" y="28.1815720589"/>
      </g>
     </g>
    </g>
    <g id="xtick_45">
     <g id="line2d_93">
      <g>
       <use style="stroke:#000000;stroke-width:0.5;" x="343.078063094" xlink:href="#maaaa09da26" y="315.911282252"/>
      </g>
     </g>
     <g id="line2d_94">
      <g>
       <use style="stroke:#000000;stroke-width:0.5;" x="343.078063094" xlink:href="#mdc110b69e6" y="28.1815720589"/>
      </g>
     </g>
    </g>
    <g id="xtick_46">
     <g id="line2d_95">
      <g>
       <use style="stroke:#000000;stroke-width:0.5;" x="346.492188449" xlink:href="#maaaa09da26" y="315.911282252"/>
      </g>
     </g>
     <g id="line2d_96">
      <g>
       <use style="stroke:#000000;stroke-width:0.5;" x="346.492188449" xlink:href="#mdc110b69e6" y="28.1815720589"/>
      </g>
     </g>
    </g>
    <g id="xtick_47">
     <g id="line2d_97">
      <g>
       <use style="stroke:#000000;stroke-width:0.5;" x="349.503660436" xlink:href="#maaaa09da26" y="315.911282252"/>
      </g>
     </g>
     <g id="line2d_98">
      <g>
       <use style="stroke:#000000;stroke-width:0.5;" x="349.503660436" xlink:href="#mdc110b69e6" y="28.1815720589"/>
      </g>
     </g>
    </g>
    <g id="xtick_48">
     <g id="line2d_99">
      <g>
       <use style="stroke:#000000;stroke-width:0.5;" x="369.919873566" xlink:href="#maaaa09da26" y="315.911282252"/>
      </g>
     </g>
     <g id="line2d_100">
      <g>
       <use style="stroke:#000000;stroke-width:0.5;" x="369.919873566" xlink:href="#mdc110b69e6" y="28.1815720589"/>
      </g>
     </g>
    </g>
    <g id="xtick_49">
     <g id="line2d_101">
      <g>
       <use style="stroke:#000000;stroke-width:0.5;" x="380.28678938" xlink:href="#maaaa09da26" y="315.911282252"/>
      </g>
     </g>
     <g id="line2d_102">
      <g>
       <use style="stroke:#000000;stroke-width:0.5;" x="380.28678938" xlink:href="#mdc110b69e6" y="28.1815720589"/>
      </g>
     </g>
    </g>
    <g id="xtick_50">
     <g id="line2d_103">
      <g>
       <use style="stroke:#000000;stroke-width:0.5;" x="387.642233207" xlink:href="#maaaa09da26" y="315.911282252"/>
      </g>
     </g>
     <g id="line2d_104">
      <g>
       <use style="stroke:#000000;stroke-width:0.5;" x="387.642233207" xlink:href="#mdc110b69e6" y="28.1815720589"/>
      </g>
     </g>
    </g>
    <g id="xtick_51">
     <g id="line2d_105">
      <g>
       <use style="stroke:#000000;stroke-width:0.5;" x="393.347558683" xlink:href="#maaaa09da26" y="315.911282252"/>
      </g>
     </g>
     <g id="line2d_106">
      <g>
       <use style="stroke:#000000;stroke-width:0.5;" x="393.347558683" xlink:href="#mdc110b69e6" y="28.1815720589"/>
      </g>
     </g>
    </g>
    <g id="xtick_52">
     <g id="line2d_107">
      <g>
       <use style="stroke:#000000;stroke-width:0.5;" x="398.009149021" xlink:href="#maaaa09da26" y="315.911282252"/>
      </g>
     </g>
     <g id="line2d_108">
      <g>
       <use style="stroke:#000000;stroke-width:0.5;" x="398.009149021" xlink:href="#mdc110b69e6" y="28.1815720589"/>
      </g>
     </g>
    </g>
    <g id="xtick_53">
     <g id="line2d_109">
      <g>
       <use style="stroke:#000000;stroke-width:0.5;" x="401.950467493" xlink:href="#maaaa09da26" y="315.911282252"/>
      </g>
     </g>
     <g id="line2d_110">
      <g>
       <use style="stroke:#000000;stroke-width:0.5;" x="401.950467493" xlink:href="#mdc110b69e6" y="28.1815720589"/>
      </g>
     </g>
    </g>
    <g id="xtick_54">
     <g id="line2d_111">
      <g>
       <use style="stroke:#000000;stroke-width:0.5;" x="405.364592848" xlink:href="#maaaa09da26" y="315.911282252"/>
      </g>
     </g>
     <g id="line2d_112">
      <g>
       <use style="stroke:#000000;stroke-width:0.5;" x="405.364592848" xlink:href="#mdc110b69e6" y="28.1815720589"/>
      </g>
     </g>
    </g>
    <g id="xtick_55">
     <g id="line2d_113">
      <g>
       <use style="stroke:#000000;stroke-width:0.5;" x="408.376064835" xlink:href="#maaaa09da26" y="315.911282252"/>
      </g>
     </g>
     <g id="line2d_114">
      <g>
       <use style="stroke:#000000;stroke-width:0.5;" x="408.376064835" xlink:href="#mdc110b69e6" y="28.1815720589"/>
      </g>
     </g>
    </g>
    <g id="text_8">
     <!-- $N$ -->
     <defs>
      <path d="M 74 57.78125 
C 75.09375 62.09375 76.703125 65.09375 84.296875 65.09375 
C 84.59375 65.09375 85.796875 65.09375 85.796875 66.859375 
C 85.796875 68 84.90625 68 84.5 68 
C 82.5 68 77.40625 68 75.40625 68 
L 70.59375 68 
C 69.203125 68 67.40625 68 66 68 
C 65.40625 68 64.203125 68 64.203125 66.09375 
C 64.203125 65.09375 65 65.09375 65.703125 65.09375 
C 71.703125 65.09375 72.09375 62.796875 72.09375 60.984375 
C 72.09375 60.09375 72 59.78125 71.703125 58.390625 
L 60.40625 13.28125 
L 39 66.390625 
C 38.296875 68 38.203125 68 36 68 
L 23.796875 68 
C 21.796875 68 20.90625 68 20.90625 66.09375 
C 20.90625 65.09375 21.59375 65.09375 23.5 65.09375 
C 24 65.09375 29.90625 65.09375 29.90625 64.296875 
C 29.90625 64.09375 29.703125 63.296875 29.59375 63 
L 16.296875 9.921875 
C 15.09375 5 12.703125 2.90625 6.09375 2.90625 
C 5.59375 2.90625 4.59375 2.90625 4.59375 1.046875 
C 4.59375 0 5.59375 0 5.90625 0 
C 7.90625 0 13 0 15 0 
L 19.796875 0 
C 21.203125 0 22.90625 0 24.296875 0 
C 25 0 26.09375 0 26.09375 1.90625 
C 26.09375 2.8125 25.09375 2.90625 24.703125 2.90625 
C 21.40625 2.90625 18.203125 3.5 18.203125 7.09375 
C 18.203125 7.890625 18.40625 8.78125 18.59375 9.578125 
L 32.09375 63 
C 32.703125 62 32.703125 61.8125 33.09375 60.90625 
L 56.90625 1.796875 
C 57.40625 0.59375 57.59375 0 58.5 0 
C 59.5 0 59.59375 0.296875 60 2 
z
" id="CMMI12-78"/>
     </defs>
     <g transform="translate(229.765797996 344.493625443)scale(0.12 -0.12)">
      <use transform="scale(0.996264009963)" xlink:href="#CMMI12-78"/>
     </g>
    </g>
   </g>
   <g id="matplotlib.axis_2">
    <g id="ytick_1">
     <g id="line2d_115">
      <defs>
       <path d="M 0 0 
L 4 0 
" id="m8db2c42672" style="stroke:#000000;stroke-width:0.5;"/>
      </defs>
      <g>
       <use style="stroke:#000000;stroke-width:0.5;" x="57.8354919297" xlink:href="#m8db2c42672" y="315.911282252"/>
      </g>
     </g>
     <g id="line2d_116">
      <defs>
       <path d="M 0 0 
L -4 0 
" id="mf59be30758" style="stroke:#000000;stroke-width:0.5;"/>
      </defs>
      <g>
       <use style="stroke:#000000;stroke-width:0.5;" x="411.069918324" xlink:href="#mf59be30758" y="315.911282252"/>
      </g>
     </g>
     <g id="text_9">
      <!-- $0$ -->
      <g transform="translate(47.9825016783 318.897087132)scale(0.12 -0.12)">
       <use transform="scale(0.996264009963)" xlink:href="#CMR17-48"/>
      </g>
     </g>
    </g>
    <g id="ytick_2">
     <g id="line2d_117">
      <g>
       <use style="stroke:#000000;stroke-width:0.5;" x="57.8354919297" xlink:href="#m8db2c42672" y="274.807037939"/>
      </g>
     </g>
     <g id="line2d_118">
      <g>
       <use style="stroke:#000000;stroke-width:0.5;" x="411.069918324" xlink:href="#mf59be30758" y="274.807037939"/>
      </g>
     </g>
     <g id="text_10">
      <!-- $500$ -->
      <g transform="translate(36.2765211755 277.792842818)scale(0.12 -0.12)">
       <use transform="scale(0.996264009963)" xlink:href="#CMR17-53"/>
       <use transform="translate(45.6904771171 0.0)scale(0.996264009963)" xlink:href="#CMR17-48"/>
       <use transform="translate(91.3809542341 0.0)scale(0.996264009963)" xlink:href="#CMR17-48"/>
      </g>
     </g>
    </g>
    <g id="ytick_3">
     <g id="line2d_119">
      <g>
       <use style="stroke:#000000;stroke-width:0.5;" x="57.8354919297" xlink:href="#m8db2c42672" y="233.702793625"/>
      </g>
     </g>
     <g id="line2d_120">
      <g>
       <use style="stroke:#000000;stroke-width:0.5;" x="411.069918324" xlink:href="#mf59be30758" y="233.702793625"/>
      </g>
     </g>
     <g id="text_11">
      <!-- $1000$ -->
      <g transform="translate(30.4235309241 236.688598505)scale(0.12 -0.12)">
       <use transform="scale(0.996264009963)" xlink:href="#CMR17-49"/>
       <use transform="translate(45.6904771171 0.0)scale(0.996264009963)" xlink:href="#CMR17-48"/>
       <use transform="translate(91.3809542341 0.0)scale(0.996264009963)" xlink:href="#CMR17-48"/>
       <use transform="translate(137.071431351 0.0)scale(0.996264009963)" xlink:href="#CMR17-48"/>
      </g>
     </g>
    </g>
    <g id="ytick_4">
     <g id="line2d_121">
      <g>
       <use style="stroke:#000000;stroke-width:0.5;" x="57.8354919297" xlink:href="#m8db2c42672" y="192.598549312"/>
      </g>
     </g>
     <g id="line2d_122">
      <g>
       <use style="stroke:#000000;stroke-width:0.5;" x="411.069918324" xlink:href="#mf59be30758" y="192.598549312"/>
      </g>
     </g>
     <g id="text_12">
      <!-- $1500$ -->
      <g transform="translate(30.4235309241 195.584354192)scale(0.12 -0.12)">
       <use transform="scale(0.996264009963)" xlink:href="#CMR17-49"/>
       <use transform="translate(45.6904771171 0.0)scale(0.996264009963)" xlink:href="#CMR17-53"/>
       <use transform="translate(91.3809542341 0.0)scale(0.996264009963)" xlink:href="#CMR17-48"/>
       <use transform="translate(137.071431351 0.0)scale(0.996264009963)" xlink:href="#CMR17-48"/>
      </g>
     </g>
    </g>
    <g id="ytick_5">
     <g id="line2d_123">
      <g>
       <use style="stroke:#000000;stroke-width:0.5;" x="57.8354919297" xlink:href="#m8db2c42672" y="151.494304999"/>
      </g>
     </g>
     <g id="line2d_124">
      <g>
       <use style="stroke:#000000;stroke-width:0.5;" x="411.069918324" xlink:href="#mf59be30758" y="151.494304999"/>
      </g>
     </g>
     <g id="text_13">
      <!-- $2000$ -->
      <g transform="translate(30.4235309241 154.480109878)scale(0.12 -0.12)">
       <use transform="scale(0.996264009963)" xlink:href="#CMR17-50"/>
       <use transform="translate(45.6904771171 0.0)scale(0.996264009963)" xlink:href="#CMR17-48"/>
       <use transform="translate(91.3809542341 0.0)scale(0.996264009963)" xlink:href="#CMR17-48"/>
       <use transform="translate(137.071431351 0.0)scale(0.996264009963)" xlink:href="#CMR17-48"/>
      </g>
     </g>
    </g>
    <g id="ytick_6">
     <g id="line2d_125">
      <g>
       <use style="stroke:#000000;stroke-width:0.5;" x="57.8354919297" xlink:href="#m8db2c42672" y="110.390060686"/>
      </g>
     </g>
     <g id="line2d_126">
      <g>
       <use style="stroke:#000000;stroke-width:0.5;" x="411.069918324" xlink:href="#mf59be30758" y="110.390060686"/>
      </g>
     </g>
     <g id="text_14">
      <!-- $2500$ -->
      <g transform="translate(30.4235309241 113.375865565)scale(0.12 -0.12)">
       <use transform="scale(0.996264009963)" xlink:href="#CMR17-50"/>
       <use transform="translate(45.6904771171 0.0)scale(0.996264009963)" xlink:href="#CMR17-53"/>
       <use transform="translate(91.3809542341 0.0)scale(0.996264009963)" xlink:href="#CMR17-48"/>
       <use transform="translate(137.071431351 0.0)scale(0.996264009963)" xlink:href="#CMR17-48"/>
      </g>
     </g>
    </g>
    <g id="ytick_7">
     <g id="line2d_127">
      <g>
       <use style="stroke:#000000;stroke-width:0.5;" x="57.8354919297" xlink:href="#m8db2c42672" y="69.2858163722"/>
      </g>
     </g>
     <g id="line2d_128">
      <g>
       <use style="stroke:#000000;stroke-width:0.5;" x="411.069918324" xlink:href="#mf59be30758" y="69.2858163722"/>
      </g>
     </g>
     <g id="text_15">
      <!-- $3000$ -->
      <g transform="translate(30.4235309241 72.2716212518)scale(0.12 -0.12)">
       <use transform="scale(0.996264009963)" xlink:href="#CMR17-51"/>
       <use transform="translate(45.6904771171 0.0)scale(0.996264009963)" xlink:href="#CMR17-48"/>
       <use transform="translate(91.3809542341 0.0)scale(0.996264009963)" xlink:href="#CMR17-48"/>
       <use transform="translate(137.071431351 0.0)scale(0.996264009963)" xlink:href="#CMR17-48"/>
      </g>
     </g>
    </g>
    <g id="ytick_8">
     <g id="line2d_129">
      <g>
       <use style="stroke:#000000;stroke-width:0.5;" x="57.8354919297" xlink:href="#m8db2c42672" y="28.1815720589"/>
      </g>
     </g>
     <g id="line2d_130">
      <g>
       <use style="stroke:#000000;stroke-width:0.5;" x="411.069918324" xlink:href="#mf59be30758" y="28.1815720589"/>
      </g>
     </g>
     <g id="text_16">
      <!-- $3500$ -->
      <g transform="translate(30.4235309241 31.1673769385)scale(0.12 -0.12)">
       <use transform="scale(0.996264009963)" xlink:href="#CMR17-51"/>
       <use transform="translate(45.6904771171 0.0)scale(0.996264009963)" xlink:href="#CMR17-53"/>
       <use transform="translate(91.3809542341 0.0)scale(0.996264009963)" xlink:href="#CMR17-48"/>
       <use transform="translate(137.071431351 0.0)scale(0.996264009963)" xlink:href="#CMR17-48"/>
      </g>
     </g>
    </g>
    <g id="text_17">
     <!-- $N / T_e$ ($\times 10^6$) -->
     <defs>
      <path d="M 17.90625 23.109375 
C 20.59375 23.109375 27.40625 23.109375 32.203125 24.921875 
C 39.796875 27.859375 40.5 33.71875 40.5 35.53125 
C 40.5 39.96875 36.703125 44 30.09375 44 
C 19.59375 44 4.5 34.53125 4.5 16.765625 
C 4.5 6.28125 10.5 -1 19.59375 -1 
C 33.203125 -1 41.796875 9.515625 41.796875 10.8125 
C 41.796875 11.40625 41.203125 11.90625 40.796875 11.90625 
C 40.5 11.90625 40.40625 11.8125 39.5 10.921875 
C 33.09375 2.484375 23.59375 1 19.796875 1 
C 14.09375 1 11.09375 5.46875 11.09375 12.84375 
C 11.09375 14.234375 11.09375 16.734375 12.59375 23.109375 
z
M 13.09375 25 
C 17.40625 40.5 26.90625 42.015625 30.09375 42.015625 
C 34.5 42.015625 37.5 39.40625 37.5 35.578125 
C 37.5 25 21.5 25 17.296875 25 
z
" id="CMMI12-101"/>
      <path d="M 41.703125 61.09375 
C 42.296875 63.5 42.5 64.390625 44 64.796875 
C 44.796875 65 48.09375 65 50.203125 65 
C 60.203125 65 64.90625 64.59375 64.90625 56.78125 
C 64.90625 55.265625 64.5 51.484375 63.90625 47.765625 
L 63.796875 46.5625 
C 63.796875 46.15625 64.203125 45.5625 64.796875 45.5625 
C 65.796875 45.5625 65.796875 46.0625 66.09375 47.65625 
L 69 65.375 
C 69.203125 66.296875 69.203125 66.5 69.203125 66.796875 
C 69.203125 67.890625 68.59375 67.890625 66.59375 67.890625 
L 11.90625 67.890625 
C 9.59375 67.890625 9.5 67.796875 8.90625 66 
L 2.796875 47.96875 
C 2.703125 47.75 2.40625 46.65625 2.40625 46.5625 
C 2.40625 46.0625 2.796875 45.5625 3.40625 45.5625 
C 4.203125 45.5625 4.40625 45.953125 4.796875 47.25 
C 9 59.390625 11.09375 65 24.40625 65 
L 31.09375 65 
C 33.5 65 34.5 65 34.5 63.890625 
C 34.5 63.578125 34.5 63.390625 34 61.578125 
L 20.59375 7.796875 
C 19.59375 3.890625 19.40625 2.890625 8.796875 2.890625 
C 6.296875 2.890625 5.59375 2.890625 5.59375 1 
C 5.59375 0 6.703125 0 7.203125 0 
C 9.703125 0 12.296875 0 14.796875 0 
L 30.40625 0 
C 32.90625 0 35.59375 0 38.09375 0 
C 39.203125 0 40.203125 0 40.203125 1.890625 
C 40.203125 2.890625 39.5 2.890625 36.90625 2.890625 
C 27.90625 2.890625 27.90625 3.796875 27.90625 5.296875 
C 27.90625 5.40625 27.90625 6.109375 28.296875 7.71875 
z
" id="CMMI12-84"/>
      <path d="M 42.90625 71.28125 
C 42.90625 71.390625 43.5 72.90625 43.5 73.09375 
C 43.5 74.296875 42.5 75 41.703125 75 
C 41.203125 75 40.296875 75 39.5 72.796875 
L 6 -21.296875 
C 6 -21.40625 5.40625 -22.890625 5.40625 -23.09375 
C 5.40625 -24.296875 6.40625 -25 7.203125 -25 
C 7.796875 -25 8.703125 -24.890625 9.40625 -22.796875 
z
" id="CMMI12-61"/>
      <path d="M 23.59375 73 
C 13.59375 59.84375 7.296875 41.5625 7.296875 25.796875 
C 7.296875 9.9375 13.59375 -8.34375 23.59375 -21.5 
L 29.09375 -21.5 
C 20.296875 -7.140625 15.40625 9.734375 15.40625 25.796875 
C 15.40625 41.765625 20.296875 58.734375 29.09375 73 
z
" id="Nimbus_Sans_L_Regular-40"/>
      <path d="M 38.90625 27.890625 
L 18.90625 47.796875 
C 17.703125 49 17.5 49.1875 16.703125 49.1875 
C 15.703125 49.1875 14.703125 48.296875 14.703125 47.1875 
C 14.703125 46.5 14.90625 46.296875 16 45.1875 
L 36 25.09375 
L 16 5 
C 14.90625 3.890625 14.703125 3.6875 14.703125 3 
C 14.703125 1.890625 15.703125 1 16.703125 1 
C 17.5 1 17.703125 1.1875 18.90625 2.390625 
L 38.796875 22.296875 
L 59.5 1.59375 
C 59.703125 1.5 60.40625 1 61 1 
C 62.203125 1 63 1.890625 63 3 
C 63 3.1875 63 3.59375 62.703125 4.09375 
C 62.59375 4.296875 46.703125 20 41.703125 25.09375 
L 60 43.390625 
C 60.5 44 62 45.296875 62.5 45.890625 
C 62.59375 46.09375 63 46.5 63 47.1875 
C 63 48.296875 62.203125 49.1875 61 49.1875 
C 60.203125 49.1875 59.796875 48.796875 58.703125 47.6875 
z
" id="CMSY10-2"/>
      <path d="M 9.296875 -21.5 
C 19.296875 -8.34375 25.59375 9.9375 25.59375 25.6875 
C 25.59375 41.5625 19.296875 59.84375 9.296875 73 
L 3.796875 73 
C 12.59375 58.640625 17.5 41.765625 17.5 25.6875 
C 17.5 9.734375 12.59375 -7.25 3.796875 -21.5 
z
" id="Nimbus_Sans_L_Regular-41"/>
     </defs>
     <g transform="translate(22.8771563667 203.951365546)rotate(-90.0)scale(0.12 -0.12)">
      <use transform="translate(0.0 14.9439145441)scale(0.996264009963)" xlink:href="#CMMI12-78"/>
      <use transform="translate(80.3926194738 14.9439145441)scale(0.996264009963)" xlink:href="#CMMI12-61"/>
      <use transform="translate(129.167538236 14.9439145441)scale(0.996264009963)" xlink:href="#CMMI12-84"/>
      <use transform="translate(186.342581895 0.0)scale(0.697381766617)" xlink:href="#CMMI12-101"/>
      <use transform="translate(246.184139798 14.9439145441)scale(0.996264009963)" xlink:href="#Nimbus_Sans_L_Regular-40"/>
      <use transform="translate(279.359369527 14.9439145441)scale(0.996264009963)" xlink:href="#CMSY10-2"/>
      <use transform="translate(356.846837178 14.9439145441)scale(0.996264009963)" xlink:href="#CMR17-49"/>
      <use transform="translate(402.537314295 14.9439145441)scale(0.996264009963)" xlink:href="#CMR17-48"/>
      <use transform="translate(448.227791412 51.097553486)scale(0.697381766617)" xlink:href="#CMR17-54"/>
      <use transform="translate(480.709105381 14.9439145441)scale(0.996264009963)" xlink:href="#Nimbus_Sans_L_Regular-41"/>
     </g>
    </g>
   </g>
   <g id="text_18">
    <!-- $a_i = b_i + c_i$ -->
    <defs>
     <path d="M 30.09375 11.875 
C 29.59375 10.171875 29.59375 9.984375 28.203125 8.078125 
C 26 5.28125 21.59375 1 16.90625 1 
C 12.796875 1 10.5 4.6875 10.5 10.578125 
C 10.5 16.0625 13.59375 27.234375 15.5 31.4375 
C 18.90625 38.421875 23.59375 42.015625 27.5 42.015625 
C 34.09375 42.015625 35.40625 33.828125 35.40625 33.03125 
C 35.40625 32.9375 35.09375 31.625 35 31.4375 
z
M 36.5 37.421875 
C 35.40625 40.015625 32.703125 44 27.5 44 
C 16.203125 44 4 29.4375 4 14.671875 
C 4 4.796875 9.796875 -1 16.59375 -1 
C 22.09375 -1 26.796875 3.296875 29.59375 6.59375 
C 30.59375 0.703125 35.296875 -1 38.296875 -1 
C 41.296875 -1 43.703125 0.796875 45.5 4.390625 
C 47.09375 7.78125 48.5 13.875 48.5 14.265625 
C 48.5 14.765625 48.09375 15.171875 47.5 15.171875 
C 46.59375 15.171875 46.5 14.671875 46.09375 13.171875 
C 44.59375 7.28125 42.703125 1 38.59375 1 
C 35.703125 1 35.5 3.59375 35.5 5.59375 
C 35.5 7.890625 35.796875 8.984375 36.703125 12.875 
C 37.40625 15.375 37.90625 17.5625 38.703125 20.453125 
C 42.40625 35.421875 43.296875 39.015625 43.296875 39.609375 
C 43.296875 41.015625 42.203125 42.109375 40.703125 42.109375 
C 37.5 42.109375 36.703125 38.625 36.5 37.421875 
" id="CMMI12-97"/>
     <path d="M 28.296875 14.265625 
C 28.296875 14.765625 27.90625 15.171875 27.296875 15.171875 
C 26.40625 15.171875 26.296875 14.875 25.796875 13.171875 
C 23.203125 4.09375 19.09375 1 15.796875 1 
C 14.59375 1 13.203125 1.296875 13.203125 4.296875 
C 13.203125 6.984375 14.40625 9.984375 15.5 12.96875 
L 22.5 31.53125 
C 22.796875 32.328125 23.5 34.125 23.5 36.015625 
C 23.5 40.21875 20.5 44 15.59375 44 
C 6.40625 44 2.703125 29.53125 2.703125 28.734375 
C 2.703125 28.34375 3.09375 27.84375 3.796875 27.84375 
C 4.703125 27.84375 4.796875 28.234375 5.203125 29.625 
C 7.59375 37.9375 11.40625 41.90625 15.296875 41.90625 
C 16.203125 41.90625 17.90625 41.90625 17.90625 38.71875 
C 17.90625 36.125 16.59375 32.828125 15.796875 30.640625 
L 8.796875 12.078125 
C 8.203125 10.484375 7.59375 8.875 7.59375 7.078125 
C 7.59375 2.59375 10.703125 -1 15.5 -1 
C 24.703125 -1 28.296875 13.578125 28.296875 14.265625 
M 27.5 62.703125 
C 27.5 64.203125 26.296875 66 24.09375 66 
C 21.796875 66 19.203125 63.796875 19.203125 61.203125 
C 19.203125 58.71875 21.296875 57.921875 22.5 57.921875 
C 25.203125 57.921875 27.5 60.515625 27.5 62.703125 
" id="CMMI12-105"/>
     <path d="M 64.296875 31.515625 
C 65.796875 31.515625 67.296875 31.515625 67.296875 33.203125 
C 67.296875 35 65.59375 35 63.90625 35 
L 8 35 
C 6.296875 35 4.59375 35 4.59375 33.203125 
C 4.59375 31.515625 6.09375 31.515625 7.59375 31.515625 
z
M 63.90625 14 
C 65.59375 14 67.296875 14 67.296875 15.796875 
C 67.296875 17.484375 65.796875 17.484375 64.296875 17.484375 
L 7.59375 17.484375 
C 6.09375 17.484375 4.59375 17.484375 4.59375 15.796875 
C 4.59375 14 6.296875 14 8 14 
z
" id="CMR17-61"/>
     <path d="M 23.09375 66.515625 
C 23.203125 66.921875 23.40625 67.515625 23.40625 68 
C 23.40625 69 22.40625 69 22.203125 69 
C 22.09375 69 18.5 68.640625 16.703125 68.390625 
C 15 68.390625 13.5 68.09375 11.703125 68.09375 
C 9.296875 67.890625 8.59375 67.796875 8.59375 66 
C 8.59375 65 9.59375 65 10.59375 65 
C 15.703125 65 15.703125 64.109375 15.703125 63.125 
C 15.703125 62.4375 14.90625 59.546875 14.5 57.75 
L 12.09375 48.203125 
C 11.09375 44.234375 5.40625 21.671875 5 19.875 
C 4.5 17.40625 4.5 15.703125 4.5 14.40625 
C 4.5 4.28125 10.203125 -1 16.703125 -1 
C 28.296875 -1 40.296875 13.875 40.296875 28.34375 
C 40.296875 37.515625 35.09375 44 27.59375 44 
C 22.40625 44 17.703125 39.71875 15.796875 37.71875 
z
M 16.796875 1 
C 13.59375 1 10.09375 3.390625 10.09375 11.171875 
C 10.09375 14.46875 10.40625 16.359375 12.203125 23.34375 
C 12.5 24.640625 14.09375 31.03125 14.5 32.328125 
C 14.703125 33.125 20.59375 42.015625 27.40625 42.015625 
C 31.796875 42.015625 33.796875 37.625 33.796875 32.4375 
C 33.796875 27.640625 31 16.359375 28.5 11.171875 
C 26 5.78125 21.40625 1 16.796875 1 
" id="CMMI12-98"/>
     <path d="M 39.09375 37.984375 
C 37.203125 37.984375 36.296875 37.984375 34.90625 36.796875 
C 34.296875 36.296875 33.203125 34.796875 33.203125 33.203125 
C 33.203125 31.203125 34.703125 30 36.59375 30 
C 39 30 41.703125 31.9375 41.703125 35.8125 
C 41.703125 40.4375 37.09375 44 30.203125 44 
C 17.09375 44 4 29.734375 4 15.5625 
C 4 6.890625 9.40625 -1 19.59375 -1 
C 33.203125 -1 41.796875 9.71875 41.796875 11.03125 
C 41.796875 11.625 41.203125 12.125 40.796875 12.125 
C 40.5 12.125 40.40625 12.03125 39.5 11.140625 
C 33.09375 2.53125 23.59375 1 19.796875 1 
C 12.90625 1 10.703125 6.96875 10.703125 11.9375 
C 10.703125 15.4375 12.40625 25.078125 16 31.859375 
C 18.59375 36.53125 24 41.90625 30.296875 41.90625 
C 31.59375 41.90625 37.09375 41.90625 39.09375 37.984375 
" id="CMMI12-99"/>
     <path d="M 37.703125 23 
L 64.203125 23 
C 65.59375 23 67.296875 23 67.296875 24.6875 
C 67.296875 26.484375 65.703125 26.484375 64.203125 26.484375 
L 37.703125 26.484375 
L 37.703125 52.90625 
C 37.703125 54.296875 37.703125 56 36 56 
C 34.203125 56 34.203125 54.40625 34.203125 52.90625 
L 34.203125 26.484375 
L 7.703125 26.484375 
C 6.296875 26.484375 4.59375 26.484375 4.59375 24.796875 
C 4.59375 23 6.203125 23 7.703125 23 
L 34.203125 23 
L 34.203125 -3.40625 
C 34.203125 -4.796875 34.203125 -6.5 35.90625 -6.5 
C 37.703125 -6.5 37.703125 -4.90625 37.703125 -3.40625 
z
" id="CMR17-43"/>
    </defs>
    <g transform="translate(201.011611425 23.1815720589)scale(0.144 -0.144)">
     <use transform="translate(0.0 14.9439145441)scale(0.996264009963)" xlink:href="#CMMI12-97"/>
     <use transform="translate(51.2078576189 0.0)scale(0.697381766617)" xlink:href="#CMMI12-105"/>
     <use transform="translate(102.674905627 14.9439145441)scale(0.996264009963)" xlink:href="#CMR17-61"/>
     <use transform="translate(202.063702765 14.9439145441)scale(0.996264009963)" xlink:href="#CMMI12-98"/>
     <use transform="translate(243.539576928 0.0)scale(0.697381766617)" xlink:href="#CMMI12-105"/>
     <use transform="translate(289.471823192 14.9439145441)scale(0.996264009963)" xlink:href="#CMR17-43"/>
     <use transform="translate(383.325818586 14.9439145441)scale(0.996264009963)" xlink:href="#CMMI12-99"/>
     <use transform="translate(425.309052236 0.0)scale(0.697381766617)" xlink:href="#CMMI12-105"/>
    </g>
   </g>
   <g id="legend_1">
    <g id="patch_7">
     <path d="M 254.22973 122.141426 
L 400.989918 122.141426 
Q 403.869918 122.141426 403.869918 119.261426 
L 403.869918 38.261572 
Q 403.869918 35.381572 400.989918 35.381572 
L 254.22973 35.381572 
Q 251.34973 35.381572 251.34973 38.261572 
L 251.34973 119.261426 
Q 251.34973 122.141426 254.22973 122.141426 
z
" style="fill:#ffffff;opacity:0.3;stroke:#000000;stroke-linejoin:miter;"/>
    </g>
    <g id="line2d_131">
     <path d="M 261.42973 46.588628 
L 281.58973 46.588628 
" style="fill:none;stroke:#0000ff;stroke-linecap:square;"/>
    </g>
    <g id="line2d_132"/>
    <g id="text_19">
     <!-- Aboria (Level 1) -->
     <defs>
      <path d="M 25.90625 50.59375 
L 25.90625 0 
L 34.703125 0 
L 34.703125 71.015625 
L 28.90625 71.015625 
C 25.796875 60.109375 23.796875 58.609375 10.203125 56.90625 
L 10.203125 50.59375 
z
" id="Nimbus_Sans_L_Regular-49"/>
      <path d="M 53.5 5.203125 
C 52.59375 5 52.203125 5 51.703125 5 
C 48.796875 5 47.203125 6.484375 47.203125 9.078125 
L 47.203125 39.765625 
C 47.203125 49.015625 40.40625 54 27.5 54 
C 19.90625 54 13.59375 51.8125 10.09375 47.90625 
C 7.703125 45.203125 6.703125 42.21875 6.5 37.03125 
L 14.90625 37.03125 
C 15.59375 43.390625 19.40625 46.28125 27.203125 46.28125 
C 34.703125 46.28125 38.90625 43.484375 38.90625 38.515625 
L 38.90625 36.328125 
C 38.90625 32.828125 36.796875 31.34375 30.203125 30.546875 
C 18.40625 29.0625 16.59375 28.65625 13.40625 27.359375 
C 7.296875 24.875 4.203125 20.1875 4.203125 13.421875 
C 4.203125 3.96875 10.796875 -2 21.40625 -2 
C 28 -2 33.296875 0.296875 39.203125 5.703125 
C 39.796875 0.390625 42.40625 -2 47.796875 -2 
C 49.5 -2 50.796875 -1.8125 53.5 -1.09375 
z
M 38.90625 16.75 
C 38.90625 13.953125 38.09375 12.265625 35.59375 9.984375 
C 32.203125 6.890625 28.09375 5.3125 23.203125 5.3125 
C 16.703125 5.3125 12.90625 8.390625 12.90625 13.65625 
C 12.90625 19.140625 16.59375 21.921875 25.5 23.21875 
C 34.296875 24.40625 36.09375 24.8125 38.90625 26.09375 
z
" id="Nimbus_Sans_L_Regular-97"/>
      <path d="M 5.40625 73 
L 5.40625 -0.03125 
L 12.90625 -0.03125 
L 12.90625 7 
C 16.90625 0.890625 22.203125 -2 29.5 -2 
C 43.296875 -2 52.296875 9.25 52.296875 26.59375 
C 52.296875 43.53125 43.703125 54 29.90625 54 
C 22.703125 54 17.59375 51.28125 13.703125 45.390625 
L 13.703125 73 
z
M 28.296875 46.1875 
C 37.59375 46.1875 43.59375 38.125 43.59375 25.703125 
C 43.59375 13.859375 37.40625 5.8125 28.296875 5.8125 
C 19.5 5.8125 13.703125 13.765625 13.703125 26 
C 13.703125 38.234375 19.5 46.1875 28.296875 46.1875 
" id="Nimbus_Sans_L_Regular-98"/>
      <path d="M 28.5 0 
L 48.59375 52.5 
L 39.203125 52.5 
L 24.40625 9.921875 
L 10.40625 52.5 
L 1 52.5 
L 19.40625 0 
z
" id="Nimbus_Sans_L_Regular-118"/>
      <path d="M 47.40625 22 
L 54.90625 0 
L 65.296875 0 
L 39.703125 73 
L 27.703125 73 
L 1.703125 0 
L 11.59375 0 
L 19.296875 22 
z
M 44.796875 29.8125 
L 21.59375 29.8125 
L 33.59375 63 
z
" id="Nimbus_Sans_L_Regular-65"/>
      <path d="M 15.203125 73 
L 6.796875 73 
L 6.796875 -0.03125 
L 15.203125 -0.03125 
z
" id="Nimbus_Sans_L_Regular-108"/>
      <path d="M 15 52.484375 
L 6.703125 52.484375 
L 6.703125 0 
L 15 0 
z
M 15 73 
L 6.59375 73 
L 6.59375 62.484375 
L 15 62.484375 
z
" id="Nimbus_Sans_L_Regular-105"/>
      <path d="M 17.296875 73 
L 8 73 
L 8 0 
L 53.296875 0 
L 53.296875 8.21875 
L 17.296875 8.21875 
z
" id="Nimbus_Sans_L_Regular-76"/>
      <path d="M 27.203125 54 
C 12.5 54 3.59375 43.53125 3.59375 25.984375 
C 3.59375 8.453125 12.40625 -2 27.296875 -2 
C 42 -2 51 8.453125 51 25.59375 
C 51 43.625 42.296875 54 27.203125 54 
M 27.296875 46.28125 
C 36.703125 46.28125 42.296875 38.625 42.296875 25.703125 
C 42.296875 13.453125 36.5 5.703125 27.296875 5.703125 
C 18 5.703125 12.296875 13.359375 12.296875 25.984375 
C 12.296875 38.53125 18 46.28125 27.296875 46.28125 
" id="Nimbus_Sans_L_Regular-111"/>
      <path d="M 51.296875 23.890625 
C 51.296875 31.78125 50.703125 36.53125 49.203125 40.375 
C 45.796875 48.859375 37.796875 54 28 54 
C 13.40625 54 4 42.84375 4 25.703125 
C 4 8.546875 13.09375 -2 27.796875 -2 
C 39.796875 -2 48.09375 4.84375 50.203125 16.3125 
L 41.796875 16.3125 
C 39.5 9.34375 34.796875 5.703125 28.09375 5.703125 
C 22.796875 5.703125 18.296875 8.125 15.5 12.578125 
C 13.5 15.59375 12.796875 18.640625 12.703125 23.890625 
z
M 12.90625 31 
C 13.59375 40.265625 19.5 46.28125 27.90625 46.28125 
C 36.09375 46.28125 42.40625 39.53125 42.40625 31 
C 42.40625 31 42.40625 31 42.296875 31 
z
" id="Nimbus_Sans_L_Regular-101"/>
      <path d="M 6.90625 52.484375 
L 6.90625 0 
L 15.296875 0 
L 15.296875 27.203125 
C 15.296875 34.703125 17.203125 39.609375 21.203125 42.5 
C 23.796875 44.40625 26.296875 45 32.09375 45 
L 32.09375 53.625 
C 30.703125 53.8125 30 53.8125 28.90625 53.8125 
C 23.5 53.8125 19.40625 50.625 14.59375 42.90625 
L 14.59375 52.484375 
z
" id="Nimbus_Sans_L_Regular-114"/>
     </defs>
     <g transform="translate(297.429729773 51.6286280452)scale(0.144 -0.144)">
      <use transform="scale(0.996264009963)" xlink:href="#Nimbus_Sans_L_Regular-65"/>
      <use transform="translate(66.4500311333 0.0)scale(0.996264009963)" xlink:href="#Nimbus_Sans_L_Regular-98"/>
      <use transform="translate(121.841708097 0.0)scale(0.996264009963)" xlink:href="#Nimbus_Sans_L_Regular-111"/>
      <use transform="translate(177.23338506 0.0)scale(0.996264009963)" xlink:href="#Nimbus_Sans_L_Regular-114"/>
      <use transform="translate(211.901992285 0.0)scale(0.996264009963)" xlink:href="#Nimbus_Sans_L_Regular-105"/>
      <use transform="translate(234.018776634 0.0)scale(0.996264009963)" xlink:href="#Nimbus_Sans_L_Regular-97"/>
      <use transform="translate(317.1056232 0.0)scale(0.996264009963)" xlink:href="#Nimbus_Sans_L_Regular-40"/>
      <use transform="translate(350.280852929 0.0)scale(0.996264009963)" xlink:href="#Nimbus_Sans_L_Regular-76"/>
      <use transform="translate(405.672529893 0.0)scale(0.996264009963)" xlink:href="#Nimbus_Sans_L_Regular-101"/>
      <use transform="translate(458.076098906 0.0)scale(0.996264009963)" xlink:href="#Nimbus_Sans_L_Regular-118"/>
      <use transform="translate(505.398669783 0.0)scale(0.996264009963)" xlink:href="#Nimbus_Sans_L_Regular-101"/>
      <use transform="translate(560.790346747 0.0)scale(0.996264009963)" xlink:href="#Nimbus_Sans_L_Regular-108"/>
      <use transform="translate(610.602300699 0.0)scale(0.996264009963)" xlink:href="#Nimbus_Sans_L_Regular-49"/>
      <use transform="translate(665.993977662 0.0)scale(0.996264009963)" xlink:href="#Nimbus_Sans_L_Regular-41"/>
     </g>
    </g>
    <g id="line2d_133">
     <path d="M 261.42973 67.331334 
L 281.58973 67.331334 
" style="fill:none;stroke:#008000;stroke-linecap:square;"/>
    </g>
    <g id="line2d_134"/>
    <g id="text_20">
     <!-- Aboria (Level 2) -->
     <defs>
      <path d="M 50.59375 8.71875 
L 13.296875 8.71875 
C 14.203125 14.53125 17.40625 18.234375 26.09375 23.34375 
L 36.09375 28.75 
C 46 34.15625 51.09375 41.453125 51.09375 50.171875 
C 51.09375 56.078125 48.703125 61.59375 44.5 65.390625 
C 40.296875 69.203125 35.09375 71 28.40625 71 
C 19.40625 71 12.703125 67.796875 8.796875 61.796875 
C 6.296875 57.984375 5.203125 53.578125 5 46.359375 
L 13.796875 46.359375 
C 14.09375 51.171875 14.703125 54.078125 15.90625 56.375 
C 18.203125 60.6875 22.796875 63.296875 28.09375 63.296875 
C 36.09375 63.296875 42.09375 57.578125 42.09375 49.96875 
C 42.09375 44.359375 38.796875 39.546875 32.5 35.953125 
L 23.296875 30.75 
C 8.5 22.34375 4.203125 15.625 3.40625 0 
L 50.59375 0 
z
" id="Nimbus_Sans_L_Regular-50"/>
     </defs>
     <g transform="translate(297.429729773 72.3713335004)scale(0.144 -0.144)">
      <use transform="scale(0.996264009963)" xlink:href="#Nimbus_Sans_L_Regular-65"/>
      <use transform="translate(66.4500311333 0.0)scale(0.996264009963)" xlink:href="#Nimbus_Sans_L_Regular-98"/>
      <use transform="translate(121.841708097 0.0)scale(0.996264009963)" xlink:href="#Nimbus_Sans_L_Regular-111"/>
      <use transform="translate(177.23338506 0.0)scale(0.996264009963)" xlink:href="#Nimbus_Sans_L_Regular-114"/>
      <use transform="translate(211.901992285 0.0)scale(0.996264009963)" xlink:href="#Nimbus_Sans_L_Regular-105"/>
      <use transform="translate(234.018776634 0.0)scale(0.996264009963)" xlink:href="#Nimbus_Sans_L_Regular-97"/>
      <use transform="translate(317.1056232 0.0)scale(0.996264009963)" xlink:href="#Nimbus_Sans_L_Regular-40"/>
      <use transform="translate(350.280852929 0.0)scale(0.996264009963)" xlink:href="#Nimbus_Sans_L_Regular-76"/>
      <use transform="translate(405.672529893 0.0)scale(0.996264009963)" xlink:href="#Nimbus_Sans_L_Regular-101"/>
      <use transform="translate(458.076098906 0.0)scale(0.996264009963)" xlink:href="#Nimbus_Sans_L_Regular-118"/>
      <use transform="translate(505.398669783 0.0)scale(0.996264009963)" xlink:href="#Nimbus_Sans_L_Regular-101"/>
      <use transform="translate(560.790346747 0.0)scale(0.996264009963)" xlink:href="#Nimbus_Sans_L_Regular-108"/>
      <use transform="translate(610.602300699 0.0)scale(0.996264009963)" xlink:href="#Nimbus_Sans_L_Regular-50"/>
      <use transform="translate(665.993977662 0.0)scale(0.996264009963)" xlink:href="#Nimbus_Sans_L_Regular-41"/>
     </g>
    </g>
    <g id="line2d_135">
     <path d="M 261.42973 87.808555 
L 281.58973 87.808555 
" style="fill:none;stroke:#ff0000;stroke-linecap:square;"/>
    </g>
    <g id="line2d_136"/>
    <g id="text_21">
     <!-- Eigen -->
     <defs>
      <path d="M 18.296875 33 
L 58 33 
L 58 41.21875 
L 18.296875 41.21875 
L 18.296875 64.78125 
L 59.5 64.78125 
L 59.5 73 
L 9 73 
L 9 0 
L 61.296875 0 
L 61.296875 8.21875 
L 18.296875 8.21875 
z
" id="Nimbus_Sans_L_Regular-69"/>
      <path d="M 7 52.484375 
L 7 0 
L 15.40625 0 
L 15.40625 28.953125 
C 15.40625 39.671875 21 46.6875 29.59375 46.6875 
C 36.203125 46.6875 40.40625 42.671875 40.40625 36.359375 
L 40.40625 0 
L 48.703125 0 
L 48.703125 39.671875 
C 48.703125 48.390625 42.203125 54 32.09375 54 
C 24.296875 54 19.296875 50.984375 14.703125 43.6875 
L 14.703125 52.484375 
z
" id="Nimbus_Sans_L_Regular-110"/>
      <path d="M 41.203125 52.203125 
L 41.203125 44.59375 
C 37 50.8125 31.90625 53.71875 25.203125 53.71875 
C 11.90625 53.71875 2.90625 42.0625 2.90625 25 
C 2.90625 16.375 5.203125 9.34375 9.5 4.3125 
C 13.40625 -0.109375 19 -2.703125 24.5 -2.703125 
C 31.09375 -2.703125 35.703125 0.09375 40.40625 6.703125 
L 40.40625 4.03125 
C 40.40625 -3 39.5 -7.265625 37.40625 -10.140625 
C 35.203125 -13.1875 30.90625 -14.984375 25.796875 -14.984375 
C 22 -14.984375 18.59375 -14 16.296875 -12.234375 
C 14.40625 -10.75 13.59375 -9.375 13.09375 -6.34375 
L 4.59375 -6.34375 
C 5.5 -16.140625 13.203125 -22 25.5 -22 
C 33.296875 -22 40 -19.484375 43.40625 -15.296875 
C 47.40625 -10.484375 48.90625 -3.890625 48.90625 8.40625 
L 48.90625 52.203125 
z
M 26.09375 46 
C 35.09375 46 40.40625 38.359375 40.40625 25.203125 
C 40.40625 12.625 35 5 26.203125 5 
C 17.09375 5 11.59375 12.75 11.59375 25.5 
C 11.59375 38.15625 17.203125 46 26.09375 46 
" id="Nimbus_Sans_L_Regular-103"/>
     </defs>
     <g transform="translate(297.429729773 92.848555028)scale(0.144 -0.144)">
      <use transform="scale(0.996264009963)" xlink:href="#Nimbus_Sans_L_Regular-69"/>
      <use transform="translate(66.4500311333 0.0)scale(0.996264009963)" xlink:href="#Nimbus_Sans_L_Regular-105"/>
      <use transform="translate(88.566815482 0.0)scale(0.996264009963)" xlink:href="#Nimbus_Sans_L_Regular-103"/>
      <use transform="translate(143.958492445 0.0)scale(0.996264009963)" xlink:href="#Nimbus_Sans_L_Regular-101"/>
      <use transform="translate(199.350169409 0.0)scale(0.996264009963)" xlink:href="#Nimbus_Sans_L_Regular-110"/>
     </g>
    </g>
    <g id="line2d_137">
     <path d="M 261.42973 108.285777 
L 281.58973 108.285777 
" style="fill:none;stroke:#00bfbf;stroke-linecap:square;"/>
    </g>
    <g id="line2d_138"/>
    <g id="text_22">
     <!-- std::vector -->
     <defs>
      <path d="M 21.40625 10.421875 
L 11 10.421875 
L 11 0 
L 21.40625 0 
z
M 21.40625 52.40625 
L 11 52.40625 
L 11 42 
L 21.40625 42 
z
" id="Nimbus_Sans_L_Regular-58"/>
      <path d="M 47.09375 34.9375 
C 46.703125 40.03125 45.59375 43.328125 43.59375 46.21875 
C 40 51.109375 33.703125 54 26.40625 54 
C 12.296875 54 3.09375 42.84375 3.09375 25.5 
C 3.09375 8.65625 12.09375 -2 26.296875 -2 
C 38.796875 -2 46.703125 5.46875 47.703125 18.234375 
L 39.296875 18.234375 
C 37.90625 9.875 33.59375 5.703125 26.5 5.703125 
C 17.296875 5.703125 11.796875 13.171875 11.796875 25.5 
C 11.796875 38.53125 17.203125 46.28125 26.296875 46.28125 
C 33.296875 46.28125 37.703125 42.203125 38.703125 34.9375 
z
" id="Nimbus_Sans_L_Regular-99"/>
      <path d="M 25.40625 52.8125 
L 16.796875 52.8125 
L 16.796875 67 
L 8.5 67 
L 8.5 52.8125 
L 1.40625 52.8125 
L 1.40625 46 
L 8.5 46 
L 8.5 6.3125 
C 8.5 1 12.09375 -2 18.59375 -2 
C 20.59375 -2 22.59375 -1.8125 25.40625 -1.296875 
L 25.40625 5.71875 
C 24.296875 5.40625 23 5.3125 21.40625 5.3125 
C 17.796875 5.3125 16.796875 6.3125 16.796875 10.015625 
L 16.796875 46 
L 25.40625 46 
z
" id="Nimbus_Sans_L_Regular-116"/>
      <path d="M 49.5 73 
L 41.203125 73 
L 41.203125 45.890625 
C 37.703125 51.1875 32.09375 54 25.09375 54 
C 11.5 54 2.59375 43.140625 2.59375 26.484375 
C 2.59375 8.84375 11.296875 -2 25.40625 -2 
C 32.59375 -2 37.59375 0.703125 42.09375 7.203125 
L 42.09375 -0.03125 
L 49.5 -0.03125 
z
M 26.5 46.1875 
C 35.5 46.1875 41.203125 38.234375 41.203125 25.796875 
C 41.203125 13.765625 35.40625 5.8125 26.59375 5.8125 
C 17.40625 5.8125 11.296875 13.859375 11.296875 26 
C 11.296875 38.125 17.40625 46.1875 26.5 46.1875 
" id="Nimbus_Sans_L_Regular-100"/>
      <path d="M 43.796875 37.921875 
C 43.703125 48.203125 36.90625 54 24.796875 54 
C 12.59375 54 4.703125 47.71875 4.703125 38.0625 
C 4.703125 29.890625 8.90625 26.015625 21.296875 23.03125 
L 29.09375 21.140625 
C 34.90625 19.734375 37.203125 17.65625 37.203125 13.875 
C 37.203125 9 32.296875 5.703125 25 5.703125 
C 20.5 5.703125 16.703125 7 14.59375 9.1875 
C 13.296875 10.6875 12.703125 12.171875 12.203125 15.84375 
L 3.40625 15.84375 
C 3.796875 3.765625 10.59375 -2 24.296875 -2 
C 37.5 -2 45.90625 4.453125 45.90625 14.515625 
C 45.90625 22.28125 41.5 26.578125 31.09375 29.0625 
L 23.09375 30.953125 
C 16.296875 32.53125 13.40625 34.734375 13.40625 38.40625 
C 13.40625 43.1875 17.703125 46.28125 24.5 46.28125 
C 31.203125 46.28125 34.796875 43.390625 35 37.921875 
z
" id="Nimbus_Sans_L_Regular-115"/>
     </defs>
     <g transform="translate(297.429729773 113.325776556)scale(0.144 -0.144)">
      <use transform="scale(0.996264009963)" xlink:href="#Nimbus_Sans_L_Regular-115"/>
      <use transform="translate(49.8132004981 0.0)scale(0.996264009963)" xlink:href="#Nimbus_Sans_L_Regular-116"/>
      <use transform="translate(77.5083701014 0.0)scale(0.996264009963)" xlink:href="#Nimbus_Sans_L_Regular-100"/>
      <use transform="translate(132.900047065 0.0)scale(0.996264009963)" xlink:href="#Nimbus_Sans_L_Regular-58"/>
      <use transform="translate(160.595216668 0.0)scale(0.996264009963)" xlink:href="#Nimbus_Sans_L_Regular-58"/>
      <use transform="translate(188.290386271 0.0)scale(0.996264009963)" xlink:href="#Nimbus_Sans_L_Regular-118"/>
      <use transform="translate(235.612957148 0.0)scale(0.996264009963)" xlink:href="#Nimbus_Sans_L_Regular-101"/>
      <use transform="translate(291.004634111 0.0)scale(0.996264009963)" xlink:href="#Nimbus_Sans_L_Regular-99"/>
      <use transform="translate(340.817834609 0.0)scale(0.996264009963)" xlink:href="#Nimbus_Sans_L_Regular-116"/>
      <use transform="translate(368.513004213 0.0)scale(0.996264009963)" xlink:href="#Nimbus_Sans_L_Regular-111"/>
      <use transform="translate(423.904681176 0.0)scale(0.996264009963)" xlink:href="#Nimbus_Sans_L_Regular-114"/>
     </g>
    </g>
   </g>
  </g>
 </g>
 <defs>
  <clipPath id="pd590e08cab">
   <rect height="287.729710193" width="353.234426394" x="57.8354919297" y="28.1815720589"/>
  </clipPath>
 </defs>
</svg>
