<?xml version="1.0" encoding="UTF-8"?>
<svg xmlns="http://www.w3.org/2000/svg" xmlns:xlink="http://www.w3.org/1999/xlink" width="512pt" height="102.4pt" viewBox="0 0 512 102.4" version="1.2">
<g id="surface3997">
<path style=" stroke:none;fill-rule:nonzero;fill:rgb(4.968511%,0%,0%);fill-opacity:1;" d="M 23.179688 51.199219 C 23.179688 58.027344 12.9375 58.027344 12.9375 51.199219 C 12.9375 44.375 23.179688 44.375 23.179688 51.199219 "/>
<path style=" stroke:none;fill-rule:nonzero;fill:rgb(9.919068%,0%,0%);fill-opacity:1;" d="M 41.230469 51.199219 C 41.230469 58.027344 30.988281 58.027344 30.988281 51.199219 C 30.988281 44.375 41.230469 44.375 41.230469 51.199219 "/>
<path style=" stroke:none;fill-rule:nonzero;fill:rgb(14.813262%,0%,0%);fill-opacity:1;" d="M 59.25 51.199219 C 59.25 58.027344 49.011719 58.027344 49.011719 51.199219 C 49.011719 44.375 59.25 44.375 59.25 51.199219 "/>
<path style=" stroke:none;fill-rule:nonzero;fill:rgb(19.584316%,0%,0%);fill-opacity:1;" d="M 77.207031 51.199219 C 77.207031 58.027344 66.96875 58.027344 66.96875 51.199219 C 66.96875 44.375 77.207031 44.375 77.207031 51.199219 "/>
<path style=" stroke:none;fill-rule:nonzero;fill:rgb(24.142477%,0%,0%);fill-opacity:1;" d="M 95.058594 51.199219 C 95.058594 58.027344 84.816406 58.027344 84.816406 51.199219 C 84.816406 44.375 95.058594 44.375 95.058594 51.199219 "/>
<path style=" stroke:none;fill-rule:nonzero;fill:rgb(28.3841%,0%,0%);fill-opacity:1;" d="M 112.742188 51.199219 C 112.742188 58.027344 102.503906 58.027344 102.503906 51.199219 C 102.503906 44.375 112.742188 44.375 112.742188 51.199219 "/>
<path style=" stroke:none;fill-rule:nonzero;fill:rgb(32.198975%,0%,0%);fill-opacity:1;" d="M 130.210938 51.199219 C 130.210938 58.027344 119.972656 58.027344 119.972656 51.199219 C 119.972656 44.375 130.210938 44.375 130.210938 51.199219 "/>
<path style=" stroke:none;fill-rule:nonzero;fill:rgb(35.481184%,0%,0%);fill-opacity:1;" d="M 147.40625 51.199219 C 147.40625 58.027344 137.167969 58.027344 137.167969 51.199219 C 137.167969 44.375 147.40625 44.375 147.40625 51.199219 "/>
<path style=" stroke:none;fill-rule:nonzero;fill:rgb(38.151047%,0%,0%);fill-opacity:1;" d="M 164.289062 51.199219 C 164.289062 58.027344 154.050781 58.027344 154.050781 51.199219 C 154.050781 44.375 164.289062 44.375 164.289062 51.199219 "/>
<path style=" stroke:none;fill-rule:nonzero;fill:rgb(40.185173%,0%,0%);fill-opacity:1;" d="M 180.847656 51.199219 C 180.847656 58.027344 170.605469 58.027344 170.605469 51.199219 C 170.605469 44.375 180.847656 44.375 180.847656 51.199219 "/>
<path style=" stroke:none;fill-rule:nonzero;fill:rgb(41.637903%,0%,0%);fill-opacity:1;" d="M 197.105469 51.199219 C 197.105469 58.027344 186.867188 58.027344 186.867188 51.199219 C 186.867188 44.375 197.105469 44.375 197.105469 51.199219 "/>
<path style=" stroke:none;fill-rule:nonzero;fill:rgb(42.637656%,0%,0%);fill-opacity:1;" d="M 213.132812 51.199219 C 213.132812 58.027344 202.890625 58.027344 202.890625 51.199219 C 202.890625 44.375 213.132812 44.375 213.132812 51.199219 "/>
<path style=" stroke:none;fill-rule:nonzero;fill:rgb(43.353377%,0%,0%);fill-opacity:1;" d="M 229.015625 51.199219 C 229.015625 58.027344 218.773438 58.027344 218.773438 51.199219 C 218.773438 44.375 229.015625 44.375 229.015625 51.199219 "/>
<path style=" stroke:none;fill-rule:nonzero;fill:rgb(43.940947%,0%,0%);fill-opacity:1;" d="M 244.828125 51.199219 C 244.828125 58.027344 234.589844 58.027344 234.589844 51.199219 C 234.589844 44.375 244.828125 44.375 244.828125 51.199219 "/>
<path style=" stroke:none;fill-rule:nonzero;fill:rgb(44.489274%,0%,0%);fill-opacity:1;" d="M 260.625 51.199219 C 260.625 58.027344 250.386719 58.027344 250.386719 51.199219 C 250.386719 44.375 260.625 44.375 260.625 51.199219 "/>
<path style=" stroke:none;fill-rule:nonzero;fill:rgb(44.988145%,0%,0%);fill-opacity:1;" d="M 276.394531 51.199219 C 276.394531 58.027344 266.15625 58.027344 266.15625 51.199219 C 266.15625 44.375 276.394531 44.375 276.394531 51.199219 "/>
<path style=" stroke:none;fill-rule:nonzero;fill:rgb(45.333664%,0%,0%);fill-opacity:1;" d="M 292.089844 51.199219 C 292.089844 58.027344 281.847656 58.027344 281.847656 51.199219 C 281.847656 44.375 292.089844 44.375 292.089844 51.199219 "/>
<path style=" stroke:none;fill-rule:nonzero;fill:rgb(45.370731%,0%,0%);fill-opacity:1;" d="M 307.621094 51.199219 C 307.621094 58.027344 297.382812 58.027344 297.382812 51.199219 C 297.382812 44.375 307.621094 44.375 307.621094 51.199219 "/>
<path style=" stroke:none;fill-rule:nonzero;fill:rgb(44.952934%,0%,0%);fill-opacity:1;" d="M 322.921875 51.199219 C 322.921875 58.027344 312.683594 58.027344 312.683594 51.199219 C 312.683594 44.375 322.921875 44.375 322.921875 51.199219 "/>
<path style=" stroke:none;fill-rule:nonzero;fill:rgb(43.992117%,0%,0%);fill-opacity:1;" d="M 337.945312 51.199219 C 337.945312 58.027344 327.707031 58.027344 327.707031 51.199219 C 327.707031 44.375 337.945312 44.375 337.945312 51.199219 "/>
<path style=" stroke:none;fill-rule:nonzero;fill:rgb(42.477653%,0%,0%);fill-opacity:1;" d="M 352.6875 51.199219 C 352.6875 58.027344 342.445312 58.027344 342.445312 51.199219 C 342.445312 44.375 352.6875 44.375 352.6875 51.199219 "/>
<path style=" stroke:none;fill-rule:nonzero;fill:rgb(40.463827%,0%,0%);fill-opacity:1;" d="M 367.171875 51.199219 C 367.171875 58.027344 356.929688 58.027344 356.929688 51.199219 C 356.929688 44.375 367.171875 44.375 367.171875 51.199219 "/>
<path style=" stroke:none;fill-rule:nonzero;fill:rgb(38.038698%,0%,0%);fill-opacity:1;" d="M 381.445312 51.199219 C 381.445312 58.027344 371.203125 58.027344 371.203125 51.199219 C 371.203125 44.375 381.445312 44.375 381.445312 51.199219 "/>
<path style=" stroke:none;fill-rule:nonzero;fill:rgb(35.290849%,0%,0%);fill-opacity:1;" d="M 395.550781 51.199219 C 395.550781 58.027344 385.3125 58.027344 385.3125 51.199219 C 385.3125 44.375 395.550781 44.375 395.550781 51.199219 "/>
<path style=" stroke:none;fill-rule:nonzero;fill:rgb(32.285471%,0%,0%);fill-opacity:1;" d="M 409.527344 51.199219 C 409.527344 58.027344 399.289062 58.027344 399.289062 51.199219 C 399.289062 44.375 409.527344 44.375 409.527344 51.199219 "/>
<path style=" stroke:none;fill-rule:nonzero;fill:rgb(29.054043%,0%,0%);fill-opacity:1;" d="M 423.390625 51.199219 C 423.390625 58.027344 413.148438 58.027344 413.148438 51.199219 C 413.148438 44.375 423.390625 44.375 423.390625 51.199219 "/>
<path style=" stroke:none;fill-rule:nonzero;fill:rgb(25.597743%,0%,0%);fill-opacity:1;" d="M 437.136719 51.199219 C 437.136719 58.027344 426.894531 58.027344 426.894531 51.199219 C 426.894531 44.375 437.136719 44.375 437.136719 51.199219 "/>
<path style=" stroke:none;fill-rule:nonzero;fill:rgb(21.900871%,0%,0%);fill-opacity:1;" d="M 450.757812 51.199219 C 450.757812 58.027344 440.515625 58.027344 440.515625 51.199219 C 440.515625 44.375 450.757812 44.375 450.757812 51.199219 "/>
<path style=" stroke:none;fill-rule:nonzero;fill:rgb(17.948253%,0%,0%);fill-opacity:1;" d="M 464.25 51.199219 C 464.25 58.027344 454.007812 58.027344 454.007812 51.199219 C 454.007812 44.375 464.25 44.375 464.25 51.199219 "/>
<path style=" stroke:none;fill-rule:nonzero;fill:rgb(13.740854%,0%,0%);fill-opacity:1;" d="M 477.609375 51.199219 C 477.609375 58.027344 467.371094 58.027344 467.371094 51.199219 C 467.371094 44.375 477.609375 44.375 477.609375 51.199219 "/>
<path style=" stroke:none;fill-rule:nonzero;fill:rgb(9.305856%,0%,0%);fill-opacity:1;" d="M 490.855469 51.199219 C 490.855469 58.027344 480.613281 58.027344 480.613281 51.199219 C 480.613281 44.375 490.855469 44.375 490.855469 51.199219 "/>
<path style=" stroke:none;fill-rule:nonzero;fill:rgb(4.699104%,0%,0%);fill-opacity:1;" d="M 504.011719 51.199219 C 504.011719 58.027344 493.769531 58.027344 493.769531 51.199219 C 493.769531 44.375 504.011719 44.375 504.011719 51.199219 "/>
<path style="fill:none;stroke-width:0.01;stroke-linecap:butt;stroke-linejoin:miter;stroke:rgb(100%,0%,0%);stroke-opacity:0.8;stroke-miterlimit:10;" d="M 0 0.0152435 L 0.000999451 0.0493088 L 0.0019989 0.0415878 L 0.00299835 0.0456543 L 0.0039978 0.0504684 L 0.00499725 0.042984 L 0.0059967 0.0438461 L 0.00700378 0.0508881 L 0.00800323 0.0450211 L 0.00900269 0.0425568 L 0.0100021 0.0505371 L 0.0110016 0.0473633 L 0.012001 0.0420837 L 0.0130005 0.0495148 L 0.0139999 0.0496368 L 0.0149994 0.0425873 L 0.0159988 0.0480728 L 0.0169983 0.0515137 L 0.0179977 0.0440292 L 0.0189972 0.0465851 L 0.0199966 0.0527573 L 0.0210037 0.0462112 L 0.0220032 0.0454483 L 0.0230026 0.0532379 L 0.0240021 0.0488358 L 0.0250015 0.0450287 L 0.026001 0.0529709 L 0.0270004 0.0515518 L 0.0279999 0.0455246 L 0.0289993 0.0521317 L 0.0299988 0.054039 L 0.0309982 0.0469742 L 0.0319977 0.0510559 L 0.0329971 0.056015 L 0.0339966 0.0492325 L 0.0350037 0.0501556 L 0.0360031 0.057312 L 0.0370026 0.0520401 L 0.038002 0.0498123 L 0.0390015 0.0578308 L 0.0400009 0.0550766 L 0.0410004 0.0503082 L 0.0419998 0.0576706 L 0.0429993 0.0580215 L 0.0439987 0.0517349 L 0.0449982 0.0570984 L 0.0459976 0.0606155 L 0.0469971 0.0540085 L 0.0479965 0.0565033 L 0.0490036 0.0626373 L 0.0500031 0.0569153 L 0.0510025 0.0562897 L 0.052002 0.0639267 L 0.0530014 0.0601501 L 0.0540009 0.0567932 L 0.0550003 0.0644836 L 0.0559998 0.0634232 L 0.0569992 0.0581741 L 0.0579987 0.0644684 L 0.0589981 0.0664673 L 0.0599976 0.0604019 L 0.060997 0.0642471 L 0.0619965 0.0690842 L 0.0630035 0.0633163 L 0.064003 0.0642319 L 0.0650024 0.0710831 L 0.0660019 0.066658 L 0.0670013 0.0647659 L 0.0680008 0.0723267 L 0.0690002 0.0701294 L 0.0699997 0.0660782 L 0.0709991 0.0729141 L 0.0719986 0.0734787 L 0.072998 0.0682144 L 0.0739975 0.0731201 L 0.0749969 0.0765228 L 0.0759964 0.0710602 L 0.0770035 0.073349 L 0.0780029 0.0790863 L 0.0790024 0.0744019 L 0.0800018 0.0739517 L 0.0810013 0.0809708 L 0.0820007 0.0779724 L 0.0830002 0.0751953 L 0.0839996 0.0821457 L 0.0849991 0.0814972 L 0.0859985 0.0771942 L 0.086998 0.0828094 L 0.0879974 0.0847855 L 0.0889969 0.0799026 L 0.0899963 0.0833206 L 0.0910034 0.087738 L 0.0920029 0.0831451 L 0.0930023 0.0840302 L 0.0940018 0.0901489 L 0.0950012 0.0866928 L 0.0960007 0.0852203 L 0.0970001 0.0918579 L 0.0979996 0.0902939 L 0.098999 0.087059 L 0.0999985 0.0929794 L 0.100998 0.093689 L 0.101997 0.0895538 L 0.102997 0.0937958 L 0.103996 0.0968246 L 0.105003 0.0926056 L 0.106003 0.0946274 L 0.107002 0.0996017 L 0.108002 0.0960083 L 0.109001 0.095787 L 0.110001 0.101753 L 0.111 0.0995636 L 0.112 0.0974503 L 0.112999 0.103294 L 0.113998 0.102997 L 0.114998 0.0997009 L 0.115997 0.104408 L 0.116997 0.10614 L 0.117996 0.102478 L 0.119003 0.105392 L 0.120003 0.10907 L 0.121002 0.105637 L 0.122002 0.106522 L 0.123001 0.111542 L 0.124001 0.109001 L 0.125 0.108017 L 0.125999 0.113426 L 0.126999 0.112396 L 0.127998 0.109993 L 0.128998 0.114815 L 0.129997 0.115479 L 0.130997 0.11245 L 0.132004 0.115944 L 0.133003 0.118355 L 0.134003 0.115288 L 0.135002 0.117073 L 0.136002 0.120972 L 0.137001 0.118355 L 0.138 0.118416 L 0.139 0.1231 L 0.139999 0.121559 L 0.140999 0.120117 L 0.141998 0.124718 L 0.142998 0.12458 L 0.143997 0.122223 L 0.144997 0.125992 L 0.146004 0.127281 L 0.147003 0.124695 L 0.148003 0.127136 L 0.149002 0.129852 L 0.150002 0.127411 L 0.151001 0.128342 L 0.152 0.132103 L 0.153 0.130272 L 0.153999 0.129791 L 0.154999 0.133896 L 0.155998 0.133163 L 0.156998 0.131554 L 0.157997 0.135284 L 0.158997 0.135712 L 0.160004 0.133629 L 0.161003 0.136459 L 0.162003 0.138077 L 0.163002 0.135956 L 0.164001 0.137573 L 0.165001 0.140305 L 0.166 0.138435 L 0.167 0.138786 L 0.167999 0.142181 L 0.168999 0.141029 L 0.169998 0.140244 L 0.170998 0.143661 L 0.171997 0.143471 L 0.172997 0.14193 L 0.174004 0.144867 L 0.175003 0.145592 L 0.176003 0.143852 L 0.177002 0.145912 L 0.178001 0.147644 L 0.179001 0.145935 L 0.18 0.14695 L 0.181 0.149506 L 0.181999 0.14814 L 0.182999 0.148132 L 0.183998 0.151031 L 0.184998 0.150383 L 0.185997 0.149467 L 0.186996 0.15226 L 0.188004 0.152344 L 0.189003 0.150993 L 0.190002 0.153275 L 0.191002 0.154121 L 0.192001 0.152695 L 0.193001 0.154167 L 0.194 0.155853 L 0.195 0.154503 L 0.195999 0.155128 L 0.196999 0.157364 L 0.197998 0.156418 L 0.198997 0.156181 L 0.199997 0.158607 L 0.200996 0.158241 L 0.202003 0.157341 L 0.203003 0.159599 L 0.204002 0.159798 L 0.205002 0.158676 L 0.206001 0.160408 L 0.207001 0.161293 L 0.208 0.16011 L 0.209 0.161186 L 0.209999 0.162704 L 0.210999 0.161652 L 0.211998 0.162025 L 0.212997 0.163925 L 0.213997 0.163246 L 0.214996 0.162888 L 0.216003 0.164909 L 0.217003 0.164673 L 0.218002 0.163872 L 0.219002 0.165672 L 0.220001 0.165916 L 0.221001 0.164986 L 0.222 0.166328 L 0.223 0.167145 L 0.223999 0.166176 L 0.224998 0.166992 L 0.225998 0.168289 L 0.226997 0.16745 L 0.227997 0.167641 L 0.228996 0.169258 L 0.230003 0.168724 L 0.231003 0.168327 L 0.232002 0.169991 L 0.233002 0.169807 L 0.234001 0.169128 L 0.235001 0.17057 L 0.236 0.170799 L 0.237 0.170029 L 0.237999 0.17112 L 0.238998 0.171806 L 0.239998 0.17099 L 0.240997 0.171616 L 0.241997 0.172729 L 0.242996 0.17202 L 0.244003 0.172081 L 0.245003 0.173447 L 0.246002 0.172989 L 0.247002 0.172607 L 0.248001 0.173988 L 0.249001 0.17379 L 0.25 0.173248 L 0.250999 0.174446 L 0.251999 0.174599 L 0.252998 0.173943 L 0.253998 0.174858 L 0.254997 0.175423 L 0.255997 0.174698 L 0.257004 0.175171 L 0.258003 0.176125 L 0.259003 0.175499 L 0.260002 0.175484 L 0.261002 0.176643 L 0.262001 0.176201 L 0.263 0.175888 L 0.264 0.177055 L 0.264999 0.176811 L 0.265999 0.176369 L 0.266998 0.177406 L 0.267998 0.177483 L 0.268997 0.17688 L 0.269997 0.17765 L 0.271004 0.178131 L 0.272003 0.17746 L 0.273003 0.177818 L 0.274002 0.178635 L 0.275002 0.178047 L 0.276001 0.178024 L 0.277 0.179024 L 0.278 0.178551 L 0.278999 0.178329 L 0.279999 0.179359 L 0.280998 0.179054 L 0.281998 0.178665 L 0.282997 0.179573 L 0.283997 0.179596 L 0.285004 0.179031 L 0.286003 0.179672 L 0.287003 0.180077 L 0.288002 0.179459 L 0.289001 0.179749 L 0.290001 0.180466 L 0.291 0.179886 L 0.292 0.179901 L 0.292999 0.180794 L 0.293999 0.180267 L 0.294998 0.180107 L 0.295998 0.181023 L 0.296997 0.180687 L 0.297997 0.180313 L 0.299004 0.181114 L 0.300003 0.181114 L 0.301003 0.18058 L 0.302002 0.181122 L 0.303001 0.181496 L 0.304001 0.180901 L 0.305 0.181175 L 0.306 0.181839 L 0.306999 0.181221 L 0.307999 0.181282 L 0.308998 0.182098 L 0.309998 0.181534 L 0.310997 0.181396 L 0.311996 0.18222 L 0.313004 0.181877 L 0.314003 0.181526 L 0.315002 0.182228 L 0.316002 0.182236 L 0.317001 0.181725 L 0.318001 0.182228 L 0.319 0.182587 L 0.32 0.181976 L 0.320999 0.182266 L 0.321999 0.182884 L 0.322998 0.182236 L 0.323997 0.182327 L 0.324997 0.183067 L 0.325996 0.182503 L 0.327003 0.182373 L 0.328003 0.183113 L 0.329002 0.1828 L 0.330002 0.182465 L 0.331001 0.183121 L 0.332001 0.183136 L 0.333 0.182625 L 0.334 0.183121 L 0.334999 0.183472 L 0.335999 0.182838 L 0.336998 0.183136 L 0.337997 0.183708 L 0.338997 0.18306 L 0.339996 0.183151 L 0.341003 0.183823 L 0.342003 0.183281 L 0.343002 0.183174 L 0.344002 0.183853 L 0.345001 0.183571 L 0.346001 0.183235 L 0.347 0.183861 L 0.348 0.183907 L 0.348999 0.183372 L 0.349998 0.183853 L 0.350998 0.184196 L 0.351997 0.183548 L 0.352997 0.183853 L 0.353996 0.184364 L 0.355003 0.183731 L 0.356003 0.183846 L 0.357002 0.184448 L 0.358002 0.183945 L 0.359001 0.183838 L 0.360001 0.184494 L 0.361 0.184235 L 0.362 0.183876 L 0.362999 0.184479 L 0.363998 0.18454 L 0.364998 0.183983 L 0.365997 0.184464 L 0.366997 0.184761 L 0.367996 0.184128 L 0.369003 0.184441 L 0.370003 0.184891 L 0.371002 0.184273 L 0.372002 0.184395 L 0.373001 0.184975 L 0.374001 0.184479 L 0.375 0.184364 L 0.375999 0.18499 L 0.376999 0.184761 L 0.377998 0.184372 L 0.378998 0.184959 L 0.379997 0.185005 L 0.380997 0.184448 L 0.382004 0.184937 L 0.383003 0.185165 L 0.384003 0.184547 L 0.385002 0.184875 L 0.386002 0.185287 L 0.387001 0.184662 L 0.388 0.184792 L 0.389 0.185341 L 0.389999 0.184868 L 0.390999 0.184715 L 0.391998 0.185326 L 0.392998 0.185104 L 0.393997 0.184692 L 0.394997 0.185295 L 0.396004 0.185287 L 0.397003 0.184731 L 0.398003 0.185242 L 0.399002 0.185425 L 0.400002 0.184784 L 0.401001 0.185135 L 0.402 0.185516 L 0.403 0.184898 L 0.403999 0.184998 L 0.404999 0.185532 L 0.405998 0.185081 L 0.406998 0.184883 L 0.407997 0.185501 L 0.408997 0.185257 L 0.410004 0.18483 L 0.411003 0.185463 L 0.412003 0.185402 L 0.413002 0.18483 L 0.414001 0.185364 L 0.415001 0.185524 L 0.416 0.184868 L 0.417 0.185204 L 0.417999 0.185577 L 0.418999 0.184967 L 0.419998 0.18502 L 0.420998 0.18557 L 0.421997 0.185112 L 0.422997 0.184875 L 0.424004 0.185547 L 0.425003 0.185249 L 0.426003 0.184807 L 0.427002 0.185478 L 0.428001 0.185379 L 0.429001 0.184792 L 0.43 0.185326 L 0.431 0.185478 L 0.431999 0.184814 L 0.432999 0.18512 L 0.433998 0.185516 L 0.434998 0.184898 L 0.435997 0.184906 L 0.436996 0.185516 L 0.438004 0.185013 L 0.439003 0.184753 L 0.440002 0.185486 L 0.441002 0.185143 L 0.442001 0.184685 L 0.443001 0.185379 L 0.444 0.185272 L 0.445 0.184662 L 0.445999 0.185181 L 0.446999 0.185356 L 0.447998 0.184685 L 0.448997 0.184944 L 0.449997 0.185402 L 0.450996 0.184761 L 0.452003 0.184731 L 0.453003 0.185417 L 0.454002 0.184868 L 0.455002 0.184593 L 0.456001 0.185364 L 0.457001 0.185005 L 0.458 0.184525 L 0.459 0.185211 L 0.459999 0.185135 L 0.460999 0.184502 L 0.461998 0.18499 L 0.462997 0.185234 L 0.463997 0.184532 L 0.464996 0.184753 L 0.466003 0.185295 L 0.467003 0.184616 L 0.468002 0.184563 L 0.469002 0.185303 L 0.470001 0.184738 L 0.471001 0.184441 L 0.472 0.185226 L 0.473 0.184891 L 0.473999 0.184387 L 0.474998 0.185051 L 0.475998 0.185036 L 0.476997 0.18438 L 0.477997 0.184822 L 0.478996 0.185165 L 0.480003 0.184425 L 0.481003 0.184608 L 0.482002 0.185242 L 0.483002 0.184532 L 0.484001 0.184456 L 0.485001 0.185234 L 0.486 0.184685 L 0.487 0.184364 L 0.487999 0.185135 L 0.488998 0.18486 L 0.489998 0.184334 L 0.490997 0.184952 L 0.491997 0.185043 L 0.492996 0.184349 L 0.494003 0.184761 L 0.495003 0.185188 L 0.496002 0.184425 L 0.497002 0.184586 L 0.498001 0.185265 L 0.499001 0.184563 L 0.5 0.184464 L 0.500999 0.185249 L 0.501999 0.184746 L 0.502998 0.184402 L 0.503998 0.185143 L 0.504997 0.184967 L 0.505997 0.184402 L 0.507004 0.18499 L 0.508003 0.185173 L 0.509003 0.184456 L 0.510002 0.18483 L 0.511002 0.185326 L 0.512001 0.184563 L 0.513 0.184692 L 0.514 0.185394 L 0.514999 0.184731 L 0.515999 0.184608 L 0.516998 0.185371 L 0.517998 0.184952 L 0.518997 0.184586 L 0.519997 0.18528 L 0.521004 0.185196 L 0.522003 0.184616 L 0.523003 0.185158 L 0.524002 0.18541 L 0.525002 0.184692 L 0.526001 0.185028 L 0.527 0.18557 L 0.528 0.184822 L 0.528999 0.184929 L 0.529999 0.185623 L 0.530998 0.18502 L 0.531998 0.184875 L 0.532997 0.185593 L 0.533997 0.185265 L 0.535004 0.184868 L 0.536003 0.185516 L 0.537003 0.185509 L 0.538002 0.184914 L 0.539001 0.185417 L 0.540001 0.18573 L 0.541 0.185005 L 0.542 0.185318 L 0.542999 0.18586 L 0.543999 0.185143 L 0.544998 0.185234 L 0.545998 0.185883 L 0.546997 0.185356 L 0.547997 0.185196 L 0.549004 0.18586 L 0.550003 0.185608 L 0.551003 0.185188 L 0.552002 0.185799 L 0.553001 0.185852 L 0.554001 0.185234 L 0.555 0.185707 L 0.556 0.186035 L 0.556999 0.185318 L 0.557999 0.185616 L 0.558998 0.186119 L 0.559998 0.185463 L 0.560997 0.185547 L 0.561996 0.186134 L 0.563004 0.185677 L 0.564003 0.185486 L 0.565002 0.186111 L 0.566002 0.185913 L 0.567001 0.185463 L 0.568001 0.18605 L 0.569 0.186134 L 0.57 0.185501 L 0.570999 0.185959 L 0.571999 0.186264 L 0.572998 0.185577 L 0.573997 0.185875 L 0.574997 0.18631 L 0.575996 0.185715 L 0.577003 0.185776 L 0.578003 0.186333 L 0.579002 0.185921 L 0.580002 0.185677 L 0.581001 0.18631 L 0.582001 0.186142 L 0.583 0.185661 L 0.584 0.186234 L 0.584999 0.18631 L 0.585999 0.185684 L 0.586998 0.186142 L 0.587997 0.186401 L 0.588997 0.185753 L 0.589996 0.18605 L 0.591003 0.186447 L 0.592003 0.185898 L 0.593002 0.185905 L 0.594002 0.186462 L 0.595001 0.186089 L 0.596001 0.185806 L 0.597 0.186432 L 0.598 0.186279 L 0.598999 0.185799 L 0.599998 0.186363 L 0.600998 0.186417 L 0.601997 0.185822 L 0.602997 0.186287 L 0.603996 0.186485 L 0.605003 0.18589 L 0.606003 0.186142 L 0.607002 0.186546 L 0.608002 0.186035 L 0.609001 0.185982 L 0.610001 0.186562 L 0.611 0.186218 L 0.612 0.185921 L 0.612999 0.186539 L 0.613998 0.186386 L 0.614998 0.185921 L 0.615997 0.186501 L 0.616997 0.186501 L 0.617996 0.185944 L 0.619003 0.186394 L 0.620003 0.186592 L 0.621002 0.186035 L 0.622002 0.186218 L 0.623001 0.186653 L 0.624001 0.18618 L 0.625 0.186089 L 0.625999 0.186676 L 0.626999 0.186356 L 0.627998 0.186066 L 0.628998 0.186691 L 0.629997 0.186508 L 0.630997 0.186073 L 0.632004 0.186653 L 0.633003 0.186623 L 0.634003 0.186111 L 0.635002 0.186501 L 0.636002 0.186714 L 0.637001 0.186203 L 0.638 0.18634 L 0.639 0.18679 L 0.639999 0.186348 L 0.640999 0.186264 L 0.641998 0.186852 L 0.642998 0.186508 L 0.643997 0.186256 L 0.644997 0.186874 L 0.646004 0.186653 L 0.647003 0.186256 L 0.648003 0.186783 L 0.649002 0.186752 L 0.650002 0.186287 L 0.651001 0.186615 L 0.652 0.186844 L 0.653 0.186371 L 0.653999 0.186493 L 0.654999 0.186951 L 0.655998 0.186501 L 0.656998 0.18644 L 0.657997 0.187019 L 0.658997 0.186638 L 0.660004 0.186409 L 0.661003 0.186989 L 0.662003 0.186729 L 0.663002 0.186394 L 0.664001 0.186844 L 0.665001 0.186813 L 0.666 0.186394 L 0.667 0.186691 L 0.667999 0.186913 L 0.668999 0.186447 L 0.669998 0.186577 L 0.670998 0.187012 L 0.671997 0.186531 L 0.672997 0.186485 L 0.674004 0.187027 L 0.675003 0.186592 L 0.676003 0.186417 L 0.677002 0.186913 L 0.678001 0.186623 L 0.679001 0.18634 L 0.68 0.186737 L 0.681 0.186676 L 0.681999 0.186279 L 0.682999 0.186577 L 0.683998 0.18676 L 0.684998 0.186249 L 0.685997 0.186394 L 0.686996 0.18679 L 0.688004 0.186234 L 0.689003 0.186226 L 0.690002 0.186691 L 0.691002 0.186188 L 0.692001 0.186081 L 0.693001 0.186493 L 0.694 0.18615 L 0.695 0.185905 L 0.695999 0.186287 L 0.696999 0.18615 L 0.697998 0.185722 L 0.698997 0.186028 L 0.699997 0.186142 L 0.700996 0.185562 L 0.702003 0.185722 L 0.703003 0.186035 L 0.704002 0.185402 L 0.705002 0.185463 L 0.706001 0.185806 L 0.707001 0.185219 L 0.708 0.185188 L 0.709 0.185539 L 0.709999 0.185081 L 0.710999 0.184837 L 0.711998 0.185211 L 0.712997 0.184975 L 0.713997 0.184479 L 0.714996 0.184776 L 0.716003 0.184807 L 0.717003 0.184135 L 0.718002 0.184341 L 0.719002 0.184525 L 0.720001 0.183784 L 0.721001 0.183937 L 0.722 0.184181 L 0.723 0.183449 L 0.723999 0.183449 L 0.724998 0.183784 L 0.725998 0.183167 L 0.726997 0.182869 L 0.727997 0.183243 L 0.728996 0.182877 L 0.730003 0.182274 L 0.731003 0.182617 L 0.732002 0.182495 L 0.733002 0.181702 L 0.734001 0.182014 L 0.735001 0.182053 L 0.736 0.181129 L 0.737 0.181389 L 0.737999 0.181564 L 0.738998 0.180611 L 0.739998 0.180611 L 0.740997 0.180931 L 0.741997 0.18013 L 0.742996 0.179733 L 0.744003 0.180153 L 0.745003 0.179604 L 0.746002 0.178879 L 0.747002 0.179314 L 0.748001 0.179016 L 0.749001 0.178032 L 0.75 0.178482 L 0.750999 0.178406 L 0.751999 0.177208 L 0.752998 0.177559 L 0.753998 0.177681 L 0.754997 0.17646 L 0.755997 0.176414 L 0.757004 0.176788 L 0.758003 0.175728 L 0.759003 0.175209 L 0.760002 0.175751 L 0.761002 0.174957 L 0.762001 0.174042 L 0.763 0.174644 L 0.764 0.174194 L 0.764999 0.172897 L 0.765999 0.173531 L 0.766998 0.17337 L 0.767998 0.171814 L 0.768997 0.172203 L 0.769997 0.172371 L 0.771004 0.170799 L 0.772003 0.170654 L 0.773003 0.171196 L 0.774002 0.169807 L 0.775002 0.169113 L 0.776001 0.169853 L 0.777 0.168854 L 0.778 0.16761 L 0.778999 0.168457 L 0.779999 0.1679 L 0.780998 0.166153 L 0.781998 0.166977 L 0.782997 0.166817 L 0.783997 0.164795 L 0.785004 0.165169 L 0.786003 0.16555 L 0.787003 0.163536 L 0.788002 0.163223 L 0.789001 0.164055 L 0.790001 0.162361 L 0.791 0.161339 L 0.792 0.162369 L 0.792999 0.161247 L 0.793999 0.159492 L 0.794998 0.160667 L 0.795998 0.160088 L 0.796997 0.157753 L 0.797997 0.158707 L 0.799004 0.158775 L 0.800003 0.156174 L 0.801003 0.156425 L 0.802002 0.157204 L 0.803001 0.154747 L 0.804001 0.154129 L 0.805 0.155342 L 0.806 0.153458 L 0.806999 0.151901 L 0.807999 0.153336 L 0.808998 0.152214 L 0.809998 0.149765 L 0.810997 0.151253 L 0.811996 0.150879 L 0.813004 0.147827 L 0.814003 0.148766 L 0.815002 0.149315 L 0.816002 0.146111 L 0.817001 0.14608 L 0.818001 0.1474 L 0.819 0.144623 L 0.82 0.143471 L 0.820999 0.14518 L 0.821999 0.143288 L 0.822998 0.140953 L 0.823997 0.142868 L 0.824997 0.14196 L 0.825996 0.138634 L 0.827003 0.140305 L 0.828003 0.140457 L 0.829002 0.13662 L 0.830002 0.137352 L 0.831001 0.138603 L 0.832001 0.134918 L 0.833 0.134369 L 0.834 0.13633 L 0.834999 0.133476 L 0.835999 0.131493 L 0.836998 0.133797 L 0.837997 0.132156 L 0.838997 0.128822 L 0.839996 0.131134 L 0.841003 0.130768 L 0.842003 0.126488 L 0.843002 0.12809 L 0.844002 0.129066 L 0.845001 0.12455 L 0.846001 0.124809 L 0.847 0.1269 L 0.848 0.122993 L 0.848999 0.12162 L 0.849998 0.124298 L 0.850998 0.121689 L 0.851997 0.118622 L 0.852997 0.12149 L 0.853996 0.120438 L 0.855003 0.115974 L 0.856003 0.118439 L 0.857002 0.118965 L 0.858002 0.1138 L 0.859001 0.115028 L 0.860001 0.117027 L 0.861 0.112106 L 0.862 0.111572 L 0.862999 0.114555 L 0.863998 0.110817 L 0.864998 0.108299 L 0.865997 0.111694 L 0.866997 0.109718 L 0.867996 0.105377 L 0.869003 0.10862 L 0.870003 0.108521 L 0.871002 0.102966 L 0.872002 0.105232 L 0.873001 0.106918 L 0.874001 0.101143 L 0.875 0.101639 L 0.875999 0.104744 L 0.876999 0.0998459 L 0.877998 0.0981598 L 0.878998 0.102028 L 0.879997 0.0988922 L 0.880997 0.0950089 L 0.882004 0.0989685 L 0.883003 0.0979919 L 0.884003 0.0923843 L 0.885002 0.0956497 L 0.886002 0.0967941 L 0.887001 0.090416 L 0.888 0.0920715 L 0.889 0.095047 L 0.889999 0.0890961 L 0.890999 0.0884857 L 0.891998 0.0926743 L 0.892998 0.0882721 L 0.893997 0.0851746 L 0.894997 0.0897827 L 0.896004 0.0876694 L 0.897003 0.0823746 L 0.898003 0.0865784 L 0.899002 0.0869064 L 0.900002 0.0802612 L 0.901001 0.0831223 L 0.902 0.0856781 L 0.903 0.0789032 L 0.903999 0.0795517 L 0.904999 0.0838013 L 0.905998 0.078186 L 0.906998 0.0761642 L 0.907997 0.0812912 L 0.908997 0.0778503 L 0.910004 0.0732422 L 0.911003 0.0783081 L 0.912003 0.0775375 L 0.913002 0.0710068 L 0.914001 0.0750275 L 0.915001 0.0768661 L 0.916 0.0695877 L 0.917 0.0715866 L 0.917999 0.0755997 L 0.918999 0.0689316 L 0.919998 0.0682297 L 0.920998 0.0736237 L 0.921997 0.0688324 L 0.922997 0.0652466 L 0.924004 0.0710449 L 0.925003 0.0689316 L 0.926003 0.0629272 L 0.927002 0.0680389 L 0.928001 0.06884 L 0.929001 0.0614395 L 0.93 0.0648193 L 0.931 0.0682373 L 0.931999 0.0608215 L 0.932999 0.0615768 L 0.933998 0.0669327 L 0.934998 0.0608978 L 0.935997 0.0586243 L 0.936996 0.0649185 L 0.938004 0.0613632 L 0.939003 0.0562668 L 0.940002 0.0623398 L 0.941002 0.061821 L 0.942001 0.0547256 L 0.943001 0.0594254 L 0.944 0.0618973 L 0.945 0.0541077 L 0.945999 0.0563965 L 0.946999 0.0613327 L 0.947998 0.0543137 L 0.948997 0.0535583 L 0.949997 0.0600204 L 0.950996 0.055069 L 0.952003 0.0512161 L 0.953003 0.0580215 L 0.954002 0.056015 L 0.955002 0.0496521 L 0.956001 0.055542 L 0.957001 0.0567398 L 0.958 0.0490189 L 0.959 0.0528183 L 0.959999 0.0569382 L 0.960999 0.0492935 L 0.961998 0.0501633 L 0.962997 0.0564117 L 0.963997 0.0502701 L 0.964996 0.047905 L 0.966003 0.0551224 L 0.967003 0.0516129 L 0.968002 0.0463486 L 0.969002 0.053215 L 0.970001 0.0529327 L 0.971001 0.0457077 L 0.972 0.0509109 L 0.973 0.0538559 L 0.973999 0.0460129 L 0.974998 0.0485306 L 0.975998 0.0541306 L 0.976997 0.0471344 L 0.977997 0.0464172 L 0.978996 0.0536346 L 0.980003 0.0487747 L 0.981003 0.0449066 L 0.982002 0.0524216 L 0.983002 0.0505753 L 0.984001 0.0442581 L 0.985001 0.0506668 L 0.986 0.0521622 L 0.987 0.0445633 L 0.987999 0.0486526 L 0.988998 0.053215 L 0.989998 0.0457611 L 0.990997 0.0467529 L 0.991997 0.0535431 L 0.992996 0.0476151 L 0.994003 0.0453339 L 0.995003 0.0531082 L 0.996002 0.0497894 L 0.997002 0.044693 L 0.998001 0.052002 L 0.999001 0.051918 " transform="matrix(512,0,0,512,0,0)"/>
</g>
</svg>
